<svg width="37" height="37" viewBox="0 0 37 37" fill="none" xmlns="http://www.w3.org/2000/svg">
<g id="Group">
<path id="Vector" d="M28.3068 16.3565V0.514893H8.50478V8.43569H0.583984V36.1585H16.4256V28.2377H20.386V36.1585H36.2276V16.3565H28.3068ZM8.50478 32.1981H4.54438V28.2377H8.50478V32.1981ZM8.50478 24.2773H4.54438V20.3169H8.50478V24.2773ZM8.50478 16.3565H4.54438V12.3961H8.50478V16.3565ZM16.4256 24.2773H12.4652V20.3169H16.4256V24.2773ZM16.4256 16.3565H12.4652V12.3961H16.4256V16.3565ZM16.4256 8.43569H12.4652V4.47529H16.4256V8.43569ZM24.3464 24.2773H20.386V20.3169H24.3464V24.2773ZM24.3464 16.3565H20.386V12.3961H24.3464V16.3565ZM24.3464 8.43569H20.386V4.47529H24.3464V8.43569ZM32.2672 32.1981H28.3068V28.2377H32.2672V32.1981ZM32.2672 24.2773H28.3068V20.3169H32.2672V24.2773Z" fill="#FAFAFB"/>
</g>
</svg>
