<svg width="37" height="37" viewBox="0 0 37 37" fill="none" xmlns="http://www.w3.org/2000/svg">
<g id="Group">
<path id="Vector" d="M28.3067 16.3564V0.514771H8.50472V8.43556H0.583923V36.1583H16.4255V28.2375H20.3859V36.1583H36.2275V16.3564H28.3067ZM8.50472 32.1979H4.54432V28.2375H8.50472V32.1979ZM8.50472 24.2771H4.54432V20.3168H8.50472V24.2771ZM8.50472 16.3564H4.54432V12.396H8.50472V16.3564ZM16.4255 24.2771H12.4651V20.3168H16.4255V24.2771ZM16.4255 16.3564H12.4651V12.396H16.4255V16.3564ZM16.4255 8.43556H12.4651V4.47517H16.4255V8.43556ZM24.3463 24.2771H20.3859V20.3168H24.3463V24.2771ZM24.3463 16.3564H20.3859V12.396H24.3463V16.3564ZM24.3463 8.43556H20.3859V4.47517H24.3463V8.43556ZM32.2671 32.1979H28.3067V28.2375H32.2671V32.1979ZM32.2671 24.2771H28.3067V20.3168H32.2671V24.2771Z" fill="#FAFAFB"/>
</g>
</svg>
