<svg width="12" height="10" viewBox="0 0 12 10" fill="none" xmlns="http://www.w3.org/2000/svg">
<g id="Property 1=Variaasct2" opacity="0.2">
<path id="Arrow - Down 2" d="M7.13107 0.369117C7.18907 0.42562 7.43707 0.638968 7.64108 0.837705C8.92409 2.00284 11.0241 5.04233 11.6651 6.63319C11.7681 6.87479 11.9861 7.48561 12.0001 7.81196C12.0001 8.12468 11.9281 8.42278 11.7821 8.70724C11.5781 9.06185 11.2571 9.34632 10.8781 9.50219C10.6151 9.60253 9.8281 9.7584 9.8141 9.7584C8.95309 9.91427 7.55408 10 6.00806 10C4.53504 10 3.19303 9.91427 2.31902 9.78665C2.30502 9.77204 1.32701 9.61617 0.992007 9.44568C0.380001 9.13297 -1.90735e-06 8.52215 -1.90735e-06 7.86846V7.81196C0.0149975 7.38624 0.395002 6.49095 0.409002 6.49095C1.05101 4.98582 3.04803 2.01648 4.37504 0.823092C4.37504 0.823092 4.71605 0.486995 4.92905 0.340865C5.23505 0.112904 5.61406 -0.000102997 5.99306 -0.000102997C6.41606 -0.000102997 6.81007 0.127517 7.13107 0.369117Z" fill="black" fill-opacity="0.87"/>
</g>
</svg>
