<svg width="12" height="10" viewBox="0 0 12 10" fill="none" xmlns="http://www.w3.org/2000/svg">
<g id="Property 1=Default" opacity="0.2">
<path id="Arrow - Down 2" d="M4.86905 9.63088C4.81105 9.57438 4.56305 9.36103 4.35905 9.1623C3.07603 7.99716 0.97601 4.95767 0.335003 3.36681C0.232002 3.12521 0.0140001 2.51439 0 2.18804C0 1.87532 0.0720007 1.57722 0.218002 1.29276C0.422004 0.938149 0.743008 0.653684 1.12201 0.497813C1.38501 0.397471 2.17202 0.2416 2.18602 0.2416C3.04703 0.0857291 4.44605 0 5.99206 0C7.46508 0 8.80709 0.0857291 9.6811 0.213349C9.6951 0.227961 10.6731 0.383832 11.0081 0.554316C11.6201 0.867033 12.0001 1.47785 12.0001 2.13154V2.18804C11.9851 2.61376 11.6051 3.50905 11.5911 3.50905C10.9491 5.01418 8.95209 7.98352 7.62508 9.17691C7.62508 9.17691 7.28408 9.51301 7.07107 9.65913C6.76507 9.8871 6.38607 10.0001 6.00706 10.0001C5.58406 10.0001 5.19005 9.87248 4.86905 9.63088Z" fill="black" fill-opacity="0.87"/>
</g>
</svg>
