 <svg width="38" height="38" viewBox="0 0 38 38" fill="none" xmlns="http://www.w3.org/2000/svg">
    <path d="M18.72 35.4892C9.46915 35.4892 1.94995 27.97 1.94995 18.7192C1.94995 9.46842 9.46915 1.94922 18.72 1.94922C27.9708 1.94922 35.49 9.46842 35.49 18.7192C35.49 27.97 27.9708 35.4892 18.72 35.4892ZM18.72 4.28922C10.764 4.28922 4.28995 10.7632 4.28995 18.7192C4.28995 26.6752 10.764 33.1492 18.72 33.1492C26.676 33.1492 33.15 26.6752 33.15 18.7192C33.15 10.7632 26.676 4.28922 18.72 4.28922Z" fill="white"/>
    <path d="M14.3053 24.3044C14.0089 24.3044 13.7125 24.1952 13.4785 23.9612C13.0261 23.5088 13.0261 22.76 13.4785 22.3076L22.3081 13.478C22.7605 13.0256 23.5093 13.0256 23.9617 13.478C24.4141 13.9304 24.4141 14.6792 23.9617 15.1316L15.1321 23.9612C14.9137 24.1952 14.6017 24.3044 14.3053 24.3044Z" fill="white"/>
    <path d="M23.1349 24.3044C22.8385 24.3044 22.5421 24.1952 22.3081 23.9612L13.4785 15.1316C13.0261 14.6792 13.0261 13.9304 13.4785 13.478C13.9309 13.0256 14.6797 13.0256 15.1321 13.478L23.9617 22.3076C24.4141 22.76 24.4141 23.5088 23.9617 23.9612C23.7277 24.1952 23.4313 24.3044 23.1349 24.3044Z" fill="white"/>
</svg>