<svg width="24" height="24" viewBox="0 0 24 24" fill="none" xmlns="http://www.w3.org/2000/svg">
<path fill-rule="evenodd" clip-rule="evenodd" d="M11.5933 11.2177C10.8433 11.9677 9.93595 12.3427 8.87122 12.3427C7.80649 12.3427 6.89745 11.966 6.1441 11.2127C5.39075 10.4593 5.01408 9.55029 5.01408 8.48556C5.01408 7.42083 5.39075 6.51179 6.1441 5.75844C6.89745 5.00509 7.80649 4.62842 8.87122 4.62842C9.93595 4.62842 10.845 5.00509 11.5983 5.75844C12.3517 6.51179 12.7284 7.42083 12.7284 8.48556C12.7284 9.55029 12.35 10.461 11.5933 11.2177ZM18.5141 13.6284H22.0498C22.1368 13.6284 22.2122 13.6602 22.2758 13.7238C22.3394 13.7875 22.3712 13.8628 22.3712 13.9498V15.8784C22.3712 15.9655 22.3394 16.0408 22.2758 16.1044C22.2122 16.168 22.1368 16.1998 22.0498 16.1998H18.5141V19.7356C18.5141 19.8226 18.4823 19.898 18.4187 19.9616C18.355 20.0252 18.2797 20.057 18.1926 20.057H16.2641C16.177 20.057 16.1017 20.0252 16.0381 19.9616C15.9745 19.898 15.9426 19.8226 15.9426 19.7356V16.1998H12.4069C12.3199 16.1998 12.2445 16.168 12.1809 16.1044C12.1173 16.0408 12.0855 15.9655 12.0855 15.8784V13.9498C12.0855 13.8628 12.1173 13.7875 12.1809 13.7238C12.2445 13.6602 12.3199 13.6284 12.4069 13.6284H15.9426V10.0927C15.9426 10.0056 15.9745 9.93031 16.0381 9.8667C16.1017 9.80308 16.177 9.77127 16.2641 9.77127H18.1926C18.2797 9.77127 18.355 9.80308 18.4187 9.8667C18.4823 9.93031 18.5141 10.0056 18.5141 10.0927V13.6284ZM11.1212 15.8784C11.1212 16.2266 11.2485 16.528 11.5029 16.7824C11.7574 17.0369 12.0587 17.1641 12.407 17.1641H14.9784V19.5548C14.523 19.8896 13.9505 20.057 13.2607 20.057H4.48173C3.67146 20.057 3.0219 19.826 2.53306 19.3639C2.04422 18.9019 1.7998 18.2657 1.7998 17.4554C1.7998 17.1005 1.81152 16.754 1.83496 16.4158C1.8584 16.0776 1.90527 15.7127 1.97559 15.3209C2.0459 14.9292 2.13463 14.5659 2.24177 14.2311C2.34891 13.8963 2.49288 13.5698 2.67369 13.2518C2.85449 12.9337 3.06208 12.6625 3.29646 12.4381C3.53083 12.2138 3.81711 12.0347 4.15527 11.9007C4.49344 11.7668 4.86677 11.6999 5.27525 11.6999C5.40248 11.6999 5.53306 11.7568 5.66699 11.8706C6.19601 12.2791 6.71331 12.5855 7.21889 12.7897C7.72447 12.9939 8.27526 13.0961 8.87124 13.0961C9.46722 13.0961 10.018 12.9939 10.5236 12.7897C11.0292 12.5855 11.5465 12.2791 12.0755 11.8706C12.2094 11.7568 12.34 11.6999 12.4672 11.6999C13.3512 11.6999 14.0777 12.0213 14.6469 12.6641H12.407C12.0587 12.6641 11.7574 12.7914 11.5029 13.0458C11.2485 13.3003 11.1212 13.6016 11.1212 13.9499L11.1212 15.8784Z" fill="#C7325F"/>
</svg>
