<svg width="24" height="24" viewBox="0 0 24 24" fill="none" xmlns="http://www.w3.org/2000/svg">
<path d="M21.5156 16.1718C21.6141 15.7124 21.6141 15.2202 21.5156 14.7608L22.3688 14.2687C22.4672 14.2358 22.5 14.1046 22.4672 14.0062C22.2375 13.2843 21.8766 12.6608 21.3844 12.103C21.3188 12.0374 21.1875 12.0046 21.0891 12.0702L20.2359 12.5624C19.875 12.2671 19.4813 12.0046 19.0219 11.8733V10.889C19.0219 10.7577 18.9563 10.6593 18.8578 10.6593C18.1031 10.4952 17.3813 10.4952 16.6594 10.6593C16.5609 10.6593 16.4953 10.7577 16.4953 10.889V11.8733C16.0359 12.0046 15.6422 12.2671 15.2813 12.5624L14.4281 12.0702C14.3297 12.0046 14.1984 12.0374 14.1328 12.103C13.6406 12.6608 13.2469 13.2843 13.05 14.0062C13.0172 14.1046 13.05 14.2358 13.1484 14.2687L14.0016 14.7608C13.9031 15.2202 13.9031 15.7124 14.0016 16.1718L13.1484 16.664C13.05 16.6968 13.0172 16.828 13.05 16.9265C13.2469 17.6483 13.6406 18.2718 14.1328 18.8296C14.1984 18.8952 14.3297 18.928 14.4281 18.8624L15.2813 18.3702C15.6422 18.6655 16.0359 18.928 16.4953 19.0593V20.0437C16.4953 20.1749 16.5609 20.2733 16.6594 20.2733C17.4141 20.4374 18.1359 20.4374 18.8578 20.2733C18.9563 20.2733 19.0219 20.1749 19.0219 20.0437V19.0593C19.4813 18.928 19.875 18.6655 20.2359 18.3702L21.0891 18.8624C21.1875 18.928 21.3188 18.8952 21.3844 18.8296C21.8766 18.2718 22.2375 17.6483 22.4672 16.9265C22.5 16.828 22.4672 16.6968 22.3688 16.664L21.5156 16.1718ZM17.775 17.0577C16.8891 17.0577 16.1672 16.3358 16.1672 15.4499C16.1672 14.5968 16.8891 13.8749 17.775 13.8749C18.6281 13.8749 19.35 14.5968 19.35 15.4499C19.35 16.3358 18.6281 17.0577 17.775 17.0577ZM8.85 12.2999C11.1469 12.2999 13.05 10.4296 13.05 8.0999C13.05 5.80303 11.1469 3.8999 8.85 3.8999C6.52031 3.8999 4.65 5.80303 4.65 8.0999C4.65 10.4296 6.52031 12.2999 8.85 12.2999ZM15.4453 19.7483C15.3469 19.7155 15.2813 19.6499 15.2156 19.6171L14.9531 19.7812C14.7563 19.8796 14.5266 19.9452 14.2969 19.9452C13.9688 19.9452 13.6078 19.7812 13.3781 19.5187C12.7547 18.8952 12.2953 18.0749 12.0328 17.2546C11.8688 16.664 12.0984 16.0405 12.6234 15.7452L12.8859 15.5812C12.8859 15.5155 12.8859 15.4171 12.8859 15.3515L12.6234 15.1874C12.0984 14.8921 11.8688 14.2687 12.0328 13.678C12.0656 13.5796 12.1313 13.514 12.1641 13.4155C12.0328 13.3827 11.9016 13.3499 11.7703 13.3499H11.2125C10.4906 13.7108 9.70313 13.8749 8.85 13.8749C7.99688 13.8749 7.17656 13.7108 6.45469 13.3499H5.89688C3.46875 13.3499 1.5 15.3515 1.5 17.7796V19.1249C1.5 20.0108 2.18906 20.6999 3.075 20.6999H14.625C14.9531 20.6999 15.2484 20.6015 15.5109 20.4374C15.4781 20.3062 15.4453 20.1749 15.4453 20.0437V19.7483Z" fill="#C4C4C4"/>
</svg>
