<svg width="24" height="25" viewBox="0 0 24 25" fill="none" xmlns="http://www.w3.org/2000/svg">
<path d="M21.76 16.5626L15.36 5.04258C14.5 3.49258 13.31 2.64258 12 2.64258C10.69 2.64258 9.49998 3.49258 8.63998 5.04258L2.23998 16.5626C1.42998 18.0326 1.33998 19.4426 1.98998 20.5526C2.63998 21.6626 3.91998 22.2726 5.59998 22.2726H18.4C20.08 22.2726 21.36 21.6626 22.01 20.5526C22.66 19.4426 22.57 18.0226 21.76 16.5626ZM11.25 9.64258C11.25 9.23258 11.59 8.89258 12 8.89258C12.41 8.89258 12.75 9.23258 12.75 9.64258V14.6426C12.75 15.0526 12.41 15.3926 12 15.3926C11.59 15.3926 11.25 15.0526 11.25 14.6426V9.64258ZM12.71 18.3526C12.66 18.3926 12.61 18.4326 12.56 18.4726C12.5 18.5126 12.44 18.5426 12.38 18.5626C12.32 18.5926 12.26 18.6126 12.19 18.6226C12.13 18.6326 12.06 18.6426 12 18.6426C11.94 18.6426 11.87 18.6326 11.8 18.6226C11.74 18.6126 11.68 18.5926 11.62 18.5626C11.56 18.5426 11.5 18.5126 11.44 18.4726C11.39 18.4326 11.34 18.3926 11.29 18.3526C11.11 18.1626 11 17.9026 11 17.6426C11 17.3826 11.11 17.1226 11.29 16.9326C11.34 16.8926 11.39 16.8526 11.44 16.8126C11.5 16.7726 11.56 16.7426 11.62 16.7226C11.68 16.6926 11.74 16.6726 11.8 16.6626C11.93 16.6326 12.07 16.6326 12.19 16.6626C12.26 16.6726 12.32 16.6926 12.38 16.7226C12.44 16.7426 12.5 16.7726 12.56 16.8126C12.61 16.8526 12.66 16.8926 12.71 16.9326C12.89 17.1226 13 17.3826 13 17.6426C13 17.9026 12.89 18.1626 12.71 18.3526Z" fill="#C7325F"/>
</svg>
