<svg width="552" height="72" viewBox="0 0 552 72" fill="none" xmlns="http://www.w3.org/2000/svg">
<g clip-path="url(#clip0_8306_5468)">
<rect width="552" height="72" rx="4" fill="#0288D1" fill-opacity="0.1"/>
<rect x="0.5" y="0.5" width="551" height="71" rx="3.5" stroke="#0288D1" stroke-opacity="0.1"/>
<path d="M61.375 36.6797H58.4922L58.4766 35.4688H61.0938C61.526 35.4688 61.9036 35.3958 62.2266 35.25C62.5495 35.1042 62.7995 34.8958 62.9766 34.625C63.1589 34.349 63.25 34.0208 63.25 33.6406C63.25 33.224 63.1693 32.8854 63.0078 32.625C62.8516 32.3594 62.6094 32.1667 62.2812 32.0469C61.9583 31.9219 61.5469 31.8594 61.0469 31.8594H58.8281V42H57.3203V30.625H61.0469C61.6302 30.625 62.151 30.6849 62.6094 30.8047C63.0677 30.9193 63.4557 31.1016 63.7734 31.3516C64.0964 31.5964 64.3411 31.9089 64.5078 32.2891C64.6745 32.6693 64.7578 33.125 64.7578 33.6562C64.7578 34.125 64.638 34.5495 64.3984 34.9297C64.1589 35.3047 63.8255 35.612 63.3984 35.8516C62.9766 36.0911 62.4818 36.2448 61.9141 36.3125L61.375 36.6797ZM61.3047 42H57.8984L58.75 40.7734H61.3047C61.7839 40.7734 62.1901 40.6901 62.5234 40.5234C62.862 40.3568 63.1198 40.1224 63.2969 39.8203C63.474 39.513 63.5625 39.151 63.5625 38.7344C63.5625 38.3125 63.487 37.9479 63.3359 37.6406C63.1849 37.3333 62.9479 37.0964 62.625 36.9297C62.3021 36.763 61.8854 36.6797 61.375 36.6797H59.2266L59.2422 35.4688H62.1797L62.5 35.9062C63.0469 35.9531 63.5104 36.1094 63.8906 36.375C64.2708 36.6354 64.5599 36.9688 64.7578 37.375C64.9609 37.7812 65.0625 38.2292 65.0625 38.7188C65.0625 39.4271 64.9062 40.026 64.5938 40.5156C64.2865 41 63.8516 41.3698 63.2891 41.625C62.7266 41.875 62.0651 42 61.3047 42ZM69.4453 41.125L71.7969 33.5469H73.3438L69.9531 43.3047C69.875 43.513 69.7708 43.737 69.6406 43.9766C69.5156 44.2214 69.3542 44.4531 69.1562 44.6719C68.9583 44.8906 68.7188 45.0677 68.4375 45.2031C68.1615 45.3438 67.8307 45.4141 67.4453 45.4141C67.3307 45.4141 67.1849 45.3984 67.0078 45.3672C66.8307 45.3359 66.7057 45.3099 66.6328 45.2891L66.625 44.1172C66.6667 44.1224 66.7318 44.1276 66.8203 44.1328C66.9141 44.1432 66.9792 44.1484 67.0156 44.1484C67.3438 44.1484 67.6224 44.1042 67.8516 44.0156C68.0807 43.9323 68.2734 43.7891 68.4297 43.5859C68.5911 43.388 68.7292 43.1146 68.8438 42.7656L69.4453 41.125ZM67.7188 33.5469L69.9141 40.1094L70.2891 41.6328L69.25 42.1641L66.1406 33.5469H67.7188ZM82 40.9688C82.3438 40.9688 82.6615 40.8984 82.9531 40.7578C83.2448 40.6172 83.4844 40.4245 83.6719 40.1797C83.8594 39.9297 83.9661 39.6458 83.9922 39.3281H85.3672C85.3411 39.8281 85.1719 40.2943 84.8594 40.7266C84.5521 41.1536 84.1484 41.5 83.6484 41.7656C83.1484 42.026 82.599 42.1562 82 42.1562C81.3646 42.1562 80.8099 42.0443 80.3359 41.8203C79.8672 41.5964 79.4766 41.2891 79.1641 40.8984C78.8568 40.5078 78.625 40.0599 78.4688 39.5547C78.3177 39.0443 78.2422 38.5052 78.2422 37.9375V37.6094C78.2422 37.0417 78.3177 36.5052 78.4688 36C78.625 35.4896 78.8568 35.0391 79.1641 34.6484C79.4766 34.2578 79.8672 33.9505 80.3359 33.7266C80.8099 33.5026 81.3646 33.3906 82 33.3906C82.6615 33.3906 83.2396 33.526 83.7344 33.7969C84.2292 34.0625 84.6172 34.4271 84.8984 34.8906C85.1849 35.349 85.3411 35.8698 85.3672 36.4531H83.9922C83.9661 36.1042 83.8672 35.7891 83.6953 35.5078C83.5286 35.2266 83.2995 35.0026 83.0078 34.8359C82.7214 34.6641 82.3854 34.5781 82 34.5781C81.5573 34.5781 81.1849 34.6667 80.8828 34.8438C80.5859 35.0156 80.349 35.25 80.1719 35.5469C80 35.8385 79.875 36.1641 79.7969 36.5234C79.724 36.8776 79.6875 37.2396 79.6875 37.6094V37.9375C79.6875 38.3073 79.724 38.6719 79.7969 39.0312C79.8698 39.3906 79.9922 39.7161 80.1641 40.0078C80.3411 40.2995 80.5781 40.5339 80.875 40.7109C81.1771 40.8828 81.5521 40.9688 82 40.9688ZM88.5625 30V42H87.1094V30H88.5625ZM92.4531 33.5469V42H91V33.5469H92.4531ZM90.8906 31.3047C90.8906 31.0703 90.9609 30.8724 91.1016 30.7109C91.2474 30.5495 91.4609 30.4688 91.7422 30.4688C92.0182 30.4688 92.2292 30.5495 92.375 30.7109C92.526 30.8724 92.6016 31.0703 92.6016 31.3047C92.6016 31.5286 92.526 31.7214 92.375 31.8828C92.2292 32.0391 92.0182 32.1172 91.7422 32.1172C91.4609 32.1172 91.2474 32.0391 91.1016 31.8828C90.9609 31.7214 90.8906 31.5286 90.8906 31.3047ZM98.1562 40.9688C98.5 40.9688 98.8177 40.8984 99.1094 40.7578C99.401 40.6172 99.6406 40.4245 99.8281 40.1797C100.016 39.9297 100.122 39.6458 100.148 39.3281H101.523C101.497 39.8281 101.328 40.2943 101.016 40.7266C100.708 41.1536 100.305 41.5 99.8047 41.7656C99.3047 42.026 98.7552 42.1562 98.1562 42.1562C97.5208 42.1562 96.9661 42.0443 96.4922 41.8203C96.0234 41.5964 95.6328 41.2891 95.3203 40.8984C95.013 40.5078 94.7812 40.0599 94.625 39.5547C94.474 39.0443 94.3984 38.5052 94.3984 37.9375V37.6094C94.3984 37.0417 94.474 36.5052 94.625 36C94.7812 35.4896 95.013 35.0391 95.3203 34.6484C95.6328 34.2578 96.0234 33.9505 96.4922 33.7266C96.9661 33.5026 97.5208 33.3906 98.1562 33.3906C98.8177 33.3906 99.3958 33.526 99.8906 33.7969C100.385 34.0625 100.773 34.4271 101.055 34.8906C101.341 35.349 101.497 35.8698 101.523 36.4531H100.148C100.122 36.1042 100.023 35.7891 99.8516 35.5078C99.6849 35.2266 99.4557 35.0026 99.1641 34.8359C98.8776 34.6641 98.5417 34.5781 98.1562 34.5781C97.7135 34.5781 97.3411 34.6667 97.0391 34.8438C96.7422 35.0156 96.5052 35.25 96.3281 35.5469C96.1562 35.8385 96.0312 36.1641 95.9531 36.5234C95.8802 36.8776 95.8438 37.2396 95.8438 37.6094V37.9375C95.8438 38.3073 95.8802 38.6719 95.9531 39.0312C96.026 39.3906 96.1484 39.7161 96.3203 40.0078C96.4974 40.2995 96.7344 40.5339 97.0312 40.7109C97.3333 40.8828 97.7083 40.9688 98.1562 40.9688ZM104.602 30V42H103.148V30H104.602ZM109.766 33.5469L106.078 37.4922L104.016 39.6328L103.898 38.0938L105.375 36.3281L108 33.5469H109.766ZM108.445 42L105.43 37.9688L106.18 36.6797L110.148 42H108.445ZM112.828 33.5469V42H111.375V33.5469H112.828ZM111.266 31.3047C111.266 31.0703 111.336 30.8724 111.477 30.7109C111.622 30.5495 111.836 30.4688 112.117 30.4688C112.393 30.4688 112.604 30.5495 112.75 30.7109C112.901 30.8724 112.977 31.0703 112.977 31.3047C112.977 31.5286 112.901 31.7214 112.75 31.8828C112.604 32.0391 112.393 32.1172 112.117 32.1172C111.836 32.1172 111.622 32.0391 111.477 31.8828C111.336 31.7214 111.266 31.5286 111.266 31.3047ZM116.594 35.3516V42H115.148V33.5469H116.516L116.594 35.3516ZM116.25 37.4531L115.648 37.4297C115.654 36.8516 115.74 36.3177 115.906 35.8281C116.073 35.3333 116.307 34.9036 116.609 34.5391C116.911 34.1745 117.271 33.8932 117.688 33.6953C118.109 33.4922 118.576 33.3906 119.086 33.3906C119.503 33.3906 119.878 33.4479 120.211 33.5625C120.544 33.6719 120.828 33.849 121.062 34.0938C121.302 34.3385 121.484 34.6562 121.609 35.0469C121.734 35.4323 121.797 35.9036 121.797 36.4609V42H120.344V36.4453C120.344 36.0026 120.279 35.6484 120.148 35.3828C120.018 35.112 119.828 34.9167 119.578 34.7969C119.328 34.6719 119.021 34.6094 118.656 34.6094C118.297 34.6094 117.969 34.6849 117.672 34.8359C117.38 34.987 117.128 35.1953 116.914 35.4609C116.706 35.7266 116.542 36.0312 116.422 36.375C116.307 36.7135 116.25 37.0729 116.25 37.4531ZM129.469 33.5469H130.781V41.8203C130.781 42.5651 130.63 43.2005 130.328 43.7266C130.026 44.2526 129.604 44.651 129.062 44.9219C128.526 45.1979 127.906 45.3359 127.203 45.3359C126.911 45.3359 126.568 45.2891 126.172 45.1953C125.781 45.1068 125.396 44.9531 125.016 44.7344C124.641 44.5208 124.326 44.2318 124.07 43.8672L124.828 43.0078C125.182 43.4349 125.552 43.7318 125.938 43.8984C126.328 44.0651 126.714 44.1484 127.094 44.1484C127.552 44.1484 127.948 44.0625 128.281 43.8906C128.615 43.7188 128.872 43.4635 129.055 43.125C129.242 42.7917 129.336 42.3802 129.336 41.8906V35.4062L129.469 33.5469ZM123.648 37.8672V37.7031C123.648 37.0573 123.724 36.4714 123.875 35.9453C124.031 35.4141 124.253 34.9583 124.539 34.5781C124.831 34.1979 125.182 33.9062 125.594 33.7031C126.005 33.4948 126.469 33.3906 126.984 33.3906C127.516 33.3906 127.979 33.4844 128.375 33.6719C128.776 33.8542 129.115 34.1224 129.391 34.4766C129.672 34.8255 129.893 35.2474 130.055 35.7422C130.216 36.237 130.328 36.7969 130.391 37.4219V38.1406C130.333 38.7604 130.221 39.3177 130.055 39.8125C129.893 40.3073 129.672 40.7292 129.391 41.0781C129.115 41.4271 128.776 41.6953 128.375 41.8828C127.974 42.0651 127.505 42.1562 126.969 42.1562C126.464 42.1562 126.005 42.0495 125.594 41.8359C125.188 41.6224 124.839 41.3229 124.547 40.9375C124.255 40.5521 124.031 40.099 123.875 39.5781C123.724 39.0521 123.648 38.4818 123.648 37.8672ZM125.094 37.7031V37.8672C125.094 38.2891 125.135 38.6849 125.219 39.0547C125.307 39.4245 125.44 39.75 125.617 40.0312C125.799 40.3125 126.031 40.5339 126.312 40.6953C126.594 40.8516 126.93 40.9297 127.32 40.9297C127.799 40.9297 128.195 40.8281 128.508 40.625C128.82 40.4219 129.068 40.1536 129.25 39.8203C129.438 39.487 129.583 39.125 129.688 38.7344V36.8516C129.63 36.5651 129.542 36.2891 129.422 36.0234C129.307 35.7526 129.156 35.513 128.969 35.3047C128.786 35.0911 128.56 34.9219 128.289 34.7969C128.018 34.6719 127.701 34.6094 127.336 34.6094C126.94 34.6094 126.599 34.6927 126.312 34.8594C126.031 35.0208 125.799 35.2448 125.617 35.5312C125.44 35.8125 125.307 36.1406 125.219 36.5156C125.135 36.8854 125.094 37.2812 125.094 37.7031ZM136.562 37.8672V37.6875C136.562 37.0781 136.651 36.513 136.828 35.9922C137.005 35.4661 137.26 35.0104 137.594 34.625C137.927 34.2344 138.331 33.9323 138.805 33.7188C139.279 33.5 139.81 33.3906 140.398 33.3906C140.992 33.3906 141.526 33.5 142 33.7188C142.479 33.9323 142.885 34.2344 143.219 34.625C143.557 35.0104 143.815 35.4661 143.992 35.9922C144.169 36.513 144.258 37.0781 144.258 37.6875V37.8672C144.258 38.4766 144.169 39.0417 143.992 39.5625C143.815 40.0833 143.557 40.5391 143.219 40.9297C142.885 41.3151 142.482 41.6172 142.008 41.8359C141.539 42.0495 141.008 42.1562 140.414 42.1562C139.82 42.1562 139.286 42.0495 138.812 41.8359C138.339 41.6172 137.932 41.3151 137.594 40.9297C137.26 40.5391 137.005 40.0833 136.828 39.5625C136.651 39.0417 136.562 38.4766 136.562 37.8672ZM138.008 37.6875V37.8672C138.008 38.2891 138.057 38.6875 138.156 39.0625C138.255 39.4323 138.404 39.7604 138.602 40.0469C138.805 40.3333 139.057 40.5599 139.359 40.7266C139.661 40.888 140.013 40.9688 140.414 40.9688C140.81 40.9688 141.156 40.888 141.453 40.7266C141.755 40.5599 142.005 40.3333 142.203 40.0469C142.401 39.7604 142.549 39.4323 142.648 39.0625C142.753 38.6875 142.805 38.2891 142.805 37.8672V37.6875C142.805 37.2708 142.753 36.8776 142.648 36.5078C142.549 36.1328 142.398 35.8021 142.195 35.5156C141.997 35.224 141.747 34.9948 141.445 34.8281C141.148 34.6615 140.799 34.5781 140.398 34.5781C140.003 34.5781 139.654 34.6615 139.352 34.8281C139.055 34.9948 138.805 35.224 138.602 35.5156C138.404 35.8021 138.255 36.1328 138.156 36.5078C138.057 36.8776 138.008 37.2708 138.008 37.6875ZM147.516 35.3516V42H146.07V33.5469H147.438L147.516 35.3516ZM147.172 37.4531L146.57 37.4297C146.576 36.8516 146.661 36.3177 146.828 35.8281C146.995 35.3333 147.229 34.9036 147.531 34.5391C147.833 34.1745 148.193 33.8932 148.609 33.6953C149.031 33.4922 149.497 33.3906 150.008 33.3906C150.424 33.3906 150.799 33.4479 151.133 33.5625C151.466 33.6719 151.75 33.849 151.984 34.0938C152.224 34.3385 152.406 34.6562 152.531 35.0469C152.656 35.4323 152.719 35.9036 152.719 36.4609V42H151.266V36.4453C151.266 36.0026 151.201 35.6484 151.07 35.3828C150.94 35.112 150.75 34.9167 150.5 34.7969C150.25 34.6719 149.943 34.6094 149.578 34.6094C149.219 34.6094 148.891 34.6849 148.594 34.8359C148.302 34.987 148.049 35.1953 147.836 35.4609C147.628 35.7266 147.464 36.0312 147.344 36.375C147.229 36.7135 147.172 37.0729 147.172 37.4531ZM162.18 42H159.805L159.82 40.7734H162.18C162.992 40.7734 163.669 40.6042 164.211 40.2656C164.753 39.9219 165.159 39.4427 165.43 38.8281C165.706 38.2083 165.844 37.4844 165.844 36.6562V35.9609C165.844 35.3099 165.766 34.7318 165.609 34.2266C165.453 33.7161 165.224 33.2865 164.922 32.9375C164.62 32.5833 164.25 32.3151 163.812 32.1328C163.38 31.9505 162.883 31.8594 162.32 31.8594H159.758V30.625H162.32C163.065 30.625 163.745 30.75 164.359 31C164.974 31.2448 165.503 31.6016 165.945 32.0703C166.393 32.5339 166.737 33.0964 166.977 33.7578C167.216 34.4141 167.336 35.1536 167.336 35.9766V36.6562C167.336 37.4792 167.216 38.2214 166.977 38.8828C166.737 39.5391 166.391 40.099 165.938 40.5625C165.49 41.026 164.948 41.3828 164.312 41.6328C163.682 41.8776 162.971 42 162.18 42ZM160.609 30.625V42H159.102V30.625H160.609ZM172.891 42.1562C172.302 42.1562 171.768 42.0573 171.289 41.8594C170.815 41.6562 170.406 41.3724 170.062 41.0078C169.724 40.6432 169.464 40.2109 169.281 39.7109C169.099 39.2109 169.008 38.6641 169.008 38.0703V37.7422C169.008 37.0547 169.109 36.4427 169.312 35.9062C169.516 35.3646 169.792 34.9062 170.141 34.5312C170.49 34.1562 170.885 33.8724 171.328 33.6797C171.771 33.487 172.229 33.3906 172.703 33.3906C173.307 33.3906 173.828 33.4948 174.266 33.7031C174.708 33.9115 175.07 34.2031 175.352 34.5781C175.633 34.9479 175.841 35.3854 175.977 35.8906C176.112 36.3906 176.18 36.9375 176.18 37.5312V38.1797H169.867V37H174.734V36.8906C174.714 36.5156 174.635 36.151 174.5 35.7969C174.37 35.4427 174.161 35.151 173.875 34.9219C173.589 34.6927 173.198 34.5781 172.703 34.5781C172.375 34.5781 172.073 34.6484 171.797 34.7891C171.521 34.9245 171.284 35.1276 171.086 35.3984C170.888 35.6693 170.734 36 170.625 36.3906C170.516 36.7812 170.461 37.2318 170.461 37.7422V38.0703C170.461 38.4714 170.516 38.849 170.625 39.2031C170.74 39.5521 170.904 39.8594 171.117 40.125C171.336 40.3906 171.599 40.599 171.906 40.75C172.219 40.901 172.573 40.9766 172.969 40.9766C173.479 40.9766 173.911 40.8724 174.266 40.6641C174.62 40.4557 174.93 40.1771 175.195 39.8281L176.07 40.5234C175.888 40.7995 175.656 41.0625 175.375 41.3125C175.094 41.5625 174.747 41.7656 174.336 41.9219C173.93 42.0781 173.448 42.1562 172.891 42.1562ZM179.438 30V42H177.984V30H179.438ZM185.266 42.1562C184.677 42.1562 184.143 42.0573 183.664 41.8594C183.19 41.6562 182.781 41.3724 182.438 41.0078C182.099 40.6432 181.839 40.2109 181.656 39.7109C181.474 39.2109 181.383 38.6641 181.383 38.0703V37.7422C181.383 37.0547 181.484 36.4427 181.688 35.9062C181.891 35.3646 182.167 34.9062 182.516 34.5312C182.865 34.1562 183.26 33.8724 183.703 33.6797C184.146 33.487 184.604 33.3906 185.078 33.3906C185.682 33.3906 186.203 33.4948 186.641 33.7031C187.083 33.9115 187.445 34.2031 187.727 34.5781C188.008 34.9479 188.216 35.3854 188.352 35.8906C188.487 36.3906 188.555 36.9375 188.555 37.5312V38.1797H182.242V37H187.109V36.8906C187.089 36.5156 187.01 36.151 186.875 35.7969C186.745 35.4427 186.536 35.151 186.25 34.9219C185.964 34.6927 185.573 34.5781 185.078 34.5781C184.75 34.5781 184.448 34.6484 184.172 34.7891C183.896 34.9245 183.659 35.1276 183.461 35.3984C183.263 35.6693 183.109 36 183 36.3906C182.891 36.7812 182.836 37.2318 182.836 37.7422V38.0703C182.836 38.4714 182.891 38.849 183 39.2031C183.115 39.5521 183.279 39.8594 183.492 40.125C183.711 40.3906 183.974 40.599 184.281 40.75C184.594 40.901 184.948 40.9766 185.344 40.9766C185.854 40.9766 186.286 40.8724 186.641 40.6641C186.995 40.4557 187.305 40.1771 187.57 39.8281L188.445 40.5234C188.263 40.7995 188.031 41.0625 187.75 41.3125C187.469 41.5625 187.122 41.7656 186.711 41.9219C186.305 42.0781 185.823 42.1562 185.266 42.1562ZM193.781 33.5469V34.6562H189.211V33.5469H193.781ZM190.758 31.4922H192.203V39.9062C192.203 40.1927 192.247 40.4089 192.336 40.5547C192.424 40.7005 192.539 40.7969 192.68 40.8438C192.82 40.8906 192.971 40.9141 193.133 40.9141C193.253 40.9141 193.378 40.9036 193.508 40.8828C193.643 40.8568 193.745 40.8359 193.812 40.8203L193.82 42C193.706 42.0365 193.555 42.0703 193.367 42.1016C193.185 42.138 192.964 42.1562 192.703 42.1562C192.349 42.1562 192.023 42.0859 191.727 41.9453C191.43 41.8047 191.193 41.5703 191.016 41.2422C190.844 40.9089 190.758 40.4609 190.758 39.8984V31.4922ZM198.984 42.1562C198.396 42.1562 197.862 42.0573 197.383 41.8594C196.909 41.6562 196.5 41.3724 196.156 41.0078C195.818 40.6432 195.557 40.2109 195.375 39.7109C195.193 39.2109 195.102 38.6641 195.102 38.0703V37.7422C195.102 37.0547 195.203 36.4427 195.406 35.9062C195.609 35.3646 195.885 34.9062 196.234 34.5312C196.583 34.1562 196.979 33.8724 197.422 33.6797C197.865 33.487 198.323 33.3906 198.797 33.3906C199.401 33.3906 199.922 33.4948 200.359 33.7031C200.802 33.9115 201.164 34.2031 201.445 34.5781C201.727 34.9479 201.935 35.3854 202.07 35.8906C202.206 36.3906 202.273 36.9375 202.273 37.5312V38.1797H195.961V37H200.828V36.8906C200.807 36.5156 200.729 36.151 200.594 35.7969C200.464 35.4427 200.255 35.151 199.969 34.9219C199.682 34.6927 199.292 34.5781 198.797 34.5781C198.469 34.5781 198.167 34.6484 197.891 34.7891C197.615 34.9245 197.378 35.1276 197.18 35.3984C196.982 35.6693 196.828 36 196.719 36.3906C196.609 36.7812 196.555 37.2318 196.555 37.7422V38.0703C196.555 38.4714 196.609 38.849 196.719 39.2031C196.833 39.5521 196.997 39.8594 197.211 40.125C197.43 40.3906 197.693 40.599 198 40.75C198.312 40.901 198.667 40.9766 199.062 40.9766C199.573 40.9766 200.005 40.8724 200.359 40.6641C200.714 40.4557 201.023 40.1771 201.289 39.8281L202.164 40.5234C201.982 40.7995 201.75 41.0625 201.469 41.3125C201.188 41.5625 200.841 41.7656 200.43 41.9219C200.023 42.0781 199.542 42.1562 198.984 42.1562ZM205.273 40.2812V41.4453C205.273 41.9193 205.154 42.4193 204.914 42.9453C204.674 43.4766 204.339 43.9193 203.906 44.2734L203.086 43.7031C203.253 43.474 203.393 43.2396 203.508 43C203.622 42.7656 203.708 42.5208 203.766 42.2656C203.828 42.0156 203.859 41.75 203.859 41.4688V40.2812H205.273ZM217.812 30.625H219.312V38.3203C219.312 39.1745 219.122 39.8854 218.742 40.4531C218.362 41.0208 217.857 41.4479 217.227 41.7344C216.602 42.0156 215.922 42.1562 215.188 42.1562C214.417 42.1562 213.719 42.0156 213.094 41.7344C212.474 41.4479 211.982 41.0208 211.617 40.4531C211.258 39.8854 211.078 39.1745 211.078 38.3203V30.625H212.57V38.3203C212.57 38.9141 212.68 39.4036 212.898 39.7891C213.117 40.1745 213.422 40.4609 213.812 40.6484C214.208 40.8359 214.667 40.9297 215.188 40.9297C215.714 40.9297 216.172 40.8359 216.562 40.6484C216.958 40.4609 217.266 40.1745 217.484 39.7891C217.703 39.4036 217.812 38.9141 217.812 38.3203V30.625ZM226.383 39.7578C226.383 39.5495 226.336 39.3568 226.242 39.1797C226.154 38.9974 225.969 38.8333 225.688 38.6875C225.411 38.5365 224.995 38.4062 224.438 38.2969C223.969 38.1979 223.544 38.0807 223.164 37.9453C222.789 37.8099 222.469 37.6458 222.203 37.4531C221.943 37.2604 221.742 37.0339 221.602 36.7734C221.461 36.513 221.391 36.2083 221.391 35.8594C221.391 35.526 221.464 35.2109 221.609 34.9141C221.76 34.6172 221.971 34.3542 222.242 34.125C222.518 33.8958 222.849 33.7161 223.234 33.5859C223.62 33.4557 224.049 33.3906 224.523 33.3906C225.201 33.3906 225.779 33.5104 226.258 33.75C226.737 33.9896 227.104 34.3099 227.359 34.7109C227.615 35.1068 227.742 35.5469 227.742 36.0312H226.297C226.297 35.7969 226.227 35.5703 226.086 35.3516C225.951 35.1276 225.75 34.9427 225.484 34.7969C225.224 34.651 224.904 34.5781 224.523 34.5781C224.122 34.5781 223.797 34.6406 223.547 34.7656C223.302 34.8854 223.122 35.0391 223.008 35.2266C222.898 35.4141 222.844 35.612 222.844 35.8203C222.844 35.9766 222.87 36.1172 222.922 36.2422C222.979 36.362 223.078 36.474 223.219 36.5781C223.359 36.6771 223.557 36.7708 223.812 36.8594C224.068 36.9479 224.393 37.0365 224.789 37.125C225.482 37.2812 226.052 37.4688 226.5 37.6875C226.948 37.9062 227.281 38.1745 227.5 38.4922C227.719 38.8099 227.828 39.1953 227.828 39.6484C227.828 40.0182 227.75 40.3568 227.594 40.6641C227.443 40.9714 227.221 41.237 226.93 41.4609C226.643 41.6797 226.299 41.8516 225.898 41.9766C225.503 42.0964 225.057 42.1562 224.562 42.1562C223.818 42.1562 223.188 42.0234 222.672 41.7578C222.156 41.4922 221.766 41.1484 221.5 40.7266C221.234 40.3047 221.102 39.8594 221.102 39.3906H222.555C222.576 39.7865 222.69 40.1016 222.898 40.3359C223.107 40.5651 223.362 40.7292 223.664 40.8281C223.966 40.9219 224.266 40.9688 224.562 40.9688C224.958 40.9688 225.289 40.9167 225.555 40.8125C225.826 40.7083 226.031 40.5651 226.172 40.3828C226.312 40.2005 226.383 39.9922 226.383 39.7578ZM233.234 42.1562C232.646 42.1562 232.112 42.0573 231.633 41.8594C231.159 41.6562 230.75 41.3724 230.406 41.0078C230.068 40.6432 229.807 40.2109 229.625 39.7109C229.443 39.2109 229.352 38.6641 229.352 38.0703V37.7422C229.352 37.0547 229.453 36.4427 229.656 35.9062C229.859 35.3646 230.135 34.9062 230.484 34.5312C230.833 34.1562 231.229 33.8724 231.672 33.6797C232.115 33.487 232.573 33.3906 233.047 33.3906C233.651 33.3906 234.172 33.4948 234.609 33.7031C235.052 33.9115 235.414 34.2031 235.695 34.5781C235.977 34.9479 236.185 35.3854 236.32 35.8906C236.456 36.3906 236.523 36.9375 236.523 37.5312V38.1797H230.211V37H235.078V36.8906C235.057 36.5156 234.979 36.151 234.844 35.7969C234.714 35.4427 234.505 35.151 234.219 34.9219C233.932 34.6927 233.542 34.5781 233.047 34.5781C232.719 34.5781 232.417 34.6484 232.141 34.7891C231.865 34.9245 231.628 35.1276 231.43 35.3984C231.232 35.6693 231.078 36 230.969 36.3906C230.859 36.7812 230.805 37.2318 230.805 37.7422V38.0703C230.805 38.4714 230.859 38.849 230.969 39.2031C231.083 39.5521 231.247 39.8594 231.461 40.125C231.68 40.3906 231.943 40.599 232.25 40.75C232.562 40.901 232.917 40.9766 233.312 40.9766C233.823 40.9766 234.255 40.8724 234.609 40.6641C234.964 40.4557 235.273 40.1771 235.539 39.8281L236.414 40.5234C236.232 40.7995 236 41.0625 235.719 41.3125C235.438 41.5625 235.091 41.7656 234.68 41.9219C234.273 42.0781 233.792 42.1562 233.234 42.1562ZM239.656 34.875V42H238.211V33.5469H239.617L239.656 34.875ZM242.297 33.5L242.289 34.8438C242.169 34.8177 242.055 34.8021 241.945 34.7969C241.841 34.7865 241.721 34.7812 241.586 34.7812C241.253 34.7812 240.958 34.8333 240.703 34.9375C240.448 35.0417 240.232 35.1875 240.055 35.375C239.878 35.5625 239.737 35.7865 239.633 36.0469C239.534 36.3021 239.469 36.5833 239.438 36.8906L239.031 37.125C239.031 36.6146 239.081 36.1354 239.18 35.6875C239.284 35.2396 239.443 34.8438 239.656 34.5C239.87 34.151 240.141 33.8802 240.469 33.6875C240.802 33.4896 241.198 33.3906 241.656 33.3906C241.76 33.3906 241.88 33.4036 242.016 33.4297C242.151 33.4505 242.245 33.474 242.297 33.5ZM249.742 40.5L251.914 33.5469H252.867L252.68 34.9297L250.469 42H249.539L249.742 40.5ZM248.281 33.5469L250.133 40.5781L250.266 42H249.289L246.836 33.5469H248.281ZM254.945 40.5234L256.711 33.5469H258.148L255.695 42H254.727L254.945 40.5234ZM253.078 33.5469L255.203 40.3828L255.445 42H254.523L252.25 34.9141L252.062 33.5469H253.078ZM261.203 33.5469V42H259.75V33.5469H261.203ZM259.641 31.3047C259.641 31.0703 259.711 30.8724 259.852 30.7109C259.997 30.5495 260.211 30.4688 260.492 30.4688C260.768 30.4688 260.979 30.5495 261.125 30.7109C261.276 30.8724 261.352 31.0703 261.352 31.3047C261.352 31.5286 261.276 31.7214 261.125 31.8828C260.979 32.0391 260.768 32.1172 260.492 32.1172C260.211 32.1172 259.997 32.0391 259.852 31.8828C259.711 31.7214 259.641 31.5286 259.641 31.3047ZM265.094 30V42H263.641V30H265.094ZM268.984 30V42H267.531V30H268.984ZM276.844 30V42H275.391V30H276.844ZM278.781 37.8672V37.6875C278.781 37.0781 278.87 36.513 279.047 35.9922C279.224 35.4661 279.479 35.0104 279.812 34.625C280.146 34.2344 280.549 33.9323 281.023 33.7188C281.497 33.5 282.029 33.3906 282.617 33.3906C283.211 33.3906 283.745 33.5 284.219 33.7188C284.698 33.9323 285.104 34.2344 285.438 34.625C285.776 35.0104 286.034 35.4661 286.211 35.9922C286.388 36.513 286.477 37.0781 286.477 37.6875V37.8672C286.477 38.4766 286.388 39.0417 286.211 39.5625C286.034 40.0833 285.776 40.5391 285.438 40.9297C285.104 41.3151 284.701 41.6172 284.227 41.8359C283.758 42.0495 283.227 42.1562 282.633 42.1562C282.039 42.1562 281.505 42.0495 281.031 41.8359C280.557 41.6172 280.151 41.3151 279.812 40.9297C279.479 40.5391 279.224 40.0833 279.047 39.5625C278.87 39.0417 278.781 38.4766 278.781 37.8672ZM280.227 37.6875V37.8672C280.227 38.2891 280.276 38.6875 280.375 39.0625C280.474 39.4323 280.622 39.7604 280.82 40.0469C281.023 40.3333 281.276 40.5599 281.578 40.7266C281.88 40.888 282.232 40.9688 282.633 40.9688C283.029 40.9688 283.375 40.888 283.672 40.7266C283.974 40.5599 284.224 40.3333 284.422 40.0469C284.62 39.7604 284.768 39.4323 284.867 39.0625C284.971 38.6875 285.023 38.2891 285.023 37.8672V37.6875C285.023 37.2708 284.971 36.8776 284.867 36.5078C284.768 36.1328 284.617 35.8021 284.414 35.5156C284.216 35.224 283.966 34.9948 283.664 34.8281C283.367 34.6615 283.018 34.5781 282.617 34.5781C282.221 34.5781 281.872 34.6615 281.57 34.8281C281.273 34.9948 281.023 35.224 280.82 35.5156C280.622 35.8021 280.474 36.1328 280.375 36.5078C280.276 36.8776 280.227 37.2708 280.227 37.6875ZM293.211 39.7578C293.211 39.5495 293.164 39.3568 293.07 39.1797C292.982 38.9974 292.797 38.8333 292.516 38.6875C292.24 38.5365 291.823 38.4062 291.266 38.2969C290.797 38.1979 290.372 38.0807 289.992 37.9453C289.617 37.8099 289.297 37.6458 289.031 37.4531C288.771 37.2604 288.57 37.0339 288.43 36.7734C288.289 36.513 288.219 36.2083 288.219 35.8594C288.219 35.526 288.292 35.2109 288.438 34.9141C288.589 34.6172 288.799 34.3542 289.07 34.125C289.346 33.8958 289.677 33.7161 290.062 33.5859C290.448 33.4557 290.878 33.3906 291.352 33.3906C292.029 33.3906 292.607 33.5104 293.086 33.75C293.565 33.9896 293.932 34.3099 294.188 34.7109C294.443 35.1068 294.57 35.5469 294.57 36.0312H293.125C293.125 35.7969 293.055 35.5703 292.914 35.3516C292.779 35.1276 292.578 34.9427 292.312 34.7969C292.052 34.651 291.732 34.5781 291.352 34.5781C290.951 34.5781 290.625 34.6406 290.375 34.7656C290.13 34.8854 289.951 35.0391 289.836 35.2266C289.727 35.4141 289.672 35.612 289.672 35.8203C289.672 35.9766 289.698 36.1172 289.75 36.2422C289.807 36.362 289.906 36.474 290.047 36.5781C290.188 36.6771 290.385 36.7708 290.641 36.8594C290.896 36.9479 291.221 37.0365 291.617 37.125C292.31 37.2812 292.88 37.4688 293.328 37.6875C293.776 37.9062 294.109 38.1745 294.328 38.4922C294.547 38.8099 294.656 39.1953 294.656 39.6484C294.656 40.0182 294.578 40.3568 294.422 40.6641C294.271 40.9714 294.049 41.237 293.758 41.4609C293.471 41.6797 293.128 41.8516 292.727 41.9766C292.331 42.0964 291.885 42.1562 291.391 42.1562C290.646 42.1562 290.016 42.0234 289.5 41.7578C288.984 41.4922 288.594 41.1484 288.328 40.7266C288.062 40.3047 287.93 39.8594 287.93 39.3906H289.383C289.404 39.7865 289.518 40.1016 289.727 40.3359C289.935 40.5651 290.19 40.7292 290.492 40.8281C290.794 40.9219 291.094 40.9688 291.391 40.9688C291.786 40.9688 292.117 40.9167 292.383 40.8125C292.654 40.7083 292.859 40.5651 293 40.3828C293.141 40.2005 293.211 39.9922 293.211 39.7578ZM300.062 42.1562C299.474 42.1562 298.94 42.0573 298.461 41.8594C297.987 41.6562 297.578 41.3724 297.234 41.0078C296.896 40.6432 296.635 40.2109 296.453 39.7109C296.271 39.2109 296.18 38.6641 296.18 38.0703V37.7422C296.18 37.0547 296.281 36.4427 296.484 35.9062C296.688 35.3646 296.964 34.9062 297.312 34.5312C297.661 34.1562 298.057 33.8724 298.5 33.6797C298.943 33.487 299.401 33.3906 299.875 33.3906C300.479 33.3906 301 33.4948 301.438 33.7031C301.88 33.9115 302.242 34.2031 302.523 34.5781C302.805 34.9479 303.013 35.3854 303.148 35.8906C303.284 36.3906 303.352 36.9375 303.352 37.5312V38.1797H297.039V37H301.906V36.8906C301.885 36.5156 301.807 36.151 301.672 35.7969C301.542 35.4427 301.333 35.151 301.047 34.9219C300.76 34.6927 300.37 34.5781 299.875 34.5781C299.547 34.5781 299.245 34.6484 298.969 34.7891C298.693 34.9245 298.456 35.1276 298.258 35.3984C298.06 35.6693 297.906 36 297.797 36.3906C297.688 36.7812 297.633 37.2318 297.633 37.7422V38.0703C297.633 38.4714 297.688 38.849 297.797 39.2031C297.911 39.5521 298.076 39.8594 298.289 40.125C298.508 40.3906 298.771 40.599 299.078 40.75C299.391 40.901 299.745 40.9766 300.141 40.9766C300.651 40.9766 301.083 40.8724 301.438 40.6641C301.792 40.4557 302.102 40.1771 302.367 39.8281L303.242 40.5234C303.06 40.7995 302.828 41.0625 302.547 41.3125C302.266 41.5625 301.919 41.7656 301.508 41.9219C301.102 42.0781 300.62 42.1562 300.062 42.1562ZM313.992 40.5547V36.2031C313.992 35.8698 313.924 35.5807 313.789 35.3359C313.659 35.0859 313.461 34.8932 313.195 34.7578C312.93 34.6224 312.602 34.5547 312.211 34.5547C311.846 34.5547 311.526 34.6172 311.25 34.7422C310.979 34.8672 310.766 35.0312 310.609 35.2344C310.458 35.4375 310.383 35.6562 310.383 35.8906H308.938C308.938 35.5885 309.016 35.2891 309.172 34.9922C309.328 34.6953 309.552 34.4271 309.844 34.1875C310.141 33.9427 310.495 33.75 310.906 33.6094C311.323 33.4635 311.786 33.3906 312.297 33.3906C312.911 33.3906 313.453 33.4948 313.922 33.7031C314.396 33.9115 314.766 34.2266 315.031 34.6484C315.302 35.0651 315.438 35.5885 315.438 36.2188V40.1562C315.438 40.4375 315.461 40.737 315.508 41.0547C315.56 41.3724 315.635 41.6458 315.734 41.875V42H314.227C314.154 41.8333 314.096 41.612 314.055 41.3359C314.013 41.0547 313.992 40.7943 313.992 40.5547ZM314.242 36.875L314.258 37.8906H312.797C312.385 37.8906 312.018 37.9245 311.695 37.9922C311.372 38.0547 311.102 38.151 310.883 38.2812C310.664 38.4115 310.497 38.5755 310.383 38.7734C310.268 38.9661 310.211 39.1927 310.211 39.4531C310.211 39.7188 310.271 39.9609 310.391 40.1797C310.51 40.3984 310.69 40.5729 310.93 40.7031C311.174 40.8281 311.474 40.8906 311.828 40.8906C312.271 40.8906 312.661 40.7969 313 40.6094C313.339 40.4219 313.607 40.1927 313.805 39.9219C314.008 39.651 314.117 39.388 314.133 39.1328L314.75 39.8281C314.714 40.0469 314.615 40.2891 314.453 40.5547C314.292 40.8203 314.076 41.0755 313.805 41.3203C313.539 41.5599 313.221 41.7604 312.852 41.9219C312.487 42.0781 312.076 42.1562 311.617 42.1562C311.044 42.1562 310.542 42.0443 310.109 41.8203C309.682 41.5964 309.349 41.2969 309.109 40.9219C308.875 40.5417 308.758 40.1172 308.758 39.6484C308.758 39.1953 308.846 38.7969 309.023 38.4531C309.201 38.1042 309.456 37.8151 309.789 37.5859C310.122 37.3516 310.523 37.1745 310.992 37.0547C311.461 36.9349 311.984 36.875 312.562 36.875H314.242ZM321.094 40.9688C321.438 40.9688 321.755 40.8984 322.047 40.7578C322.339 40.6172 322.578 40.4245 322.766 40.1797C322.953 39.9297 323.06 39.6458 323.086 39.3281H324.461C324.435 39.8281 324.266 40.2943 323.953 40.7266C323.646 41.1536 323.242 41.5 322.742 41.7656C322.242 42.026 321.693 42.1562 321.094 42.1562C320.458 42.1562 319.904 42.0443 319.43 41.8203C318.961 41.5964 318.57 41.2891 318.258 40.8984C317.951 40.5078 317.719 40.0599 317.562 39.5547C317.411 39.0443 317.336 38.5052 317.336 37.9375V37.6094C317.336 37.0417 317.411 36.5052 317.562 36C317.719 35.4896 317.951 35.0391 318.258 34.6484C318.57 34.2578 318.961 33.9505 319.43 33.7266C319.904 33.5026 320.458 33.3906 321.094 33.3906C321.755 33.3906 322.333 33.526 322.828 33.7969C323.323 34.0625 323.711 34.4271 323.992 34.8906C324.279 35.349 324.435 35.8698 324.461 36.4531H323.086C323.06 36.1042 322.961 35.7891 322.789 35.5078C322.622 35.2266 322.393 35.0026 322.102 34.8359C321.815 34.6641 321.479 34.5781 321.094 34.5781C320.651 34.5781 320.279 34.6667 319.977 34.8438C319.68 35.0156 319.443 35.25 319.266 35.5469C319.094 35.8385 318.969 36.1641 318.891 36.5234C318.818 36.8776 318.781 37.2396 318.781 37.6094V37.9375C318.781 38.3073 318.818 38.6719 318.891 39.0312C318.964 39.3906 319.086 39.7161 319.258 40.0078C319.435 40.2995 319.672 40.5339 319.969 40.7109C320.271 40.8828 320.646 40.9688 321.094 40.9688ZM329.469 40.9688C329.812 40.9688 330.13 40.8984 330.422 40.7578C330.714 40.6172 330.953 40.4245 331.141 40.1797C331.328 39.9297 331.435 39.6458 331.461 39.3281H332.836C332.81 39.8281 332.641 40.2943 332.328 40.7266C332.021 41.1536 331.617 41.5 331.117 41.7656C330.617 42.026 330.068 42.1562 329.469 42.1562C328.833 42.1562 328.279 42.0443 327.805 41.8203C327.336 41.5964 326.945 41.2891 326.633 40.8984C326.326 40.5078 326.094 40.0599 325.938 39.5547C325.786 39.0443 325.711 38.5052 325.711 37.9375V37.6094C325.711 37.0417 325.786 36.5052 325.938 36C326.094 35.4896 326.326 35.0391 326.633 34.6484C326.945 34.2578 327.336 33.9505 327.805 33.7266C328.279 33.5026 328.833 33.3906 329.469 33.3906C330.13 33.3906 330.708 33.526 331.203 33.7969C331.698 34.0625 332.086 34.4271 332.367 34.8906C332.654 35.349 332.81 35.8698 332.836 36.4531H331.461C331.435 36.1042 331.336 35.7891 331.164 35.5078C330.997 35.2266 330.768 35.0026 330.477 34.8359C330.19 34.6641 329.854 34.5781 329.469 34.5781C329.026 34.5781 328.654 34.6667 328.352 34.8438C328.055 35.0156 327.818 35.25 327.641 35.5469C327.469 35.8385 327.344 36.1641 327.266 36.5234C327.193 36.8776 327.156 37.2396 327.156 37.6094V37.9375C327.156 38.3073 327.193 38.6719 327.266 39.0312C327.339 39.3906 327.461 39.7161 327.633 40.0078C327.81 40.2995 328.047 40.5339 328.344 40.7109C328.646 40.8828 329.021 40.9688 329.469 40.9688ZM337.969 42.1562C337.38 42.1562 336.846 42.0573 336.367 41.8594C335.893 41.6562 335.484 41.3724 335.141 41.0078C334.802 40.6432 334.542 40.2109 334.359 39.7109C334.177 39.2109 334.086 38.6641 334.086 38.0703V37.7422C334.086 37.0547 334.188 36.4427 334.391 35.9062C334.594 35.3646 334.87 34.9062 335.219 34.5312C335.568 34.1562 335.964 33.8724 336.406 33.6797C336.849 33.487 337.307 33.3906 337.781 33.3906C338.385 33.3906 338.906 33.4948 339.344 33.7031C339.786 33.9115 340.148 34.2031 340.43 34.5781C340.711 34.9479 340.919 35.3854 341.055 35.8906C341.19 36.3906 341.258 36.9375 341.258 37.5312V38.1797H334.945V37H339.812V36.8906C339.792 36.5156 339.714 36.151 339.578 35.7969C339.448 35.4427 339.24 35.151 338.953 34.9219C338.667 34.6927 338.276 34.5781 337.781 34.5781C337.453 34.5781 337.151 34.6484 336.875 34.7891C336.599 34.9245 336.362 35.1276 336.164 35.3984C335.966 35.6693 335.812 36 335.703 36.3906C335.594 36.7812 335.539 37.2318 335.539 37.7422V38.0703C335.539 38.4714 335.594 38.849 335.703 39.2031C335.818 39.5521 335.982 39.8594 336.195 40.125C336.414 40.3906 336.677 40.599 336.984 40.75C337.297 40.901 337.651 40.9766 338.047 40.9766C338.557 40.9766 338.99 40.8724 339.344 40.6641C339.698 40.4557 340.008 40.1771 340.273 39.8281L341.148 40.5234C340.966 40.7995 340.734 41.0625 340.453 41.3125C340.172 41.5625 339.826 41.7656 339.414 41.9219C339.008 42.0781 338.526 42.1562 337.969 42.1562ZM347.867 39.7578C347.867 39.5495 347.82 39.3568 347.727 39.1797C347.638 38.9974 347.453 38.8333 347.172 38.6875C346.896 38.5365 346.479 38.4062 345.922 38.2969C345.453 38.1979 345.029 38.0807 344.648 37.9453C344.273 37.8099 343.953 37.6458 343.688 37.4531C343.427 37.2604 343.227 37.0339 343.086 36.7734C342.945 36.513 342.875 36.2083 342.875 35.8594C342.875 35.526 342.948 35.2109 343.094 34.9141C343.245 34.6172 343.456 34.3542 343.727 34.125C344.003 33.8958 344.333 33.7161 344.719 33.5859C345.104 33.4557 345.534 33.3906 346.008 33.3906C346.685 33.3906 347.263 33.5104 347.742 33.75C348.221 33.9896 348.589 34.3099 348.844 34.7109C349.099 35.1068 349.227 35.5469 349.227 36.0312H347.781C347.781 35.7969 347.711 35.5703 347.57 35.3516C347.435 35.1276 347.234 34.9427 346.969 34.7969C346.708 34.651 346.388 34.5781 346.008 34.5781C345.607 34.5781 345.281 34.6406 345.031 34.7656C344.786 34.8854 344.607 35.0391 344.492 35.2266C344.383 35.4141 344.328 35.612 344.328 35.8203C344.328 35.9766 344.354 36.1172 344.406 36.2422C344.464 36.362 344.562 36.474 344.703 36.5781C344.844 36.6771 345.042 36.7708 345.297 36.8594C345.552 36.9479 345.878 37.0365 346.273 37.125C346.966 37.2812 347.536 37.4688 347.984 37.6875C348.432 37.9062 348.766 38.1745 348.984 38.4922C349.203 38.8099 349.312 39.1953 349.312 39.6484C349.312 40.0182 349.234 40.3568 349.078 40.6641C348.927 40.9714 348.706 41.237 348.414 41.4609C348.128 41.6797 347.784 41.8516 347.383 41.9766C346.987 42.0964 346.542 42.1562 346.047 42.1562C345.302 42.1562 344.672 42.0234 344.156 41.7578C343.641 41.4922 343.25 41.1484 342.984 40.7266C342.719 40.3047 342.586 39.8594 342.586 39.3906H344.039C344.06 39.7865 344.174 40.1016 344.383 40.3359C344.591 40.5651 344.846 40.7292 345.148 40.8281C345.451 40.9219 345.75 40.9688 346.047 40.9688C346.443 40.9688 346.773 40.9167 347.039 40.8125C347.31 40.7083 347.516 40.5651 347.656 40.3828C347.797 40.2005 347.867 39.9922 347.867 39.7578ZM356.133 39.7578C356.133 39.5495 356.086 39.3568 355.992 39.1797C355.904 38.9974 355.719 38.8333 355.438 38.6875C355.161 38.5365 354.745 38.4062 354.188 38.2969C353.719 38.1979 353.294 38.0807 352.914 37.9453C352.539 37.8099 352.219 37.6458 351.953 37.4531C351.693 37.2604 351.492 37.0339 351.352 36.7734C351.211 36.513 351.141 36.2083 351.141 35.8594C351.141 35.526 351.214 35.2109 351.359 34.9141C351.51 34.6172 351.721 34.3542 351.992 34.125C352.268 33.8958 352.599 33.7161 352.984 33.5859C353.37 33.4557 353.799 33.3906 354.273 33.3906C354.951 33.3906 355.529 33.5104 356.008 33.75C356.487 33.9896 356.854 34.3099 357.109 34.7109C357.365 35.1068 357.492 35.5469 357.492 36.0312H356.047C356.047 35.7969 355.977 35.5703 355.836 35.3516C355.701 35.1276 355.5 34.9427 355.234 34.7969C354.974 34.651 354.654 34.5781 354.273 34.5781C353.872 34.5781 353.547 34.6406 353.297 34.7656C353.052 34.8854 352.872 35.0391 352.758 35.2266C352.648 35.4141 352.594 35.612 352.594 35.8203C352.594 35.9766 352.62 36.1172 352.672 36.2422C352.729 36.362 352.828 36.474 352.969 36.5781C353.109 36.6771 353.307 36.7708 353.562 36.8594C353.818 36.9479 354.143 37.0365 354.539 37.125C355.232 37.2812 355.802 37.4688 356.25 37.6875C356.698 37.9062 357.031 38.1745 357.25 38.4922C357.469 38.8099 357.578 39.1953 357.578 39.6484C357.578 40.0182 357.5 40.3568 357.344 40.6641C357.193 40.9714 356.971 41.237 356.68 41.4609C356.393 41.6797 356.049 41.8516 355.648 41.9766C355.253 42.0964 354.807 42.1562 354.312 42.1562C353.568 42.1562 352.938 42.0234 352.422 41.7578C351.906 41.4922 351.516 41.1484 351.25 40.7266C350.984 40.3047 350.852 39.8594 350.852 39.3906H352.305C352.326 39.7865 352.44 40.1016 352.648 40.3359C352.857 40.5651 353.112 40.7292 353.414 40.8281C353.716 40.9219 354.016 40.9688 354.312 40.9688C354.708 40.9688 355.039 40.9167 355.305 40.8125C355.576 40.7083 355.781 40.5651 355.922 40.3828C356.062 40.2005 356.133 39.9922 356.133 39.7578ZM366.984 33.5469V34.6562H362.414V33.5469H366.984ZM363.961 31.4922H365.406V39.9062C365.406 40.1927 365.451 40.4089 365.539 40.5547C365.628 40.7005 365.742 40.7969 365.883 40.8438C366.023 40.8906 366.174 40.9141 366.336 40.9141C366.456 40.9141 366.581 40.9036 366.711 40.8828C366.846 40.8568 366.948 40.8359 367.016 40.8203L367.023 42C366.909 42.0365 366.758 42.0703 366.57 42.1016C366.388 42.138 366.167 42.1562 365.906 42.1562C365.552 42.1562 365.227 42.0859 364.93 41.9453C364.633 41.8047 364.396 41.5703 364.219 41.2422C364.047 40.9089 363.961 40.4609 363.961 39.8984V31.4922ZM368.141 37.8672V37.6875C368.141 37.0781 368.229 36.513 368.406 35.9922C368.583 35.4661 368.839 35.0104 369.172 34.625C369.505 34.2344 369.909 33.9323 370.383 33.7188C370.857 33.5 371.388 33.3906 371.977 33.3906C372.57 33.3906 373.104 33.5 373.578 33.7188C374.057 33.9323 374.464 34.2344 374.797 34.625C375.135 35.0104 375.393 35.4661 375.57 35.9922C375.747 36.513 375.836 37.0781 375.836 37.6875V37.8672C375.836 38.4766 375.747 39.0417 375.57 39.5625C375.393 40.0833 375.135 40.5391 374.797 40.9297C374.464 41.3151 374.06 41.6172 373.586 41.8359C373.117 42.0495 372.586 42.1562 371.992 42.1562C371.398 42.1562 370.865 42.0495 370.391 41.8359C369.917 41.6172 369.51 41.3151 369.172 40.9297C368.839 40.5391 368.583 40.0833 368.406 39.5625C368.229 39.0417 368.141 38.4766 368.141 37.8672ZM369.586 37.6875V37.8672C369.586 38.2891 369.635 38.6875 369.734 39.0625C369.833 39.4323 369.982 39.7604 370.18 40.0469C370.383 40.3333 370.635 40.5599 370.938 40.7266C371.24 40.888 371.591 40.9688 371.992 40.9688C372.388 40.9688 372.734 40.888 373.031 40.7266C373.333 40.5599 373.583 40.3333 373.781 40.0469C373.979 39.7604 374.128 39.4323 374.227 39.0625C374.331 38.6875 374.383 38.2891 374.383 37.8672V37.6875C374.383 37.2708 374.331 36.8776 374.227 36.5078C374.128 36.1328 373.977 35.8021 373.773 35.5156C373.576 35.224 373.326 34.9948 373.023 34.8281C372.727 34.6615 372.378 34.5781 371.977 34.5781C371.581 34.5781 371.232 34.6615 370.93 34.8281C370.633 34.9948 370.383 35.224 370.18 35.5156C369.982 35.8021 369.833 36.1328 369.734 36.5078C369.635 36.8776 369.586 37.2708 369.586 37.6875ZM385.156 33.5469V34.6562H380.586V33.5469H385.156ZM382.133 31.4922H383.578V39.9062C383.578 40.1927 383.622 40.4089 383.711 40.5547C383.799 40.7005 383.914 40.7969 384.055 40.8438C384.195 40.8906 384.346 40.9141 384.508 40.9141C384.628 40.9141 384.753 40.9036 384.883 40.8828C385.018 40.8568 385.12 40.8359 385.188 40.8203L385.195 42C385.081 42.0365 384.93 42.0703 384.742 42.1016C384.56 42.138 384.339 42.1562 384.078 42.1562C383.724 42.1562 383.398 42.0859 383.102 41.9453C382.805 41.8047 382.568 41.5703 382.391 41.2422C382.219 40.9089 382.133 40.4609 382.133 39.8984V31.4922ZM388.297 30V42H386.852V30H388.297ZM387.953 37.4531L387.352 37.4297C387.357 36.8516 387.443 36.3177 387.609 35.8281C387.776 35.3333 388.01 34.9036 388.312 34.5391C388.615 34.1745 388.974 33.8932 389.391 33.6953C389.812 33.4922 390.279 33.3906 390.789 33.3906C391.206 33.3906 391.581 33.4479 391.914 33.5625C392.247 33.6719 392.531 33.849 392.766 34.0938C393.005 34.3385 393.188 34.6562 393.312 35.0469C393.438 35.4323 393.5 35.9036 393.5 36.4609V42H392.047V36.4453C392.047 36.0026 391.982 35.6484 391.852 35.3828C391.721 35.112 391.531 34.9167 391.281 34.7969C391.031 34.6719 390.724 34.6094 390.359 34.6094C390 34.6094 389.672 34.6849 389.375 34.8359C389.083 34.987 388.831 35.1953 388.617 35.4609C388.409 35.7266 388.245 36.0312 388.125 36.375C388.01 36.7135 387.953 37.0729 387.953 37.4531ZM399.172 42.1562C398.583 42.1562 398.049 42.0573 397.57 41.8594C397.096 41.6562 396.688 41.3724 396.344 41.0078C396.005 40.6432 395.745 40.2109 395.562 39.7109C395.38 39.2109 395.289 38.6641 395.289 38.0703V37.7422C395.289 37.0547 395.391 36.4427 395.594 35.9062C395.797 35.3646 396.073 34.9062 396.422 34.5312C396.771 34.1562 397.167 33.8724 397.609 33.6797C398.052 33.487 398.51 33.3906 398.984 33.3906C399.589 33.3906 400.109 33.4948 400.547 33.7031C400.99 33.9115 401.352 34.2031 401.633 34.5781C401.914 34.9479 402.122 35.3854 402.258 35.8906C402.393 36.3906 402.461 36.9375 402.461 37.5312V38.1797H396.148V37H401.016V36.8906C400.995 36.5156 400.917 36.151 400.781 35.7969C400.651 35.4427 400.443 35.151 400.156 34.9219C399.87 34.6927 399.479 34.5781 398.984 34.5781C398.656 34.5781 398.354 34.6484 398.078 34.7891C397.802 34.9245 397.565 35.1276 397.367 35.3984C397.169 35.6693 397.016 36 396.906 36.3906C396.797 36.7812 396.742 37.2318 396.742 37.7422V38.0703C396.742 38.4714 396.797 38.849 396.906 39.2031C397.021 39.5521 397.185 39.8594 397.398 40.125C397.617 40.3906 397.88 40.599 398.188 40.75C398.5 40.901 398.854 40.9766 399.25 40.9766C399.76 40.9766 400.193 40.8724 400.547 40.6641C400.901 40.4557 401.211 40.1771 401.477 39.8281L402.352 40.5234C402.169 40.7995 401.938 41.0625 401.656 41.3125C401.375 41.5625 401.029 41.7656 400.617 41.9219C400.211 42.0781 399.729 42.1562 399.172 42.1562ZM405.719 33.5469V42H404.266V33.5469H405.719ZM404.156 31.3047C404.156 31.0703 404.227 30.8724 404.367 30.7109C404.513 30.5495 404.727 30.4688 405.008 30.4688C405.284 30.4688 405.495 30.5495 405.641 30.7109C405.792 30.8724 405.867 31.0703 405.867 31.3047C405.867 31.5286 405.792 31.7214 405.641 31.8828C405.495 32.0391 405.284 32.1172 405.008 32.1172C404.727 32.1172 404.513 32.0391 404.367 31.8828C404.227 31.7214 404.156 31.5286 404.156 31.3047ZM409.484 34.875V42H408.039V33.5469H409.445L409.484 34.875ZM412.125 33.5L412.117 34.8438C411.997 34.8177 411.883 34.8021 411.773 34.7969C411.669 34.7865 411.549 34.7812 411.414 34.7812C411.081 34.7812 410.786 34.8333 410.531 34.9375C410.276 35.0417 410.06 35.1875 409.883 35.375C409.706 35.5625 409.565 35.7865 409.461 36.0469C409.362 36.3021 409.297 36.5833 409.266 36.8906L408.859 37.125C408.859 36.6146 408.909 36.1354 409.008 35.6875C409.112 35.2396 409.271 34.8438 409.484 34.5C409.698 34.151 409.969 33.8802 410.297 33.6875C410.63 33.4896 411.026 33.3906 411.484 33.3906C411.589 33.3906 411.708 33.4036 411.844 33.4297C411.979 33.4505 412.073 33.474 412.125 33.5ZM422.414 40.5547V36.2031C422.414 35.8698 422.346 35.5807 422.211 35.3359C422.081 35.0859 421.883 34.8932 421.617 34.7578C421.352 34.6224 421.023 34.5547 420.633 34.5547C420.268 34.5547 419.948 34.6172 419.672 34.7422C419.401 34.8672 419.188 35.0312 419.031 35.2344C418.88 35.4375 418.805 35.6562 418.805 35.8906H417.359C417.359 35.5885 417.438 35.2891 417.594 34.9922C417.75 34.6953 417.974 34.4271 418.266 34.1875C418.562 33.9427 418.917 33.75 419.328 33.6094C419.745 33.4635 420.208 33.3906 420.719 33.3906C421.333 33.3906 421.875 33.4948 422.344 33.7031C422.818 33.9115 423.188 34.2266 423.453 34.6484C423.724 35.0651 423.859 35.5885 423.859 36.2188V40.1562C423.859 40.4375 423.883 40.737 423.93 41.0547C423.982 41.3724 424.057 41.6458 424.156 41.875V42H422.648C422.576 41.8333 422.518 41.612 422.477 41.3359C422.435 41.0547 422.414 40.7943 422.414 40.5547ZM422.664 36.875L422.68 37.8906H421.219C420.807 37.8906 420.44 37.9245 420.117 37.9922C419.794 38.0547 419.523 38.151 419.305 38.2812C419.086 38.4115 418.919 38.5755 418.805 38.7734C418.69 38.9661 418.633 39.1927 418.633 39.4531C418.633 39.7188 418.693 39.9609 418.812 40.1797C418.932 40.3984 419.112 40.5729 419.352 40.7031C419.596 40.8281 419.896 40.8906 420.25 40.8906C420.693 40.8906 421.083 40.7969 421.422 40.6094C421.76 40.4219 422.029 40.1927 422.227 39.9219C422.43 39.651 422.539 39.388 422.555 39.1328L423.172 39.8281C423.135 40.0469 423.036 40.2891 422.875 40.5547C422.714 40.8203 422.497 41.0755 422.227 41.3203C421.961 41.5599 421.643 41.7604 421.273 41.9219C420.909 42.0781 420.497 42.1562 420.039 42.1562C419.466 42.1562 418.964 42.0443 418.531 41.8203C418.104 41.5964 417.771 41.2969 417.531 40.9219C417.297 40.5417 417.18 40.1172 417.18 39.6484C417.18 39.1953 417.268 38.7969 417.445 38.4531C417.622 38.1042 417.878 37.8151 418.211 37.5859C418.544 37.3516 418.945 37.1745 419.414 37.0547C419.883 36.9349 420.406 36.875 420.984 36.875H422.664ZM429.516 40.9688C429.859 40.9688 430.177 40.8984 430.469 40.7578C430.76 40.6172 431 40.4245 431.188 40.1797C431.375 39.9297 431.482 39.6458 431.508 39.3281H432.883C432.857 39.8281 432.688 40.2943 432.375 40.7266C432.068 41.1536 431.664 41.5 431.164 41.7656C430.664 42.026 430.115 42.1562 429.516 42.1562C428.88 42.1562 428.326 42.0443 427.852 41.8203C427.383 41.5964 426.992 41.2891 426.68 40.8984C426.372 40.5078 426.141 40.0599 425.984 39.5547C425.833 39.0443 425.758 38.5052 425.758 37.9375V37.6094C425.758 37.0417 425.833 36.5052 425.984 36C426.141 35.4896 426.372 35.0391 426.68 34.6484C426.992 34.2578 427.383 33.9505 427.852 33.7266C428.326 33.5026 428.88 33.3906 429.516 33.3906C430.177 33.3906 430.755 33.526 431.25 33.7969C431.745 34.0625 432.133 34.4271 432.414 34.8906C432.701 35.349 432.857 35.8698 432.883 36.4531H431.508C431.482 36.1042 431.383 35.7891 431.211 35.5078C431.044 35.2266 430.815 35.0026 430.523 34.8359C430.237 34.6641 429.901 34.5781 429.516 34.5781C429.073 34.5781 428.701 34.6667 428.398 34.8438C428.102 35.0156 427.865 35.25 427.688 35.5469C427.516 35.8385 427.391 36.1641 427.312 36.5234C427.24 36.8776 427.203 37.2396 427.203 37.6094V37.9375C427.203 38.3073 427.24 38.6719 427.312 39.0312C427.385 39.3906 427.508 39.7161 427.68 40.0078C427.857 40.2995 428.094 40.5339 428.391 40.7109C428.693 40.8828 429.068 40.9688 429.516 40.9688ZM437.891 40.9688C438.234 40.9688 438.552 40.8984 438.844 40.7578C439.135 40.6172 439.375 40.4245 439.562 40.1797C439.75 39.9297 439.857 39.6458 439.883 39.3281H441.258C441.232 39.8281 441.062 40.2943 440.75 40.7266C440.443 41.1536 440.039 41.5 439.539 41.7656C439.039 42.026 438.49 42.1562 437.891 42.1562C437.255 42.1562 436.701 42.0443 436.227 41.8203C435.758 41.5964 435.367 41.2891 435.055 40.8984C434.747 40.5078 434.516 40.0599 434.359 39.5547C434.208 39.0443 434.133 38.5052 434.133 37.9375V37.6094C434.133 37.0417 434.208 36.5052 434.359 36C434.516 35.4896 434.747 35.0391 435.055 34.6484C435.367 34.2578 435.758 33.9505 436.227 33.7266C436.701 33.5026 437.255 33.3906 437.891 33.3906C438.552 33.3906 439.13 33.526 439.625 33.7969C440.12 34.0625 440.508 34.4271 440.789 34.8906C441.076 35.349 441.232 35.8698 441.258 36.4531H439.883C439.857 36.1042 439.758 35.7891 439.586 35.5078C439.419 35.2266 439.19 35.0026 438.898 34.8359C438.612 34.6641 438.276 34.5781 437.891 34.5781C437.448 34.5781 437.076 34.6667 436.773 34.8438C436.477 35.0156 436.24 35.25 436.062 35.5469C435.891 35.8385 435.766 36.1641 435.688 36.5234C435.615 36.8776 435.578 37.2396 435.578 37.6094V37.9375C435.578 38.3073 435.615 38.6719 435.688 39.0312C435.76 39.3906 435.883 39.7161 436.055 40.0078C436.232 40.2995 436.469 40.5339 436.766 40.7109C437.068 40.8828 437.443 40.9688 437.891 40.9688ZM442.5 37.8672V37.6875C442.5 37.0781 442.589 36.513 442.766 35.9922C442.943 35.4661 443.198 35.0104 443.531 34.625C443.865 34.2344 444.268 33.9323 444.742 33.7188C445.216 33.5 445.747 33.3906 446.336 33.3906C446.93 33.3906 447.464 33.5 447.938 33.7188C448.417 33.9323 448.823 34.2344 449.156 34.625C449.495 35.0104 449.753 35.4661 449.93 35.9922C450.107 36.513 450.195 37.0781 450.195 37.6875V37.8672C450.195 38.4766 450.107 39.0417 449.93 39.5625C449.753 40.0833 449.495 40.5391 449.156 40.9297C448.823 41.3151 448.419 41.6172 447.945 41.8359C447.477 42.0495 446.945 42.1562 446.352 42.1562C445.758 42.1562 445.224 42.0495 444.75 41.8359C444.276 41.6172 443.87 41.3151 443.531 40.9297C443.198 40.5391 442.943 40.0833 442.766 39.5625C442.589 39.0417 442.5 38.4766 442.5 37.8672ZM443.945 37.6875V37.8672C443.945 38.2891 443.995 38.6875 444.094 39.0625C444.193 39.4323 444.341 39.7604 444.539 40.0469C444.742 40.3333 444.995 40.5599 445.297 40.7266C445.599 40.888 445.951 40.9688 446.352 40.9688C446.747 40.9688 447.094 40.888 447.391 40.7266C447.693 40.5599 447.943 40.3333 448.141 40.0469C448.339 39.7604 448.487 39.4323 448.586 39.0625C448.69 38.6875 448.742 38.2891 448.742 37.8672V37.6875C448.742 37.2708 448.69 36.8776 448.586 36.5078C448.487 36.1328 448.336 35.8021 448.133 35.5156C447.935 35.224 447.685 34.9948 447.383 34.8281C447.086 34.6615 446.737 34.5781 446.336 34.5781C445.94 34.5781 445.591 34.6615 445.289 34.8281C444.992 34.9948 444.742 35.224 444.539 35.5156C444.341 35.8021 444.193 36.1328 444.094 36.5078C443.995 36.8776 443.945 37.2708 443.945 37.6875ZM457.18 40.0469V33.5469H458.633V42H457.25L457.18 40.0469ZM457.453 38.2656L458.055 38.25C458.055 38.8125 457.995 39.3333 457.875 39.8125C457.76 40.2865 457.573 40.6979 457.312 41.0469C457.052 41.3958 456.711 41.6693 456.289 41.8672C455.867 42.0599 455.354 42.1562 454.75 42.1562C454.339 42.1562 453.961 42.0964 453.617 41.9766C453.279 41.8568 452.987 41.6719 452.742 41.4219C452.497 41.1719 452.307 40.8464 452.172 40.4453C452.042 40.0443 451.977 39.5625 451.977 39V33.5469H453.422V39.0156C453.422 39.3958 453.464 39.7109 453.547 39.9609C453.635 40.2057 453.753 40.401 453.898 40.5469C454.049 40.6875 454.216 40.7865 454.398 40.8438C454.586 40.901 454.779 40.9297 454.977 40.9297C455.591 40.9297 456.078 40.8125 456.438 40.5781C456.797 40.3385 457.055 40.0182 457.211 39.6172C457.372 39.2109 457.453 38.7604 457.453 38.2656ZM462.281 35.3516V42H460.836V33.5469H462.203L462.281 35.3516ZM461.938 37.4531L461.336 37.4297C461.341 36.8516 461.427 36.3177 461.594 35.8281C461.76 35.3333 461.995 34.9036 462.297 34.5391C462.599 34.1745 462.958 33.8932 463.375 33.6953C463.797 33.4922 464.263 33.3906 464.773 33.3906C465.19 33.3906 465.565 33.4479 465.898 33.5625C466.232 33.6719 466.516 33.849 466.75 34.0938C466.99 34.3385 467.172 34.6562 467.297 35.0469C467.422 35.4323 467.484 35.9036 467.484 36.4609V42H466.031V36.4453C466.031 36.0026 465.966 35.6484 465.836 35.3828C465.706 35.112 465.516 34.9167 465.266 34.7969C465.016 34.6719 464.708 34.6094 464.344 34.6094C463.984 34.6094 463.656 34.6849 463.359 34.8359C463.068 34.987 462.815 35.1953 462.602 35.4609C462.393 35.7266 462.229 36.0312 462.109 36.375C461.995 36.7135 461.938 37.0729 461.938 37.4531ZM473.219 33.5469V34.6562H468.648V33.5469H473.219ZM470.195 31.4922H471.641V39.9062C471.641 40.1927 471.685 40.4089 471.773 40.5547C471.862 40.7005 471.977 40.7969 472.117 40.8438C472.258 40.8906 472.409 40.9141 472.57 40.9141C472.69 40.9141 472.815 40.9036 472.945 40.8828C473.081 40.8568 473.182 40.8359 473.25 40.8203L473.258 42C473.143 42.0365 472.992 42.0703 472.805 42.1016C472.622 42.138 472.401 42.1562 472.141 42.1562C471.786 42.1562 471.461 42.0859 471.164 41.9453C470.867 41.8047 470.63 41.5703 470.453 41.2422C470.281 40.9089 470.195 40.4609 470.195 39.8984V31.4922Z" fill="#0288D1"/>
<path fill-rule="evenodd" clip-rule="evenodd" d="M29.7142 43.5578V41.0131C29.7142 40.8881 29.6718 40.7832 29.587 40.6984C29.5022 40.6136 29.4017 40.5712 29.2857 40.5712H26.7142C26.5982 40.5712 26.4977 40.6136 26.4129 40.6984C26.3281 40.7832 26.2857 40.8881 26.2857 41.0131V43.5578C26.2857 43.6828 26.3281 43.7877 26.4129 43.8725C26.4977 43.9573 26.5982 43.9998 26.7142 43.9998H29.2857C29.4017 43.9998 29.5022 43.9573 29.587 43.8725C29.6718 43.7877 29.7142 43.6828 29.7142 43.5578ZM29.6875 38.5489L29.9285 32.4015C29.9285 32.2944 29.8839 32.2096 29.7946 32.1471C29.6785 32.0489 29.5714 31.9998 29.4732 31.9998H26.5267C26.4285 31.9998 26.3214 32.0489 26.2053 32.1471C26.116 32.2096 26.0714 32.3033 26.0714 32.4283L26.2991 38.5489C26.2991 38.6381 26.3437 38.7118 26.433 38.7698C26.5223 38.8279 26.6294 38.8569 26.7544 38.8569H29.2321C29.3571 38.8569 29.462 38.8279 29.5468 38.7698C29.6316 38.7118 29.6785 38.6381 29.6875 38.5489L29.6875 38.5489ZM29.5 26.0399L39.7856 44.897C40.0981 45.4595 40.0892 46.022 39.7588 46.5845C39.6071 46.8435 39.3995 47.0488 39.1361 47.2006C38.8727 47.3524 38.5892 47.4283 38.2856 47.4283H17.7142C17.4106 47.4283 17.1271 47.3524 16.8637 47.2006C16.6004 47.0488 16.3928 46.8435 16.241 46.5845C15.9106 46.022 15.9017 45.4595 16.2142 44.897L26.4999 26.0399C26.6517 25.7631 26.8615 25.5444 27.1293 25.3836C27.3972 25.2229 27.6874 25.1426 27.9999 25.1426C28.3124 25.1426 28.6026 25.2229 28.8704 25.3836C29.1383 25.5444 29.3481 25.7631 29.4999 26.0399H29.5Z" fill="#0288D1"/>
</g>
<defs>
<clipPath id="clip0_8306_5468">
<rect width="552" height="72" fill="white"/>
</clipPath>
</defs>
</svg>
