<svg width="24" height="25" viewBox="0 0 24 25" fill="none" xmlns="http://www.w3.org/2000/svg">
<g id="vuesax/bold/trash">
<g id="trash">
<path id="Vector" d="M21.0702 5.87258C19.4602 5.71258 17.8502 5.59258 16.2302 5.50258V5.49258L16.0102 4.19258C15.8602 3.27258 15.6402 1.89258 13.3002 1.89258H10.6802C8.35016 1.89258 8.13016 3.21258 7.97016 4.18258L7.76016 5.46258C6.83016 5.52258 5.90016 5.58258 4.97016 5.67258L2.93016 5.87258C2.51016 5.91258 2.21016 6.28258 2.25016 6.69258C2.29016 7.10258 2.65016 7.40258 3.07016 7.36258L5.11016 7.16258C10.3502 6.64258 15.6302 6.84258 20.9302 7.37258C20.9602 7.37258 20.9802 7.37258 21.0102 7.37258C21.3902 7.37258 21.7202 7.08258 21.7602 6.69258C21.7902 6.28258 21.4902 5.91258 21.0702 5.87258Z" fill="black" fill-opacity="0.6"/>
<path id="Vector_2" d="M19.2302 8.78258C18.9902 8.53258 18.6602 8.39258 18.3202 8.39258H5.68024C5.34024 8.39258 5.00024 8.53258 4.77024 8.78258C4.54024 9.03258 4.41024 9.37258 4.43024 9.72258L5.05024 19.9826C5.16024 21.5026 5.30024 23.4026 8.79024 23.4026H15.2102C18.7002 23.4026 18.8402 21.5126 18.9502 19.9826L19.5702 9.73258C19.5902 9.37258 19.4602 9.03258 19.2302 8.78258ZM13.6602 18.3926H10.3302C9.92024 18.3926 9.58024 18.0526 9.58024 17.6426C9.58024 17.2326 9.92024 16.8926 10.3302 16.8926H13.6602C14.0702 16.8926 14.4102 17.2326 14.4102 17.6426C14.4102 18.0526 14.0702 18.3926 13.6602 18.3926ZM14.5002 14.3926H9.50024C9.09024 14.3926 8.75024 14.0526 8.75024 13.6426C8.75024 13.2326 9.09024 12.8926 9.50024 12.8926H14.5002C14.9102 12.8926 15.2502 13.2326 15.2502 13.6426C15.2502 14.0526 14.9102 14.3926 14.5002 14.3926Z" fill="black" fill-opacity="0.6"/>
</g>
</g>
</svg>
