<svg width="58" height="58" viewBox="0 0 58 58" fill="none" xmlns="http://www.w3.org/2000/svg">
<path d="M16.6479 35.3197C16.7598 35.4194 16.8909 35.4867 17.029 35.5221C17.3417 35.6023 17.6893 35.5185 17.9253 35.2759L24.1364 28.8903C24.4705 28.5467 25.0093 28.4555 25.4463 28.6686L30.0618 30.9177C31.1 31.4235 32.3492 31.29 33.2448 30.5775L39.0846 25.9325L38.6459 30.6866C38.6067 31.1113 38.8952 31.4914 39.3112 31.598C39.3613 31.6109 39.4133 31.6198 39.4667 31.6243C39.9639 31.6663 40.4026 31.3146 40.4465 30.8388L41.0876 23.8916C41.1087 23.6631 41.0341 23.4359 40.8801 23.26C40.7262 23.0842 40.5055 22.974 40.2668 22.9539L33.2849 22.3639C32.7877 22.3219 32.349 22.6736 32.3051 23.1494C32.2612 23.6253 32.6288 24.045 33.1259 24.0871L38.0532 24.5035L32.0894 29.2471C31.7496 29.5174 31.2758 29.5681 30.882 29.3762L26.2665 27.127C25.1146 26.5656 23.6942 26.8059 22.8132 27.7117L16.6021 34.0973C16.262 34.4469 16.2825 34.9942 16.6479 35.3197Z" fill="#5B93FF"/>
<circle opacity="0.1" cx="29" cy="29" r="29" fill="#5B93FF"/>
</svg>
