<svg width="24" height="25" viewBox="0 0 24 25" fill="none" xmlns="http://www.w3.org/2000/svg">
<path d="M15 23.1074H9C3.57 23.1074 1.25 20.7874 1.25 15.3574V9.35742C1.25 3.92742 3.57 1.60742 9 1.60742H11C11.41 1.60742 11.75 1.94742 11.75 2.35742C11.75 2.76742 11.41 3.10742 11 3.10742H9C4.39 3.10742 2.75 4.74742 2.75 9.35742V15.3574C2.75 19.9674 4.39 21.6074 9 21.6074H15C19.61 21.6074 21.25 19.9674 21.25 15.3574V13.3574C21.25 12.9474 21.59 12.6074 22 12.6074C22.41 12.6074 22.75 12.9474 22.75 13.3574V15.3574C22.75 20.7874 20.43 23.1074 15 23.1074Z" fill="black" fill-opacity="0.6"/>
<path d="M8.49984 18.047C7.88984 18.047 7.32984 17.827 6.91984 17.427C6.42984 16.937 6.21984 16.227 6.32984 15.477L6.75984 12.467C6.83984 11.887 7.21984 11.137 7.62984 10.727L15.5098 2.84699C17.4998 0.856992 19.5198 0.856992 21.5098 2.84699C22.5998 3.93699 23.0898 5.04699 22.9898 6.15699C22.8998 7.05699 22.4198 7.93699 21.5098 8.83699L13.6298 16.717C13.2198 17.127 12.4698 17.507 11.8898 17.587L8.87984 18.017C8.74984 18.047 8.61984 18.047 8.49984 18.047ZM16.5698 3.90699L8.68984 11.787C8.49984 11.977 8.27984 12.417 8.23984 12.677L7.80984 15.687C7.76984 15.977 7.82984 16.217 7.97984 16.367C8.12984 16.517 8.36984 16.577 8.65984 16.537L11.6698 16.107C11.9298 16.067 12.3798 15.847 12.5598 15.657L20.4398 7.77699C21.0898 7.12699 21.4298 6.54699 21.4798 6.00699C21.5398 5.35699 21.1998 4.66699 20.4398 3.89699C18.8398 2.29699 17.7398 2.74699 16.5698 3.90699Z" fill="black" fill-opacity="0.6"/>
<path d="M19.8501 10.1877C19.7801 10.1877 19.7101 10.1777 19.6501 10.1577C17.0201 9.41769 14.9301 7.32769 14.1901 4.69769C14.0801 4.29769 14.3101 3.88769 14.7101 3.76769C15.1101 3.65769 15.5201 3.88769 15.6301 4.28769C16.2301 6.41769 17.9201 8.10769 20.0501 8.70769C20.4501 8.81769 20.6801 9.23769 20.5701 9.63769C20.4801 9.97769 20.1801 10.1877 19.8501 10.1877Z" fill="black" fill-opacity="0.6"/>
</svg>
