<svg width="24" height="25" viewBox="0 0 24 25" fill="none" xmlns="http://www.w3.org/2000/svg">
<path d="M15.24 22.913H15.11C10.67 22.913 8.53002 21.163 8.16002 17.243C8.12002 16.833 8.42002 16.463 8.84002 16.423C9.25002 16.383 9.62002 16.693 9.66002 17.103C9.95002 20.243 11.43 21.413 15.12 21.413H15.25C19.32 21.413 20.76 19.973 20.76 15.903V9.38305C20.76 5.31305 19.32 3.87305 15.25 3.87305H15.12C11.41 3.87305 9.93002 5.06305 9.66002 8.26305C9.61002 8.67305 9.27002 8.98305 8.84002 8.94305C8.42002 8.91305 8.12001 8.54305 8.15001 8.13305C8.49001 4.15305 10.64 2.37305 15.11 2.37305H15.24C20.15 2.37305 22.25 4.47305 22.25 9.38305V15.903C22.25 20.813 20.15 22.913 15.24 22.913Z" fill="#C7325F"/>
<path d="M14.88 13.3926H2C1.59 13.3926 1.25 13.0526 1.25 12.6426C1.25 12.2326 1.59 11.8926 2 11.8926H14.88C15.29 11.8926 15.63 12.2326 15.63 12.6426C15.63 13.0526 15.3 13.3926 14.88 13.3926Z" fill="#C7325F"/>
<path d="M12.6498 16.7424C12.4598 16.7424 12.2698 16.6724 12.1198 16.5224C11.8298 16.2324 11.8298 15.7524 12.1198 15.4624L14.9398 12.6424L12.1198 9.82242C11.8298 9.53242 11.8298 9.05242 12.1198 8.76242C12.4098 8.47242 12.8898 8.47242 13.1798 8.76242L16.5298 12.1124C16.8198 12.4024 16.8198 12.8824 16.5298 13.1724L13.1798 16.5224C13.0298 16.6724 12.8398 16.7424 12.6498 16.7424Z" fill="#C7325F"/>
</svg>
