<svg width="24" height="24" viewBox="0 0 24 24" fill="none" xmlns="http://www.w3.org/2000/svg">
<g id="vuesax/outline/login">
<g id="login">
<path id="Vector" d="M15.24 22.2705H15.11C10.67 22.2705 8.53002 20.5205 8.16002 16.6005C8.12002 16.1905 8.42002 15.8205 8.84002 15.7805C9.25002 15.7405 9.62002 16.0505 9.66002 16.4605C9.95002 19.6005 11.43 20.7705 15.12 20.7705H15.25C19.32 20.7705 20.76 19.3305 20.76 15.2605V8.74047C20.76 4.67047 19.32 3.23047 15.25 3.23047H15.12C11.41 3.23047 9.93002 4.42047 9.66002 7.62047C9.61002 8.03047 9.27002 8.34047 8.84002 8.30047C8.42002 8.27047 8.12001 7.90047 8.15001 7.49047C8.49001 3.51047 10.64 1.73047 15.11 1.73047H15.24C20.15 1.73047 22.25 3.83047 22.25 8.74047V15.2605C22.25 20.1705 20.15 22.2705 15.24 22.2705Z" fill="black" fill-opacity="0.6"/>
<path id="Vector_2" d="M14.88 12.75H2C1.59 12.75 1.25 12.41 1.25 12C1.25 11.59 1.59 11.25 2 11.25H14.88C15.29 11.25 15.63 11.59 15.63 12C15.63 12.41 15.3 12.75 14.88 12.75Z" fill="black" fill-opacity="0.6"/>
<path id="Vector_3" d="M12.6498 16.0998C12.4598 16.0998 12.2698 16.0298 12.1198 15.8798C11.8298 15.5898 11.8298 15.1098 12.1198 14.8198L14.9398 11.9998L12.1198 9.17984C11.8298 8.88984 11.8298 8.40984 12.1198 8.11984C12.4098 7.82984 12.8898 7.82984 13.1798 8.11984L16.5298 11.4698C16.8198 11.7598 16.8198 12.2398 16.5298 12.5298L13.1798 15.8798C13.0298 16.0298 12.8398 16.0998 12.6498 16.0998Z" fill="black" fill-opacity="0.6"/>
</g>
</g>
</svg>
