<svg width="552" height="72" viewBox="0 0 552 72" fill="none" xmlns="http://www.w3.org/2000/svg">
<g clip-path="url(#clip0_8066_8733)">
<rect width="552" height="72" rx="4" fill="#0288D1" fill-opacity="0.1"/>
<rect x="0.5" y="0.5" width="551" height="71" rx="3.5" stroke="#0288D1" stroke-opacity="0.1"/>
<path d="M61.375 36.6797H58.4922L58.4766 35.4688H61.0938C61.526 35.4688 61.9036 35.3958 62.2266 35.25C62.5495 35.1042 62.7995 34.8958 62.9766 34.625C63.1589 34.349 63.25 34.0208 63.25 33.6406C63.25 33.224 63.1693 32.8854 63.0078 32.625C62.8516 32.3594 62.6094 32.1667 62.2812 32.0469C61.9583 31.9219 61.5469 31.8594 61.0469 31.8594H58.8281V42H57.3203V30.625H61.0469C61.6302 30.625 62.151 30.6849 62.6094 30.8047C63.0677 30.9193 63.4557 31.1016 63.7734 31.3516C64.0964 31.5964 64.3411 31.9089 64.5078 32.2891C64.6745 32.6693 64.7578 33.125 64.7578 33.6562C64.7578 34.125 64.638 34.5495 64.3984 34.9297C64.1589 35.3047 63.8255 35.612 63.3984 35.8516C62.9766 36.0911 62.4818 36.2448 61.9141 36.3125L61.375 36.6797ZM61.3047 42H57.8984L58.75 40.7734H61.3047C61.7839 40.7734 62.1901 40.6901 62.5234 40.5234C62.862 40.3568 63.1198 40.1224 63.2969 39.8203C63.474 39.513 63.5625 39.151 63.5625 38.7344C63.5625 38.3125 63.487 37.9479 63.3359 37.6406C63.1849 37.3333 62.9479 37.0964 62.625 36.9297C62.3021 36.763 61.8854 36.6797 61.375 36.6797H59.2266L59.2422 35.4688H62.1797L62.5 35.9062C63.0469 35.9531 63.5104 36.1094 63.8906 36.375C64.2708 36.6354 64.5599 36.9688 64.7578 37.375C64.9609 37.7812 65.0625 38.2292 65.0625 38.7188C65.0625 39.4271 64.9062 40.026 64.5938 40.5156C64.2865 41 63.8516 41.3698 63.2891 41.625C62.7266 41.875 62.0651 42 61.3047 42ZM69.4453 41.125L71.7969 33.5469H73.3438L69.9531 43.3047C69.875 43.513 69.7708 43.737 69.6406 43.9766C69.5156 44.2214 69.3542 44.4531 69.1562 44.6719C68.9583 44.8906 68.7188 45.0677 68.4375 45.2031C68.1615 45.3438 67.8307 45.4141 67.4453 45.4141C67.3307 45.4141 67.1849 45.3984 67.0078 45.3672C66.8307 45.3359 66.7057 45.3099 66.6328 45.2891L66.625 44.1172C66.6667 44.1224 66.7318 44.1276 66.8203 44.1328C66.9141 44.1432 66.9792 44.1484 67.0156 44.1484C67.3438 44.1484 67.6224 44.1042 67.8516 44.0156C68.0807 43.9323 68.2734 43.7891 68.4297 43.5859C68.5911 43.388 68.7292 43.1146 68.8438 42.7656L69.4453 41.125ZM67.7188 33.5469L69.9141 40.1094L70.2891 41.6328L69.25 42.1641L66.1406 33.5469H67.7188ZM82 40.9688C82.3438 40.9688 82.6615 40.8984 82.9531 40.7578C83.2448 40.6172 83.4844 40.4245 83.6719 40.1797C83.8594 39.9297 83.9661 39.6458 83.9922 39.3281H85.3672C85.3411 39.8281 85.1719 40.2943 84.8594 40.7266C84.5521 41.1536 84.1484 41.5 83.6484 41.7656C83.1484 42.026 82.599 42.1562 82 42.1562C81.3646 42.1562 80.8099 42.0443 80.3359 41.8203C79.8672 41.5964 79.4766 41.2891 79.1641 40.8984C78.8568 40.5078 78.625 40.0599 78.4688 39.5547C78.3177 39.0443 78.2422 38.5052 78.2422 37.9375V37.6094C78.2422 37.0417 78.3177 36.5052 78.4688 36C78.625 35.4896 78.8568 35.0391 79.1641 34.6484C79.4766 34.2578 79.8672 33.9505 80.3359 33.7266C80.8099 33.5026 81.3646 33.3906 82 33.3906C82.6615 33.3906 83.2396 33.526 83.7344 33.7969C84.2292 34.0625 84.6172 34.4271 84.8984 34.8906C85.1849 35.349 85.3411 35.8698 85.3672 36.4531H83.9922C83.9661 36.1042 83.8672 35.7891 83.6953 35.5078C83.5286 35.2266 83.2995 35.0026 83.0078 34.8359C82.7214 34.6641 82.3854 34.5781 82 34.5781C81.5573 34.5781 81.1849 34.6667 80.8828 34.8438C80.5859 35.0156 80.349 35.25 80.1719 35.5469C80 35.8385 79.875 36.1641 79.7969 36.5234C79.724 36.8776 79.6875 37.2396 79.6875 37.6094V37.9375C79.6875 38.3073 79.724 38.6719 79.7969 39.0312C79.8698 39.3906 79.9922 39.7161 80.1641 40.0078C80.3411 40.2995 80.5781 40.5339 80.875 40.7109C81.1771 40.8828 81.5521 40.9688 82 40.9688ZM88.5625 30V42H87.1094V30H88.5625ZM92.4531 33.5469V42H91V33.5469H92.4531ZM90.8906 31.3047C90.8906 31.0703 90.9609 30.8724 91.1016 30.7109C91.2474 30.5495 91.4609 30.4688 91.7422 30.4688C92.0182 30.4688 92.2292 30.5495 92.375 30.7109C92.526 30.8724 92.6016 31.0703 92.6016 31.3047C92.6016 31.5286 92.526 31.7214 92.375 31.8828C92.2292 32.0391 92.0182 32.1172 91.7422 32.1172C91.4609 32.1172 91.2474 32.0391 91.1016 31.8828C90.9609 31.7214 90.8906 31.5286 90.8906 31.3047ZM98.1562 40.9688C98.5 40.9688 98.8177 40.8984 99.1094 40.7578C99.401 40.6172 99.6406 40.4245 99.8281 40.1797C100.016 39.9297 100.122 39.6458 100.148 39.3281H101.523C101.497 39.8281 101.328 40.2943 101.016 40.7266C100.708 41.1536 100.305 41.5 99.8047 41.7656C99.3047 42.026 98.7552 42.1562 98.1562 42.1562C97.5208 42.1562 96.9661 42.0443 96.4922 41.8203C96.0234 41.5964 95.6328 41.2891 95.3203 40.8984C95.013 40.5078 94.7812 40.0599 94.625 39.5547C94.474 39.0443 94.3984 38.5052 94.3984 37.9375V37.6094C94.3984 37.0417 94.474 36.5052 94.625 36C94.7812 35.4896 95.013 35.0391 95.3203 34.6484C95.6328 34.2578 96.0234 33.9505 96.4922 33.7266C96.9661 33.5026 97.5208 33.3906 98.1562 33.3906C98.8177 33.3906 99.3958 33.526 99.8906 33.7969C100.385 34.0625 100.773 34.4271 101.055 34.8906C101.341 35.349 101.497 35.8698 101.523 36.4531H100.148C100.122 36.1042 100.023 35.7891 99.8516 35.5078C99.6849 35.2266 99.4557 35.0026 99.1641 34.8359C98.8776 34.6641 98.5417 34.5781 98.1562 34.5781C97.7135 34.5781 97.3411 34.6667 97.0391 34.8438C96.7422 35.0156 96.5052 35.25 96.3281 35.5469C96.1562 35.8385 96.0312 36.1641 95.9531 36.5234C95.8802 36.8776 95.8438 37.2396 95.8438 37.6094V37.9375C95.8438 38.3073 95.8802 38.6719 95.9531 39.0312C96.026 39.3906 96.1484 39.7161 96.3203 40.0078C96.4974 40.2995 96.7344 40.5339 97.0312 40.7109C97.3333 40.8828 97.7083 40.9688 98.1562 40.9688ZM104.602 30V42H103.148V30H104.602ZM109.766 33.5469L106.078 37.4922L104.016 39.6328L103.898 38.0938L105.375 36.3281L108 33.5469H109.766ZM108.445 42L105.43 37.9688L106.18 36.6797L110.148 42H108.445ZM112.828 33.5469V42H111.375V33.5469H112.828ZM111.266 31.3047C111.266 31.0703 111.336 30.8724 111.477 30.7109C111.622 30.5495 111.836 30.4688 112.117 30.4688C112.393 30.4688 112.604 30.5495 112.75 30.7109C112.901 30.8724 112.977 31.0703 112.977 31.3047C112.977 31.5286 112.901 31.7214 112.75 31.8828C112.604 32.0391 112.393 32.1172 112.117 32.1172C111.836 32.1172 111.622 32.0391 111.477 31.8828C111.336 31.7214 111.266 31.5286 111.266 31.3047ZM116.594 35.3516V42H115.148V33.5469H116.516L116.594 35.3516ZM116.25 37.4531L115.648 37.4297C115.654 36.8516 115.74 36.3177 115.906 35.8281C116.073 35.3333 116.307 34.9036 116.609 34.5391C116.911 34.1745 117.271 33.8932 117.688 33.6953C118.109 33.4922 118.576 33.3906 119.086 33.3906C119.503 33.3906 119.878 33.4479 120.211 33.5625C120.544 33.6719 120.828 33.849 121.062 34.0938C121.302 34.3385 121.484 34.6562 121.609 35.0469C121.734 35.4323 121.797 35.9036 121.797 36.4609V42H120.344V36.4453C120.344 36.0026 120.279 35.6484 120.148 35.3828C120.018 35.112 119.828 34.9167 119.578 34.7969C119.328 34.6719 119.021 34.6094 118.656 34.6094C118.297 34.6094 117.969 34.6849 117.672 34.8359C117.38 34.987 117.128 35.1953 116.914 35.4609C116.706 35.7266 116.542 36.0312 116.422 36.375C116.307 36.7135 116.25 37.0729 116.25 37.4531ZM129.469 33.5469H130.781V41.8203C130.781 42.5651 130.63 43.2005 130.328 43.7266C130.026 44.2526 129.604 44.651 129.062 44.9219C128.526 45.1979 127.906 45.3359 127.203 45.3359C126.911 45.3359 126.568 45.2891 126.172 45.1953C125.781 45.1068 125.396 44.9531 125.016 44.7344C124.641 44.5208 124.326 44.2318 124.07 43.8672L124.828 43.0078C125.182 43.4349 125.552 43.7318 125.938 43.8984C126.328 44.0651 126.714 44.1484 127.094 44.1484C127.552 44.1484 127.948 44.0625 128.281 43.8906C128.615 43.7188 128.872 43.4635 129.055 43.125C129.242 42.7917 129.336 42.3802 129.336 41.8906V35.4062L129.469 33.5469ZM123.648 37.8672V37.7031C123.648 37.0573 123.724 36.4714 123.875 35.9453C124.031 35.4141 124.253 34.9583 124.539 34.5781C124.831 34.1979 125.182 33.9062 125.594 33.7031C126.005 33.4948 126.469 33.3906 126.984 33.3906C127.516 33.3906 127.979 33.4844 128.375 33.6719C128.776 33.8542 129.115 34.1224 129.391 34.4766C129.672 34.8255 129.893 35.2474 130.055 35.7422C130.216 36.237 130.328 36.7969 130.391 37.4219V38.1406C130.333 38.7604 130.221 39.3177 130.055 39.8125C129.893 40.3073 129.672 40.7292 129.391 41.0781C129.115 41.4271 128.776 41.6953 128.375 41.8828C127.974 42.0651 127.505 42.1562 126.969 42.1562C126.464 42.1562 126.005 42.0495 125.594 41.8359C125.188 41.6224 124.839 41.3229 124.547 40.9375C124.255 40.5521 124.031 40.099 123.875 39.5781C123.724 39.0521 123.648 38.4818 123.648 37.8672ZM125.094 37.7031V37.8672C125.094 38.2891 125.135 38.6849 125.219 39.0547C125.307 39.4245 125.44 39.75 125.617 40.0312C125.799 40.3125 126.031 40.5339 126.312 40.6953C126.594 40.8516 126.93 40.9297 127.32 40.9297C127.799 40.9297 128.195 40.8281 128.508 40.625C128.82 40.4219 129.068 40.1536 129.25 39.8203C129.438 39.487 129.583 39.125 129.688 38.7344V36.8516C129.63 36.5651 129.542 36.2891 129.422 36.0234C129.307 35.7526 129.156 35.513 128.969 35.3047C128.786 35.0911 128.56 34.9219 128.289 34.7969C128.018 34.6719 127.701 34.6094 127.336 34.6094C126.94 34.6094 126.599 34.6927 126.312 34.8594C126.031 35.0208 125.799 35.2448 125.617 35.5312C125.44 35.8125 125.307 36.1406 125.219 36.5156C125.135 36.8854 125.094 37.2812 125.094 37.7031ZM136.562 37.8672V37.6875C136.562 37.0781 136.651 36.513 136.828 35.9922C137.005 35.4661 137.26 35.0104 137.594 34.625C137.927 34.2344 138.331 33.9323 138.805 33.7188C139.279 33.5 139.81 33.3906 140.398 33.3906C140.992 33.3906 141.526 33.5 142 33.7188C142.479 33.9323 142.885 34.2344 143.219 34.625C143.557 35.0104 143.815 35.4661 143.992 35.9922C144.169 36.513 144.258 37.0781 144.258 37.6875V37.8672C144.258 38.4766 144.169 39.0417 143.992 39.5625C143.815 40.0833 143.557 40.5391 143.219 40.9297C142.885 41.3151 142.482 41.6172 142.008 41.8359C141.539 42.0495 141.008 42.1562 140.414 42.1562C139.82 42.1562 139.286 42.0495 138.812 41.8359C138.339 41.6172 137.932 41.3151 137.594 40.9297C137.26 40.5391 137.005 40.0833 136.828 39.5625C136.651 39.0417 136.562 38.4766 136.562 37.8672ZM138.008 37.6875V37.8672C138.008 38.2891 138.057 38.6875 138.156 39.0625C138.255 39.4323 138.404 39.7604 138.602 40.0469C138.805 40.3333 139.057 40.5599 139.359 40.7266C139.661 40.888 140.013 40.9688 140.414 40.9688C140.81 40.9688 141.156 40.888 141.453 40.7266C141.755 40.5599 142.005 40.3333 142.203 40.0469C142.401 39.7604 142.549 39.4323 142.648 39.0625C142.753 38.6875 142.805 38.2891 142.805 37.8672V37.6875C142.805 37.2708 142.753 36.8776 142.648 36.5078C142.549 36.1328 142.398 35.8021 142.195 35.5156C141.997 35.224 141.747 34.9948 141.445 34.8281C141.148 34.6615 140.799 34.5781 140.398 34.5781C140.003 34.5781 139.654 34.6615 139.352 34.8281C139.055 34.9948 138.805 35.224 138.602 35.5156C138.404 35.8021 138.255 36.1328 138.156 36.5078C138.057 36.8776 138.008 37.2708 138.008 37.6875ZM147.516 35.3516V42H146.07V33.5469H147.438L147.516 35.3516ZM147.172 37.4531L146.57 37.4297C146.576 36.8516 146.661 36.3177 146.828 35.8281C146.995 35.3333 147.229 34.9036 147.531 34.5391C147.833 34.1745 148.193 33.8932 148.609 33.6953C149.031 33.4922 149.497 33.3906 150.008 33.3906C150.424 33.3906 150.799 33.4479 151.133 33.5625C151.466 33.6719 151.75 33.849 151.984 34.0938C152.224 34.3385 152.406 34.6562 152.531 35.0469C152.656 35.4323 152.719 35.9036 152.719 36.4609V42H151.266V36.4453C151.266 36.0026 151.201 35.6484 151.07 35.3828C150.94 35.112 150.75 34.9167 150.5 34.7969C150.25 34.6719 149.943 34.6094 149.578 34.6094C149.219 34.6094 148.891 34.6849 148.594 34.8359C148.302 34.987 148.049 35.1953 147.836 35.4609C147.628 35.7266 147.464 36.0312 147.344 36.375C147.229 36.7135 147.172 37.0729 147.172 37.4531ZM162.18 42H159.805L159.82 40.7734H162.18C162.992 40.7734 163.669 40.6042 164.211 40.2656C164.753 39.9219 165.159 39.4427 165.43 38.8281C165.706 38.2083 165.844 37.4844 165.844 36.6562V35.9609C165.844 35.3099 165.766 34.7318 165.609 34.2266C165.453 33.7161 165.224 33.2865 164.922 32.9375C164.62 32.5833 164.25 32.3151 163.812 32.1328C163.38 31.9505 162.883 31.8594 162.32 31.8594H159.758V30.625H162.32C163.065 30.625 163.745 30.75 164.359 31C164.974 31.2448 165.503 31.6016 165.945 32.0703C166.393 32.5339 166.737 33.0964 166.977 33.7578C167.216 34.4141 167.336 35.1536 167.336 35.9766V36.6562C167.336 37.4792 167.216 38.2214 166.977 38.8828C166.737 39.5391 166.391 40.099 165.938 40.5625C165.49 41.026 164.948 41.3828 164.312 41.6328C163.682 41.8776 162.971 42 162.18 42ZM160.609 30.625V42H159.102V30.625H160.609ZM172.891 42.1562C172.302 42.1562 171.768 42.0573 171.289 41.8594C170.815 41.6562 170.406 41.3724 170.062 41.0078C169.724 40.6432 169.464 40.2109 169.281 39.7109C169.099 39.2109 169.008 38.6641 169.008 38.0703V37.7422C169.008 37.0547 169.109 36.4427 169.312 35.9062C169.516 35.3646 169.792 34.9062 170.141 34.5312C170.49 34.1562 170.885 33.8724 171.328 33.6797C171.771 33.487 172.229 33.3906 172.703 33.3906C173.307 33.3906 173.828 33.4948 174.266 33.7031C174.708 33.9115 175.07 34.2031 175.352 34.5781C175.633 34.9479 175.841 35.3854 175.977 35.8906C176.112 36.3906 176.18 36.9375 176.18 37.5312V38.1797H169.867V37H174.734V36.8906C174.714 36.5156 174.635 36.151 174.5 35.7969C174.37 35.4427 174.161 35.151 173.875 34.9219C173.589 34.6927 173.198 34.5781 172.703 34.5781C172.375 34.5781 172.073 34.6484 171.797 34.7891C171.521 34.9245 171.284 35.1276 171.086 35.3984C170.888 35.6693 170.734 36 170.625 36.3906C170.516 36.7812 170.461 37.2318 170.461 37.7422V38.0703C170.461 38.4714 170.516 38.849 170.625 39.2031C170.74 39.5521 170.904 39.8594 171.117 40.125C171.336 40.3906 171.599 40.599 171.906 40.75C172.219 40.901 172.573 40.9766 172.969 40.9766C173.479 40.9766 173.911 40.8724 174.266 40.6641C174.62 40.4557 174.93 40.1771 175.195 39.8281L176.07 40.5234C175.888 40.7995 175.656 41.0625 175.375 41.3125C175.094 41.5625 174.747 41.7656 174.336 41.9219C173.93 42.0781 173.448 42.1562 172.891 42.1562ZM179.438 30V42H177.984V30H179.438ZM185.266 42.1562C184.677 42.1562 184.143 42.0573 183.664 41.8594C183.19 41.6562 182.781 41.3724 182.438 41.0078C182.099 40.6432 181.839 40.2109 181.656 39.7109C181.474 39.2109 181.383 38.6641 181.383 38.0703V37.7422C181.383 37.0547 181.484 36.4427 181.688 35.9062C181.891 35.3646 182.167 34.9062 182.516 34.5312C182.865 34.1562 183.26 33.8724 183.703 33.6797C184.146 33.487 184.604 33.3906 185.078 33.3906C185.682 33.3906 186.203 33.4948 186.641 33.7031C187.083 33.9115 187.445 34.2031 187.727 34.5781C188.008 34.9479 188.216 35.3854 188.352 35.8906C188.487 36.3906 188.555 36.9375 188.555 37.5312V38.1797H182.242V37H187.109V36.8906C187.089 36.5156 187.01 36.151 186.875 35.7969C186.745 35.4427 186.536 35.151 186.25 34.9219C185.964 34.6927 185.573 34.5781 185.078 34.5781C184.75 34.5781 184.448 34.6484 184.172 34.7891C183.896 34.9245 183.659 35.1276 183.461 35.3984C183.263 35.6693 183.109 36 183 36.3906C182.891 36.7812 182.836 37.2318 182.836 37.7422V38.0703C182.836 38.4714 182.891 38.849 183 39.2031C183.115 39.5521 183.279 39.8594 183.492 40.125C183.711 40.3906 183.974 40.599 184.281 40.75C184.594 40.901 184.948 40.9766 185.344 40.9766C185.854 40.9766 186.286 40.8724 186.641 40.6641C186.995 40.4557 187.305 40.1771 187.57 39.8281L188.445 40.5234C188.263 40.7995 188.031 41.0625 187.75 41.3125C187.469 41.5625 187.122 41.7656 186.711 41.9219C186.305 42.0781 185.823 42.1562 185.266 42.1562ZM193.781 33.5469V34.6562H189.211V33.5469H193.781ZM190.758 31.4922H192.203V39.9062C192.203 40.1927 192.247 40.4089 192.336 40.5547C192.424 40.7005 192.539 40.7969 192.68 40.8438C192.82 40.8906 192.971 40.9141 193.133 40.9141C193.253 40.9141 193.378 40.9036 193.508 40.8828C193.643 40.8568 193.745 40.8359 193.812 40.8203L193.82 42C193.706 42.0365 193.555 42.0703 193.367 42.1016C193.185 42.138 192.964 42.1562 192.703 42.1562C192.349 42.1562 192.023 42.0859 191.727 41.9453C191.43 41.8047 191.193 41.5703 191.016 41.2422C190.844 40.9089 190.758 40.4609 190.758 39.8984V31.4922ZM198.984 42.1562C198.396 42.1562 197.862 42.0573 197.383 41.8594C196.909 41.6562 196.5 41.3724 196.156 41.0078C195.818 40.6432 195.557 40.2109 195.375 39.7109C195.193 39.2109 195.102 38.6641 195.102 38.0703V37.7422C195.102 37.0547 195.203 36.4427 195.406 35.9062C195.609 35.3646 195.885 34.9062 196.234 34.5312C196.583 34.1562 196.979 33.8724 197.422 33.6797C197.865 33.487 198.323 33.3906 198.797 33.3906C199.401 33.3906 199.922 33.4948 200.359 33.7031C200.802 33.9115 201.164 34.2031 201.445 34.5781C201.727 34.9479 201.935 35.3854 202.07 35.8906C202.206 36.3906 202.273 36.9375 202.273 37.5312V38.1797H195.961V37H200.828V36.8906C200.807 36.5156 200.729 36.151 200.594 35.7969C200.464 35.4427 200.255 35.151 199.969 34.9219C199.682 34.6927 199.292 34.5781 198.797 34.5781C198.469 34.5781 198.167 34.6484 197.891 34.7891C197.615 34.9245 197.378 35.1276 197.18 35.3984C196.982 35.6693 196.828 36 196.719 36.3906C196.609 36.7812 196.555 37.2318 196.555 37.7422V38.0703C196.555 38.4714 196.609 38.849 196.719 39.2031C196.833 39.5521 196.997 39.8594 197.211 40.125C197.43 40.3906 197.693 40.599 198 40.75C198.312 40.901 198.667 40.9766 199.062 40.9766C199.573 40.9766 200.005 40.8724 200.359 40.6641C200.714 40.4557 201.023 40.1771 201.289 39.8281L202.164 40.5234C201.982 40.7995 201.75 41.0625 201.469 41.3125C201.188 41.5625 200.841 41.7656 200.43 41.9219C200.023 42.0781 199.542 42.1562 198.984 42.1562ZM205.273 40.2812V41.4453C205.273 41.9193 205.154 42.4193 204.914 42.9453C204.674 43.4766 204.339 43.9193 203.906 44.2734L203.086 43.7031C203.253 43.474 203.393 43.2396 203.508 43C203.622 42.7656 203.708 42.5208 203.766 42.2656C203.828 42.0156 203.859 41.75 203.859 41.4688V40.2812H205.273ZM216.258 40.0469V33.5469H217.711V42H216.328L216.258 40.0469ZM216.531 38.2656L217.133 38.25C217.133 38.8125 217.073 39.3333 216.953 39.8125C216.839 40.2865 216.651 40.6979 216.391 41.0469C216.13 41.3958 215.789 41.6693 215.367 41.8672C214.945 42.0599 214.432 42.1562 213.828 42.1562C213.417 42.1562 213.039 42.0964 212.695 41.9766C212.357 41.8568 212.065 41.6719 211.82 41.4219C211.576 41.1719 211.385 40.8464 211.25 40.4453C211.12 40.0443 211.055 39.5625 211.055 39V33.5469H212.5V39.0156C212.5 39.3958 212.542 39.7109 212.625 39.9609C212.714 40.2057 212.831 40.401 212.977 40.5469C213.128 40.6875 213.294 40.7865 213.477 40.8438C213.664 40.901 213.857 40.9297 214.055 40.9297C214.669 40.9297 215.156 40.8125 215.516 40.5781C215.875 40.3385 216.133 40.0182 216.289 39.6172C216.451 39.2109 216.531 38.7604 216.531 38.2656ZM224.836 39.7578C224.836 39.5495 224.789 39.3568 224.695 39.1797C224.607 38.9974 224.422 38.8333 224.141 38.6875C223.865 38.5365 223.448 38.4062 222.891 38.2969C222.422 38.1979 221.997 38.0807 221.617 37.9453C221.242 37.8099 220.922 37.6458 220.656 37.4531C220.396 37.2604 220.195 37.0339 220.055 36.7734C219.914 36.513 219.844 36.2083 219.844 35.8594C219.844 35.526 219.917 35.2109 220.062 34.9141C220.214 34.6172 220.424 34.3542 220.695 34.125C220.971 33.8958 221.302 33.7161 221.688 33.5859C222.073 33.4557 222.503 33.3906 222.977 33.3906C223.654 33.3906 224.232 33.5104 224.711 33.75C225.19 33.9896 225.557 34.3099 225.812 34.7109C226.068 35.1068 226.195 35.5469 226.195 36.0312H224.75C224.75 35.7969 224.68 35.5703 224.539 35.3516C224.404 35.1276 224.203 34.9427 223.938 34.7969C223.677 34.651 223.357 34.5781 222.977 34.5781C222.576 34.5781 222.25 34.6406 222 34.7656C221.755 34.8854 221.576 35.0391 221.461 35.2266C221.352 35.4141 221.297 35.612 221.297 35.8203C221.297 35.9766 221.323 36.1172 221.375 36.2422C221.432 36.362 221.531 36.474 221.672 36.5781C221.812 36.6771 222.01 36.7708 222.266 36.8594C222.521 36.9479 222.846 37.0365 223.242 37.125C223.935 37.2812 224.505 37.4688 224.953 37.6875C225.401 37.9062 225.734 38.1745 225.953 38.4922C226.172 38.8099 226.281 39.1953 226.281 39.6484C226.281 40.0182 226.203 40.3568 226.047 40.6641C225.896 40.9714 225.674 41.237 225.383 41.4609C225.096 41.6797 224.753 41.8516 224.352 41.9766C223.956 42.0964 223.51 42.1562 223.016 42.1562C222.271 42.1562 221.641 42.0234 221.125 41.7578C220.609 41.4922 220.219 41.1484 219.953 40.7266C219.688 40.3047 219.555 39.8594 219.555 39.3906H221.008C221.029 39.7865 221.143 40.1016 221.352 40.3359C221.56 40.5651 221.815 40.7292 222.117 40.8281C222.419 40.9219 222.719 40.9688 223.016 40.9688C223.411 40.9688 223.742 40.9167 224.008 40.8125C224.279 40.7083 224.484 40.5651 224.625 40.3828C224.766 40.2005 224.836 39.9922 224.836 39.7578ZM231.688 42.1562C231.099 42.1562 230.565 42.0573 230.086 41.8594C229.612 41.6562 229.203 41.3724 228.859 41.0078C228.521 40.6432 228.26 40.2109 228.078 39.7109C227.896 39.2109 227.805 38.6641 227.805 38.0703V37.7422C227.805 37.0547 227.906 36.4427 228.109 35.9062C228.312 35.3646 228.589 34.9062 228.938 34.5312C229.286 34.1562 229.682 33.8724 230.125 33.6797C230.568 33.487 231.026 33.3906 231.5 33.3906C232.104 33.3906 232.625 33.4948 233.062 33.7031C233.505 33.9115 233.867 34.2031 234.148 34.5781C234.43 34.9479 234.638 35.3854 234.773 35.8906C234.909 36.3906 234.977 36.9375 234.977 37.5312V38.1797H228.664V37H233.531V36.8906C233.51 36.5156 233.432 36.151 233.297 35.7969C233.167 35.4427 232.958 35.151 232.672 34.9219C232.385 34.6927 231.995 34.5781 231.5 34.5781C231.172 34.5781 230.87 34.6484 230.594 34.7891C230.318 34.9245 230.081 35.1276 229.883 35.3984C229.685 35.6693 229.531 36 229.422 36.3906C229.312 36.7812 229.258 37.2318 229.258 37.7422V38.0703C229.258 38.4714 229.312 38.849 229.422 39.2031C229.536 39.5521 229.701 39.8594 229.914 40.125C230.133 40.3906 230.396 40.599 230.703 40.75C231.016 40.901 231.37 40.9766 231.766 40.9766C232.276 40.9766 232.708 40.8724 233.062 40.6641C233.417 40.4557 233.727 40.1771 233.992 39.8281L234.867 40.5234C234.685 40.7995 234.453 41.0625 234.172 41.3125C233.891 41.5625 233.544 41.7656 233.133 41.9219C232.727 42.0781 232.245 42.1562 231.688 42.1562ZM238.109 34.875V42H236.664V33.5469H238.07L238.109 34.875ZM240.75 33.5L240.742 34.8438C240.622 34.8177 240.508 34.8021 240.398 34.7969C240.294 34.7865 240.174 34.7812 240.039 34.7812C239.706 34.7812 239.411 34.8333 239.156 34.9375C238.901 35.0417 238.685 35.1875 238.508 35.375C238.331 35.5625 238.19 35.7865 238.086 36.0469C237.987 36.3021 237.922 36.5833 237.891 36.8906L237.484 37.125C237.484 36.6146 237.534 36.1354 237.633 35.6875C237.737 35.2396 237.896 34.8438 238.109 34.5C238.323 34.151 238.594 33.8802 238.922 33.6875C239.255 33.4896 239.651 33.3906 240.109 33.3906C240.214 33.3906 240.333 33.4036 240.469 33.4297C240.604 33.4505 240.698 33.474 240.75 33.5ZM247.5 34.875V42H246.055V33.5469H247.461L247.5 34.875ZM250.141 33.5L250.133 34.8438C250.013 34.8177 249.898 34.8021 249.789 34.7969C249.685 34.7865 249.565 34.7812 249.43 34.7812C249.096 34.7812 248.802 34.8333 248.547 34.9375C248.292 35.0417 248.076 35.1875 247.898 35.375C247.721 35.5625 247.581 35.7865 247.477 36.0469C247.378 36.3021 247.312 36.5833 247.281 36.8906L246.875 37.125C246.875 36.6146 246.924 36.1354 247.023 35.6875C247.128 35.2396 247.286 34.8438 247.5 34.5C247.714 34.151 247.984 33.8802 248.312 33.6875C248.646 33.4896 249.042 33.3906 249.5 33.3906C249.604 33.3906 249.724 33.4036 249.859 33.4297C249.995 33.4505 250.089 33.474 250.141 33.5ZM254.828 42.1562C254.24 42.1562 253.706 42.0573 253.227 41.8594C252.753 41.6562 252.344 41.3724 252 41.0078C251.661 40.6432 251.401 40.2109 251.219 39.7109C251.036 39.2109 250.945 38.6641 250.945 38.0703V37.7422C250.945 37.0547 251.047 36.4427 251.25 35.9062C251.453 35.3646 251.729 34.9062 252.078 34.5312C252.427 34.1562 252.823 33.8724 253.266 33.6797C253.708 33.487 254.167 33.3906 254.641 33.3906C255.245 33.3906 255.766 33.4948 256.203 33.7031C256.646 33.9115 257.008 34.2031 257.289 34.5781C257.57 34.9479 257.779 35.3854 257.914 35.8906C258.049 36.3906 258.117 36.9375 258.117 37.5312V38.1797H251.805V37H256.672V36.8906C256.651 36.5156 256.573 36.151 256.438 35.7969C256.307 35.4427 256.099 35.151 255.812 34.9219C255.526 34.6927 255.135 34.5781 254.641 34.5781C254.312 34.5781 254.01 34.6484 253.734 34.7891C253.458 34.9245 253.221 35.1276 253.023 35.3984C252.826 35.6693 252.672 36 252.562 36.3906C252.453 36.7812 252.398 37.2318 252.398 37.7422V38.0703C252.398 38.4714 252.453 38.849 252.562 39.2031C252.677 39.5521 252.841 39.8594 253.055 40.125C253.273 40.3906 253.536 40.599 253.844 40.75C254.156 40.901 254.51 40.9766 254.906 40.9766C255.417 40.9766 255.849 40.8724 256.203 40.6641C256.557 40.4557 256.867 40.1771 257.133 39.8281L258.008 40.5234C257.826 40.7995 257.594 41.0625 257.312 41.3125C257.031 41.5625 256.685 41.7656 256.273 41.9219C255.867 42.0781 255.385 42.1562 254.828 42.1562ZM263.188 40.9688C263.531 40.9688 263.849 40.8984 264.141 40.7578C264.432 40.6172 264.672 40.4245 264.859 40.1797C265.047 39.9297 265.154 39.6458 265.18 39.3281H266.555C266.529 39.8281 266.359 40.2943 266.047 40.7266C265.74 41.1536 265.336 41.5 264.836 41.7656C264.336 42.026 263.786 42.1562 263.188 42.1562C262.552 42.1562 261.997 42.0443 261.523 41.8203C261.055 41.5964 260.664 41.2891 260.352 40.8984C260.044 40.5078 259.812 40.0599 259.656 39.5547C259.505 39.0443 259.43 38.5052 259.43 37.9375V37.6094C259.43 37.0417 259.505 36.5052 259.656 36C259.812 35.4896 260.044 35.0391 260.352 34.6484C260.664 34.2578 261.055 33.9505 261.523 33.7266C261.997 33.5026 262.552 33.3906 263.188 33.3906C263.849 33.3906 264.427 33.526 264.922 33.7969C265.417 34.0625 265.805 34.4271 266.086 34.8906C266.372 35.349 266.529 35.8698 266.555 36.4531H265.18C265.154 36.1042 265.055 35.7891 264.883 35.5078C264.716 35.2266 264.487 35.0026 264.195 34.8359C263.909 34.6641 263.573 34.5781 263.188 34.5781C262.745 34.5781 262.372 34.6667 262.07 34.8438C261.773 35.0156 261.536 35.25 261.359 35.5469C261.188 35.8385 261.062 36.1641 260.984 36.5234C260.911 36.8776 260.875 37.2396 260.875 37.6094V37.9375C260.875 38.3073 260.911 38.6719 260.984 39.0312C261.057 39.3906 261.18 39.7161 261.352 40.0078C261.529 40.2995 261.766 40.5339 262.062 40.7109C262.365 40.8828 262.74 40.9688 263.188 40.9688ZM267.797 37.8672V37.6875C267.797 37.0781 267.885 36.513 268.062 35.9922C268.24 35.4661 268.495 35.0104 268.828 34.625C269.161 34.2344 269.565 33.9323 270.039 33.7188C270.513 33.5 271.044 33.3906 271.633 33.3906C272.227 33.3906 272.76 33.5 273.234 33.7188C273.714 33.9323 274.12 34.2344 274.453 34.625C274.792 35.0104 275.049 35.4661 275.227 35.9922C275.404 36.513 275.492 37.0781 275.492 37.6875V37.8672C275.492 38.4766 275.404 39.0417 275.227 39.5625C275.049 40.0833 274.792 40.5391 274.453 40.9297C274.12 41.3151 273.716 41.6172 273.242 41.8359C272.773 42.0495 272.242 42.1562 271.648 42.1562C271.055 42.1562 270.521 42.0495 270.047 41.8359C269.573 41.6172 269.167 41.3151 268.828 40.9297C268.495 40.5391 268.24 40.0833 268.062 39.5625C267.885 39.0417 267.797 38.4766 267.797 37.8672ZM269.242 37.6875V37.8672C269.242 38.2891 269.292 38.6875 269.391 39.0625C269.49 39.4323 269.638 39.7604 269.836 40.0469C270.039 40.3333 270.292 40.5599 270.594 40.7266C270.896 40.888 271.247 40.9688 271.648 40.9688C272.044 40.9688 272.391 40.888 272.688 40.7266C272.99 40.5599 273.24 40.3333 273.438 40.0469C273.635 39.7604 273.784 39.4323 273.883 39.0625C273.987 38.6875 274.039 38.2891 274.039 37.8672V37.6875C274.039 37.2708 273.987 36.8776 273.883 36.5078C273.784 36.1328 273.633 35.8021 273.43 35.5156C273.232 35.224 272.982 34.9948 272.68 34.8281C272.383 34.6615 272.034 34.5781 271.633 34.5781C271.237 34.5781 270.888 34.6615 270.586 34.8281C270.289 34.9948 270.039 35.224 269.836 35.5156C269.638 35.8021 269.49 36.1328 269.391 36.5078C269.292 36.8776 269.242 37.2708 269.242 37.6875ZM278.75 34.875V42H277.305V33.5469H278.711L278.75 34.875ZM281.391 33.5L281.383 34.8438C281.263 34.8177 281.148 34.8021 281.039 34.7969C280.935 34.7865 280.815 34.7812 280.68 34.7812C280.346 34.7812 280.052 34.8333 279.797 34.9375C279.542 35.0417 279.326 35.1875 279.148 35.375C278.971 35.5625 278.831 35.7865 278.727 36.0469C278.628 36.3021 278.562 36.5833 278.531 36.8906L278.125 37.125C278.125 36.6146 278.174 36.1354 278.273 35.6875C278.378 35.2396 278.536 34.8438 278.75 34.5C278.964 34.151 279.234 33.8802 279.562 33.6875C279.896 33.4896 280.292 33.3906 280.75 33.3906C280.854 33.3906 280.974 33.4036 281.109 33.4297C281.245 33.4505 281.339 33.474 281.391 33.5ZM287.898 40.3594V30H289.352V42H288.023L287.898 40.3594ZM282.211 37.8672V37.7031C282.211 37.0573 282.289 36.4714 282.445 35.9453C282.607 35.4141 282.833 34.9583 283.125 34.5781C283.422 34.1979 283.773 33.9062 284.18 33.7031C284.591 33.4948 285.049 33.3906 285.555 33.3906C286.086 33.3906 286.549 33.4844 286.945 33.6719C287.346 33.8542 287.685 34.1224 287.961 34.4766C288.242 34.8255 288.464 35.2474 288.625 35.7422C288.786 36.237 288.898 36.7969 288.961 37.4219V38.1406C288.904 38.7604 288.792 39.3177 288.625 39.8125C288.464 40.3073 288.242 40.7292 287.961 41.0781C287.685 41.4271 287.346 41.6953 286.945 41.8828C286.544 42.0651 286.076 42.1562 285.539 42.1562C285.044 42.1562 284.591 42.0495 284.18 41.8359C283.773 41.6224 283.422 41.3229 283.125 40.9375C282.833 40.5521 282.607 40.099 282.445 39.5781C282.289 39.0521 282.211 38.4818 282.211 37.8672ZM283.664 37.7031V37.8672C283.664 38.2891 283.706 38.6849 283.789 39.0547C283.878 39.4245 284.013 39.75 284.195 40.0312C284.378 40.3125 284.609 40.5339 284.891 40.6953C285.172 40.8516 285.508 40.9297 285.898 40.9297C286.378 40.9297 286.771 40.8281 287.078 40.625C287.391 40.4219 287.641 40.1536 287.828 39.8203C288.016 39.487 288.161 39.125 288.266 38.7344V36.8516C288.203 36.5651 288.112 36.2891 287.992 36.0234C287.878 35.7526 287.727 35.513 287.539 35.3047C287.357 35.0911 287.13 34.9219 286.859 34.7969C286.594 34.6719 286.279 34.6094 285.914 34.6094C285.518 34.6094 285.177 34.6927 284.891 34.8594C284.609 35.0208 284.378 35.2448 284.195 35.5312C284.013 35.8125 283.878 36.1406 283.789 36.5156C283.706 36.8854 283.664 37.2812 283.664 37.7031ZM293.172 33.5469V42H291.719V33.5469H293.172ZM291.609 31.3047C291.609 31.0703 291.68 30.8724 291.82 30.7109C291.966 30.5495 292.18 30.4688 292.461 30.4688C292.737 30.4688 292.948 30.5495 293.094 30.7109C293.245 30.8724 293.32 31.0703 293.32 31.3047C293.32 31.5286 293.245 31.7214 293.094 31.8828C292.948 32.0391 292.737 32.1172 292.461 32.1172C292.18 32.1172 291.966 32.0391 291.82 31.8828C291.68 31.7214 291.609 31.5286 291.609 31.3047ZM296.938 35.3516V42H295.492V33.5469H296.859L296.938 35.3516ZM296.594 37.4531L295.992 37.4297C295.997 36.8516 296.083 36.3177 296.25 35.8281C296.417 35.3333 296.651 34.9036 296.953 34.5391C297.255 34.1745 297.615 33.8932 298.031 33.6953C298.453 33.4922 298.919 33.3906 299.43 33.3906C299.846 33.3906 300.221 33.4479 300.555 33.5625C300.888 33.6719 301.172 33.849 301.406 34.0938C301.646 34.3385 301.828 34.6562 301.953 35.0469C302.078 35.4323 302.141 35.9036 302.141 36.4609V42H300.688V36.4453C300.688 36.0026 300.622 35.6484 300.492 35.3828C300.362 35.112 300.172 34.9167 299.922 34.7969C299.672 34.6719 299.365 34.6094 299 34.6094C298.641 34.6094 298.312 34.6849 298.016 34.8359C297.724 34.987 297.471 35.1953 297.258 35.4609C297.049 35.7266 296.885 36.0312 296.766 36.375C296.651 36.7135 296.594 37.0729 296.594 37.4531ZM309.812 33.5469H311.125V41.8203C311.125 42.5651 310.974 43.2005 310.672 43.7266C310.37 44.2526 309.948 44.651 309.406 44.9219C308.87 45.1979 308.25 45.3359 307.547 45.3359C307.255 45.3359 306.911 45.2891 306.516 45.1953C306.125 45.1068 305.74 44.9531 305.359 44.7344C304.984 44.5208 304.669 44.2318 304.414 43.8672L305.172 43.0078C305.526 43.4349 305.896 43.7318 306.281 43.8984C306.672 44.0651 307.057 44.1484 307.438 44.1484C307.896 44.1484 308.292 44.0625 308.625 43.8906C308.958 43.7188 309.216 43.4635 309.398 43.125C309.586 42.7917 309.68 42.3802 309.68 41.8906V35.4062L309.812 33.5469ZM303.992 37.8672V37.7031C303.992 37.0573 304.068 36.4714 304.219 35.9453C304.375 35.4141 304.596 34.9583 304.883 34.5781C305.174 34.1979 305.526 33.9062 305.938 33.7031C306.349 33.4948 306.812 33.3906 307.328 33.3906C307.859 33.3906 308.323 33.4844 308.719 33.6719C309.12 33.8542 309.458 34.1224 309.734 34.4766C310.016 34.8255 310.237 35.2474 310.398 35.7422C310.56 36.237 310.672 36.7969 310.734 37.4219V38.1406C310.677 38.7604 310.565 39.3177 310.398 39.8125C310.237 40.3073 310.016 40.7292 309.734 41.0781C309.458 41.4271 309.12 41.6953 308.719 41.8828C308.318 42.0651 307.849 42.1562 307.312 42.1562C306.807 42.1562 306.349 42.0495 305.938 41.8359C305.531 41.6224 305.182 41.3229 304.891 40.9375C304.599 40.5521 304.375 40.099 304.219 39.5781C304.068 39.0521 303.992 38.4818 303.992 37.8672ZM305.438 37.7031V37.8672C305.438 38.2891 305.479 38.6849 305.562 39.0547C305.651 39.4245 305.784 39.75 305.961 40.0312C306.143 40.3125 306.375 40.5339 306.656 40.6953C306.938 40.8516 307.273 40.9297 307.664 40.9297C308.143 40.9297 308.539 40.8281 308.852 40.625C309.164 40.4219 309.411 40.1536 309.594 39.8203C309.781 39.487 309.927 39.125 310.031 38.7344V36.8516C309.974 36.5651 309.885 36.2891 309.766 36.0234C309.651 35.7526 309.5 35.513 309.312 35.3047C309.13 35.0911 308.904 34.9219 308.633 34.7969C308.362 34.6719 308.044 34.6094 307.68 34.6094C307.284 34.6094 306.943 34.6927 306.656 34.8594C306.375 35.0208 306.143 35.2448 305.961 35.5312C305.784 35.8125 305.651 36.1406 305.562 36.5156C305.479 36.8854 305.438 37.2812 305.438 37.7031ZM319.43 40.5L321.602 33.5469H322.555L322.367 34.9297L320.156 42H319.227L319.43 40.5ZM317.969 33.5469L319.82 40.5781L319.953 42H318.977L316.523 33.5469H317.969ZM324.633 40.5234L326.398 33.5469H327.836L325.383 42H324.414L324.633 40.5234ZM322.766 33.5469L324.891 40.3828L325.133 42H324.211L321.938 34.9141L321.75 33.5469H322.766ZM330.891 33.5469V42H329.438V33.5469H330.891ZM329.328 31.3047C329.328 31.0703 329.398 30.8724 329.539 30.7109C329.685 30.5495 329.898 30.4688 330.18 30.4688C330.456 30.4688 330.667 30.5495 330.812 30.7109C330.964 30.8724 331.039 31.0703 331.039 31.3047C331.039 31.5286 330.964 31.7214 330.812 31.8828C330.667 32.0391 330.456 32.1172 330.18 32.1172C329.898 32.1172 329.685 32.0391 329.539 31.8828C329.398 31.7214 329.328 31.5286 329.328 31.3047ZM334.781 30V42H333.328V30H334.781ZM338.672 30V42H337.219V30H338.672ZM344.953 30H346.406V40.3594L346.281 42H344.953V30ZM352.117 37.7031V37.8672C352.117 38.4818 352.044 39.0521 351.898 39.5781C351.753 40.099 351.539 40.5521 351.258 40.9375C350.977 41.3229 350.633 41.6224 350.227 41.8359C349.82 42.0495 349.354 42.1562 348.828 42.1562C348.292 42.1562 347.82 42.0651 347.414 41.8828C347.013 41.6953 346.674 41.4271 346.398 41.0781C346.122 40.7292 345.901 40.3073 345.734 39.8125C345.573 39.3177 345.461 38.7604 345.398 38.1406V37.4219C345.461 36.7969 345.573 36.237 345.734 35.7422C345.901 35.2474 346.122 34.8255 346.398 34.4766C346.674 34.1224 347.013 33.8542 347.414 33.6719C347.815 33.4844 348.281 33.3906 348.812 33.3906C349.344 33.3906 349.815 33.4948 350.227 33.7031C350.638 33.9062 350.982 34.1979 351.258 34.5781C351.539 34.9583 351.753 35.4141 351.898 35.9453C352.044 36.4714 352.117 37.0573 352.117 37.7031ZM350.664 37.8672V37.7031C350.664 37.2812 350.625 36.8854 350.547 36.5156C350.469 36.1406 350.344 35.8125 350.172 35.5312C350 35.2448 349.773 35.0208 349.492 34.8594C349.211 34.6927 348.865 34.6094 348.453 34.6094C348.089 34.6094 347.771 34.6719 347.5 34.7969C347.234 34.9219 347.008 35.0911 346.82 35.3047C346.633 35.513 346.479 35.7526 346.359 36.0234C346.245 36.2891 346.159 36.5651 346.102 36.8516V38.7344C346.185 39.099 346.32 39.4505 346.508 39.7891C346.701 40.1224 346.956 40.3958 347.273 40.6094C347.596 40.8229 347.995 40.9297 348.469 40.9297C348.859 40.9297 349.193 40.8516 349.469 40.6953C349.75 40.5339 349.977 40.3125 350.148 40.0312C350.326 39.75 350.456 39.4245 350.539 39.0547C350.622 38.6849 350.664 38.2891 350.664 37.8672ZM357.453 42.1562C356.865 42.1562 356.331 42.0573 355.852 41.8594C355.378 41.6562 354.969 41.3724 354.625 41.0078C354.286 40.6432 354.026 40.2109 353.844 39.7109C353.661 39.2109 353.57 38.6641 353.57 38.0703V37.7422C353.57 37.0547 353.672 36.4427 353.875 35.9062C354.078 35.3646 354.354 34.9062 354.703 34.5312C355.052 34.1562 355.448 33.8724 355.891 33.6797C356.333 33.487 356.792 33.3906 357.266 33.3906C357.87 33.3906 358.391 33.4948 358.828 33.7031C359.271 33.9115 359.633 34.2031 359.914 34.5781C360.195 34.9479 360.404 35.3854 360.539 35.8906C360.674 36.3906 360.742 36.9375 360.742 37.5312V38.1797H354.43V37H359.297V36.8906C359.276 36.5156 359.198 36.151 359.062 35.7969C358.932 35.4427 358.724 35.151 358.438 34.9219C358.151 34.6927 357.76 34.5781 357.266 34.5781C356.938 34.5781 356.635 34.6484 356.359 34.7891C356.083 34.9245 355.846 35.1276 355.648 35.3984C355.451 35.6693 355.297 36 355.188 36.3906C355.078 36.7812 355.023 37.2318 355.023 37.7422V38.0703C355.023 38.4714 355.078 38.849 355.188 39.2031C355.302 39.5521 355.466 39.8594 355.68 40.125C355.898 40.3906 356.161 40.599 356.469 40.75C356.781 40.901 357.135 40.9766 357.531 40.9766C358.042 40.9766 358.474 40.8724 358.828 40.6641C359.182 40.4557 359.492 40.1771 359.758 39.8281L360.633 40.5234C360.451 40.7995 360.219 41.0625 359.938 41.3125C359.656 41.5625 359.31 41.7656 358.898 41.9219C358.492 42.0781 358.01 42.1562 357.453 42.1562ZM371.727 40.3594V30H373.18V42H371.852L371.727 40.3594ZM366.039 37.8672V37.7031C366.039 37.0573 366.117 36.4714 366.273 35.9453C366.435 35.4141 366.661 34.9583 366.953 34.5781C367.25 34.1979 367.602 33.9062 368.008 33.7031C368.419 33.4948 368.878 33.3906 369.383 33.3906C369.914 33.3906 370.378 33.4844 370.773 33.6719C371.174 33.8542 371.513 34.1224 371.789 34.4766C372.07 34.8255 372.292 35.2474 372.453 35.7422C372.615 36.237 372.727 36.7969 372.789 37.4219V38.1406C372.732 38.7604 372.62 39.3177 372.453 39.8125C372.292 40.3073 372.07 40.7292 371.789 41.0781C371.513 41.4271 371.174 41.6953 370.773 41.8828C370.372 42.0651 369.904 42.1562 369.367 42.1562C368.872 42.1562 368.419 42.0495 368.008 41.8359C367.602 41.6224 367.25 41.3229 366.953 40.9375C366.661 40.5521 366.435 40.099 366.273 39.5781C366.117 39.0521 366.039 38.4818 366.039 37.8672ZM367.492 37.7031V37.8672C367.492 38.2891 367.534 38.6849 367.617 39.0547C367.706 39.4245 367.841 39.75 368.023 40.0312C368.206 40.3125 368.438 40.5339 368.719 40.6953C369 40.8516 369.336 40.9297 369.727 40.9297C370.206 40.9297 370.599 40.8281 370.906 40.625C371.219 40.4219 371.469 40.1536 371.656 39.8203C371.844 39.487 371.99 39.125 372.094 38.7344V36.8516C372.031 36.5651 371.94 36.2891 371.82 36.0234C371.706 35.7526 371.555 35.513 371.367 35.3047C371.185 35.0911 370.958 34.9219 370.688 34.7969C370.422 34.6719 370.107 34.6094 369.742 34.6094C369.346 34.6094 369.005 34.6927 368.719 34.8594C368.438 35.0208 368.206 35.2448 368.023 35.5312C367.841 35.8125 367.706 36.1406 367.617 36.5156C367.534 36.8854 367.492 37.2812 367.492 37.7031ZM378.938 42.1562C378.349 42.1562 377.815 42.0573 377.336 41.8594C376.862 41.6562 376.453 41.3724 376.109 41.0078C375.771 40.6432 375.51 40.2109 375.328 39.7109C375.146 39.2109 375.055 38.6641 375.055 38.0703V37.7422C375.055 37.0547 375.156 36.4427 375.359 35.9062C375.562 35.3646 375.839 34.9062 376.188 34.5312C376.536 34.1562 376.932 33.8724 377.375 33.6797C377.818 33.487 378.276 33.3906 378.75 33.3906C379.354 33.3906 379.875 33.4948 380.312 33.7031C380.755 33.9115 381.117 34.2031 381.398 34.5781C381.68 34.9479 381.888 35.3854 382.023 35.8906C382.159 36.3906 382.227 36.9375 382.227 37.5312V38.1797H375.914V37H380.781V36.8906C380.76 36.5156 380.682 36.151 380.547 35.7969C380.417 35.4427 380.208 35.151 379.922 34.9219C379.635 34.6927 379.245 34.5781 378.75 34.5781C378.422 34.5781 378.12 34.6484 377.844 34.7891C377.568 34.9245 377.331 35.1276 377.133 35.3984C376.935 35.6693 376.781 36 376.672 36.3906C376.562 36.7812 376.508 37.2318 376.508 37.7422V38.0703C376.508 38.4714 376.562 38.849 376.672 39.2031C376.786 39.5521 376.951 39.8594 377.164 40.125C377.383 40.3906 377.646 40.599 377.953 40.75C378.266 40.901 378.62 40.9766 379.016 40.9766C379.526 40.9766 379.958 40.8724 380.312 40.6641C380.667 40.4557 380.977 40.1771 381.242 39.8281L382.117 40.5234C381.935 40.7995 381.703 41.0625 381.422 41.3125C381.141 41.5625 380.794 41.7656 380.383 41.9219C379.977 42.0781 379.495 42.1562 378.938 42.1562ZM385.484 30V42H384.031V30H385.484ZM391.312 42.1562C390.724 42.1562 390.19 42.0573 389.711 41.8594C389.237 41.6562 388.828 41.3724 388.484 41.0078C388.146 40.6432 387.885 40.2109 387.703 39.7109C387.521 39.2109 387.43 38.6641 387.43 38.0703V37.7422C387.43 37.0547 387.531 36.4427 387.734 35.9062C387.938 35.3646 388.214 34.9062 388.562 34.5312C388.911 34.1562 389.307 33.8724 389.75 33.6797C390.193 33.487 390.651 33.3906 391.125 33.3906C391.729 33.3906 392.25 33.4948 392.688 33.7031C393.13 33.9115 393.492 34.2031 393.773 34.5781C394.055 34.9479 394.263 35.3854 394.398 35.8906C394.534 36.3906 394.602 36.9375 394.602 37.5312V38.1797H388.289V37H393.156V36.8906C393.135 36.5156 393.057 36.151 392.922 35.7969C392.792 35.4427 392.583 35.151 392.297 34.9219C392.01 34.6927 391.62 34.5781 391.125 34.5781C390.797 34.5781 390.495 34.6484 390.219 34.7891C389.943 34.9245 389.706 35.1276 389.508 35.3984C389.31 35.6693 389.156 36 389.047 36.3906C388.938 36.7812 388.883 37.2318 388.883 37.7422V38.0703C388.883 38.4714 388.938 38.849 389.047 39.2031C389.161 39.5521 389.326 39.8594 389.539 40.125C389.758 40.3906 390.021 40.599 390.328 40.75C390.641 40.901 390.995 40.9766 391.391 40.9766C391.901 40.9766 392.333 40.8724 392.688 40.6641C393.042 40.4557 393.352 40.1771 393.617 39.8281L394.492 40.5234C394.31 40.7995 394.078 41.0625 393.797 41.3125C393.516 41.5625 393.169 41.7656 392.758 41.9219C392.352 42.0781 391.87 42.1562 391.312 42.1562ZM399.828 33.5469V34.6562H395.258V33.5469H399.828ZM396.805 31.4922H398.25V39.9062C398.25 40.1927 398.294 40.4089 398.383 40.5547C398.471 40.7005 398.586 40.7969 398.727 40.8438C398.867 40.8906 399.018 40.9141 399.18 40.9141C399.299 40.9141 399.424 40.9036 399.555 40.8828C399.69 40.8568 399.792 40.8359 399.859 40.8203L399.867 42C399.753 42.0365 399.602 42.0703 399.414 42.1016C399.232 42.138 399.01 42.1562 398.75 42.1562C398.396 42.1562 398.07 42.0859 397.773 41.9453C397.477 41.8047 397.24 41.5703 397.062 41.2422C396.891 40.9089 396.805 40.4609 396.805 39.8984V31.4922ZM405.031 42.1562C404.443 42.1562 403.909 42.0573 403.43 41.8594C402.956 41.6562 402.547 41.3724 402.203 41.0078C401.865 40.6432 401.604 40.2109 401.422 39.7109C401.24 39.2109 401.148 38.6641 401.148 38.0703V37.7422C401.148 37.0547 401.25 36.4427 401.453 35.9062C401.656 35.3646 401.932 34.9062 402.281 34.5312C402.63 34.1562 403.026 33.8724 403.469 33.6797C403.911 33.487 404.37 33.3906 404.844 33.3906C405.448 33.3906 405.969 33.4948 406.406 33.7031C406.849 33.9115 407.211 34.2031 407.492 34.5781C407.773 34.9479 407.982 35.3854 408.117 35.8906C408.253 36.3906 408.32 36.9375 408.32 37.5312V38.1797H402.008V37H406.875V36.8906C406.854 36.5156 406.776 36.151 406.641 35.7969C406.51 35.4427 406.302 35.151 406.016 34.9219C405.729 34.6927 405.339 34.5781 404.844 34.5781C404.516 34.5781 404.214 34.6484 403.938 34.7891C403.661 34.9245 403.424 35.1276 403.227 35.3984C403.029 35.6693 402.875 36 402.766 36.3906C402.656 36.7812 402.602 37.2318 402.602 37.7422V38.0703C402.602 38.4714 402.656 38.849 402.766 39.2031C402.88 39.5521 403.044 39.8594 403.258 40.125C403.477 40.3906 403.74 40.599 404.047 40.75C404.359 40.901 404.714 40.9766 405.109 40.9766C405.62 40.9766 406.052 40.8724 406.406 40.6641C406.76 40.4557 407.07 40.1771 407.336 39.8281L408.211 40.5234C408.029 40.7995 407.797 41.0625 407.516 41.3125C407.234 41.5625 406.888 41.7656 406.477 41.9219C406.07 42.0781 405.589 42.1562 405.031 42.1562ZM415.336 40.3594V30H416.789V42H415.461L415.336 40.3594ZM409.648 37.8672V37.7031C409.648 37.0573 409.727 36.4714 409.883 35.9453C410.044 35.4141 410.271 34.9583 410.562 34.5781C410.859 34.1979 411.211 33.9062 411.617 33.7031C412.029 33.4948 412.487 33.3906 412.992 33.3906C413.523 33.3906 413.987 33.4844 414.383 33.6719C414.784 33.8542 415.122 34.1224 415.398 34.4766C415.68 34.8255 415.901 35.2474 416.062 35.7422C416.224 36.237 416.336 36.7969 416.398 37.4219V38.1406C416.341 38.7604 416.229 39.3177 416.062 39.8125C415.901 40.3073 415.68 40.7292 415.398 41.0781C415.122 41.4271 414.784 41.6953 414.383 41.8828C413.982 42.0651 413.513 42.1562 412.977 42.1562C412.482 42.1562 412.029 42.0495 411.617 41.8359C411.211 41.6224 410.859 41.3229 410.562 40.9375C410.271 40.5521 410.044 40.099 409.883 39.5781C409.727 39.0521 409.648 38.4818 409.648 37.8672ZM411.102 37.7031V37.8672C411.102 38.2891 411.143 38.6849 411.227 39.0547C411.315 39.4245 411.451 39.75 411.633 40.0312C411.815 40.3125 412.047 40.5339 412.328 40.6953C412.609 40.8516 412.945 40.9297 413.336 40.9297C413.815 40.9297 414.208 40.8281 414.516 40.625C414.828 40.4219 415.078 40.1536 415.266 39.8203C415.453 39.487 415.599 39.125 415.703 38.7344V36.8516C415.641 36.5651 415.549 36.2891 415.43 36.0234C415.315 35.7526 415.164 35.513 414.977 35.3047C414.794 35.0911 414.568 34.9219 414.297 34.7969C414.031 34.6719 413.716 34.6094 413.352 34.6094C412.956 34.6094 412.615 34.6927 412.328 34.8594C412.047 35.0208 411.815 35.2448 411.633 35.5312C411.451 35.8125 411.315 36.1406 411.227 36.5156C411.143 36.8854 411.102 37.2812 411.102 37.7031Z" fill="#0288D1"/>
<path fill-rule="evenodd" clip-rule="evenodd" d="M29.7143 43.5578V41.0131C29.7143 40.8881 29.6719 40.7832 29.5871 40.6984C29.5022 40.6136 29.4018 40.5712 29.2857 40.5712H26.7143C26.5982 40.5712 26.4978 40.6136 26.413 40.6984C26.3281 40.7832 26.2857 40.8881 26.2857 41.0131V43.5578C26.2857 43.6828 26.3281 43.7877 26.413 43.8725C26.4978 43.9573 26.5982 43.9998 26.7143 43.9998H29.2857C29.4018 43.9998 29.5022 43.9573 29.5871 43.8725C29.6719 43.7877 29.7143 43.6828 29.7143 43.5578ZM29.6875 38.5489L29.9286 32.4015C29.9286 32.2944 29.8839 32.2096 29.7947 32.1471C29.6786 32.0489 29.5714 31.9998 29.4732 31.9998H26.5268C26.4286 31.9998 26.3214 32.0489 26.2054 32.1471C26.1161 32.2096 26.0714 32.3033 26.0714 32.4283L26.2991 38.5489C26.2991 38.6381 26.3438 38.7118 26.433 38.7698C26.5223 38.8279 26.6295 38.8569 26.7545 38.8569H29.2322C29.3572 38.8569 29.4621 38.8279 29.5469 38.7698C29.6317 38.7118 29.6786 38.6381 29.6875 38.5489L29.6875 38.5489ZM29.5 26.0399L39.7857 44.897C40.0982 45.4595 40.0893 46.022 39.7589 46.5845C39.6071 46.8435 39.3995 47.0488 39.1361 47.2006C38.8727 47.3524 38.5893 47.4283 38.2857 47.4283H17.7143C17.4107 47.4283 17.1272 47.3524 16.8638 47.2006C16.6004 47.0488 16.3928 46.8435 16.241 46.5845C15.9107 46.022 15.9018 45.4595 16.2143 44.897L26.4999 26.0399C26.6517 25.7631 26.8615 25.5444 27.1294 25.3836C27.3973 25.2229 27.6874 25.1426 27.9999 25.1426C28.3124 25.1426 28.6026 25.2229 28.8705 25.3836C29.1383 25.5444 29.3481 25.7631 29.4999 26.0399H29.5Z" fill="#0288D1"/>
</g>
<defs>
<clipPath id="clip0_8066_8733">
<rect width="552" height="72" fill="white"/>
</clipPath>
</defs>
</svg>
