<svg width="552" height="72" viewBox="0 0 552 72" fill="none" xmlns="http://www.w3.org/2000/svg">
<g clip-path="url(#clip0_7679_51586)">
<rect width="552" height="72" rx="4" fill="#0288D1" fill-opacity="0.1"/>
<rect x="0.5" y="0.5" width="551" height="71" rx="3.5" stroke="#0288D1" stroke-opacity="0.1"/>
<path d="M61.375 36.6797H58.4922L58.4766 35.4688H61.0938C61.526 35.4688 61.9036 35.3958 62.2266 35.25C62.5495 35.1042 62.7995 34.8958 62.9766 34.625C63.1589 34.349 63.25 34.0208 63.25 33.6406C63.25 33.224 63.1693 32.8854 63.0078 32.625C62.8516 32.3594 62.6094 32.1667 62.2812 32.0469C61.9583 31.9219 61.5469 31.8594 61.0469 31.8594H58.8281V42H57.3203V30.625H61.0469C61.6302 30.625 62.151 30.6849 62.6094 30.8047C63.0677 30.9193 63.4557 31.1016 63.7734 31.3516C64.0964 31.5964 64.3411 31.9089 64.5078 32.2891C64.6745 32.6693 64.7578 33.125 64.7578 33.6562C64.7578 34.125 64.638 34.5495 64.3984 34.9297C64.1589 35.3047 63.8255 35.612 63.3984 35.8516C62.9766 36.0911 62.4818 36.2448 61.9141 36.3125L61.375 36.6797ZM61.3047 42H57.8984L58.75 40.7734H61.3047C61.7839 40.7734 62.1901 40.6901 62.5234 40.5234C62.862 40.3568 63.1198 40.1224 63.2969 39.8203C63.474 39.513 63.5625 39.151 63.5625 38.7344C63.5625 38.3125 63.487 37.9479 63.3359 37.6406C63.1849 37.3333 62.9479 37.0964 62.625 36.9297C62.3021 36.763 61.8854 36.6797 61.375 36.6797H59.2266L59.2422 35.4688H62.1797L62.5 35.9062C63.0469 35.9531 63.5104 36.1094 63.8906 36.375C64.2708 36.6354 64.5599 36.9688 64.7578 37.375C64.9609 37.7812 65.0625 38.2292 65.0625 38.7188C65.0625 39.4271 64.9062 40.026 64.5938 40.5156C64.2865 41 63.8516 41.3698 63.2891 41.625C62.7266 41.875 62.0651 42 61.3047 42ZM69.4453 41.125L71.7969 33.5469H73.3438L69.9531 43.3047C69.875 43.513 69.7708 43.737 69.6406 43.9766C69.5156 44.2214 69.3542 44.4531 69.1562 44.6719C68.9583 44.8906 68.7188 45.0677 68.4375 45.2031C68.1615 45.3438 67.8307 45.4141 67.4453 45.4141C67.3307 45.4141 67.1849 45.3984 67.0078 45.3672C66.8307 45.3359 66.7057 45.3099 66.6328 45.2891L66.625 44.1172C66.6667 44.1224 66.7318 44.1276 66.8203 44.1328C66.9141 44.1432 66.9792 44.1484 67.0156 44.1484C67.3438 44.1484 67.6224 44.1042 67.8516 44.0156C68.0807 43.9323 68.2734 43.7891 68.4297 43.5859C68.5911 43.388 68.7292 43.1146 68.8438 42.7656L69.4453 41.125ZM67.7188 33.5469L69.9141 40.1094L70.2891 41.6328L69.25 42.1641L66.1406 33.5469H67.7188ZM82 40.9688C82.3438 40.9688 82.6615 40.8984 82.9531 40.7578C83.2448 40.6172 83.4844 40.4245 83.6719 40.1797C83.8594 39.9297 83.9661 39.6458 83.9922 39.3281H85.3672C85.3411 39.8281 85.1719 40.2943 84.8594 40.7266C84.5521 41.1536 84.1484 41.5 83.6484 41.7656C83.1484 42.026 82.599 42.1562 82 42.1562C81.3646 42.1562 80.8099 42.0443 80.3359 41.8203C79.8672 41.5964 79.4766 41.2891 79.1641 40.8984C78.8568 40.5078 78.625 40.0599 78.4688 39.5547C78.3177 39.0443 78.2422 38.5052 78.2422 37.9375V37.6094C78.2422 37.0417 78.3177 36.5052 78.4688 36C78.625 35.4896 78.8568 35.0391 79.1641 34.6484C79.4766 34.2578 79.8672 33.9505 80.3359 33.7266C80.8099 33.5026 81.3646 33.3906 82 33.3906C82.6615 33.3906 83.2396 33.526 83.7344 33.7969C84.2292 34.0625 84.6172 34.4271 84.8984 34.8906C85.1849 35.349 85.3411 35.8698 85.3672 36.4531H83.9922C83.9661 36.1042 83.8672 35.7891 83.6953 35.5078C83.5286 35.2266 83.2995 35.0026 83.0078 34.8359C82.7214 34.6641 82.3854 34.5781 82 34.5781C81.5573 34.5781 81.1849 34.6667 80.8828 34.8438C80.5859 35.0156 80.349 35.25 80.1719 35.5469C80 35.8385 79.875 36.1641 79.7969 36.5234C79.724 36.8776 79.6875 37.2396 79.6875 37.6094V37.9375C79.6875 38.3073 79.724 38.6719 79.7969 39.0312C79.8698 39.3906 79.9922 39.7161 80.1641 40.0078C80.3411 40.2995 80.5781 40.5339 80.875 40.7109C81.1771 40.8828 81.5521 40.9688 82 40.9688ZM88.5625 30V42H87.1094V30H88.5625ZM92.4531 33.5469V42H91V33.5469H92.4531ZM90.8906 31.3047C90.8906 31.0703 90.9609 30.8724 91.1016 30.7109C91.2474 30.5495 91.4609 30.4688 91.7422 30.4688C92.0182 30.4688 92.2292 30.5495 92.375 30.7109C92.526 30.8724 92.6016 31.0703 92.6016 31.3047C92.6016 31.5286 92.526 31.7214 92.375 31.8828C92.2292 32.0391 92.0182 32.1172 91.7422 32.1172C91.4609 32.1172 91.2474 32.0391 91.1016 31.8828C90.9609 31.7214 90.8906 31.5286 90.8906 31.3047ZM98.1562 40.9688C98.5 40.9688 98.8177 40.8984 99.1094 40.7578C99.401 40.6172 99.6406 40.4245 99.8281 40.1797C100.016 39.9297 100.122 39.6458 100.148 39.3281H101.523C101.497 39.8281 101.328 40.2943 101.016 40.7266C100.708 41.1536 100.305 41.5 99.8047 41.7656C99.3047 42.026 98.7552 42.1562 98.1562 42.1562C97.5208 42.1562 96.9661 42.0443 96.4922 41.8203C96.0234 41.5964 95.6328 41.2891 95.3203 40.8984C95.013 40.5078 94.7812 40.0599 94.625 39.5547C94.474 39.0443 94.3984 38.5052 94.3984 37.9375V37.6094C94.3984 37.0417 94.474 36.5052 94.625 36C94.7812 35.4896 95.013 35.0391 95.3203 34.6484C95.6328 34.2578 96.0234 33.9505 96.4922 33.7266C96.9661 33.5026 97.5208 33.3906 98.1562 33.3906C98.8177 33.3906 99.3958 33.526 99.8906 33.7969C100.385 34.0625 100.773 34.4271 101.055 34.8906C101.341 35.349 101.497 35.8698 101.523 36.4531H100.148C100.122 36.1042 100.023 35.7891 99.8516 35.5078C99.6849 35.2266 99.4557 35.0026 99.1641 34.8359C98.8776 34.6641 98.5417 34.5781 98.1562 34.5781C97.7135 34.5781 97.3411 34.6667 97.0391 34.8438C96.7422 35.0156 96.5052 35.25 96.3281 35.5469C96.1562 35.8385 96.0312 36.1641 95.9531 36.5234C95.8802 36.8776 95.8438 37.2396 95.8438 37.6094V37.9375C95.8438 38.3073 95.8802 38.6719 95.9531 39.0312C96.026 39.3906 96.1484 39.7161 96.3203 40.0078C96.4974 40.2995 96.7344 40.5339 97.0312 40.7109C97.3333 40.8828 97.7083 40.9688 98.1562 40.9688ZM104.602 30V42H103.148V30H104.602ZM109.766 33.5469L106.078 37.4922L104.016 39.6328L103.898 38.0938L105.375 36.3281L108 33.5469H109.766ZM108.445 42L105.43 37.9688L106.18 36.6797L110.148 42H108.445ZM112.828 33.5469V42H111.375V33.5469H112.828ZM111.266 31.3047C111.266 31.0703 111.336 30.8724 111.477 30.7109C111.622 30.5495 111.836 30.4688 112.117 30.4688C112.393 30.4688 112.604 30.5495 112.75 30.7109C112.901 30.8724 112.977 31.0703 112.977 31.3047C112.977 31.5286 112.901 31.7214 112.75 31.8828C112.604 32.0391 112.393 32.1172 112.117 32.1172C111.836 32.1172 111.622 32.0391 111.477 31.8828C111.336 31.7214 111.266 31.5286 111.266 31.3047ZM116.594 35.3516V42H115.148V33.5469H116.516L116.594 35.3516ZM116.25 37.4531L115.648 37.4297C115.654 36.8516 115.74 36.3177 115.906 35.8281C116.073 35.3333 116.307 34.9036 116.609 34.5391C116.911 34.1745 117.271 33.8932 117.688 33.6953C118.109 33.4922 118.576 33.3906 119.086 33.3906C119.503 33.3906 119.878 33.4479 120.211 33.5625C120.544 33.6719 120.828 33.849 121.062 34.0938C121.302 34.3385 121.484 34.6562 121.609 35.0469C121.734 35.4323 121.797 35.9036 121.797 36.4609V42H120.344V36.4453C120.344 36.0026 120.279 35.6484 120.148 35.3828C120.018 35.112 119.828 34.9167 119.578 34.7969C119.328 34.6719 119.021 34.6094 118.656 34.6094C118.297 34.6094 117.969 34.6849 117.672 34.8359C117.38 34.987 117.128 35.1953 116.914 35.4609C116.706 35.7266 116.542 36.0312 116.422 36.375C116.307 36.7135 116.25 37.0729 116.25 37.4531ZM129.469 33.5469H130.781V41.8203C130.781 42.5651 130.63 43.2005 130.328 43.7266C130.026 44.2526 129.604 44.651 129.062 44.9219C128.526 45.1979 127.906 45.3359 127.203 45.3359C126.911 45.3359 126.568 45.2891 126.172 45.1953C125.781 45.1068 125.396 44.9531 125.016 44.7344C124.641 44.5208 124.326 44.2318 124.07 43.8672L124.828 43.0078C125.182 43.4349 125.552 43.7318 125.938 43.8984C126.328 44.0651 126.714 44.1484 127.094 44.1484C127.552 44.1484 127.948 44.0625 128.281 43.8906C128.615 43.7188 128.872 43.4635 129.055 43.125C129.242 42.7917 129.336 42.3802 129.336 41.8906V35.4062L129.469 33.5469ZM123.648 37.8672V37.7031C123.648 37.0573 123.724 36.4714 123.875 35.9453C124.031 35.4141 124.253 34.9583 124.539 34.5781C124.831 34.1979 125.182 33.9062 125.594 33.7031C126.005 33.4948 126.469 33.3906 126.984 33.3906C127.516 33.3906 127.979 33.4844 128.375 33.6719C128.776 33.8542 129.115 34.1224 129.391 34.4766C129.672 34.8255 129.893 35.2474 130.055 35.7422C130.216 36.237 130.328 36.7969 130.391 37.4219V38.1406C130.333 38.7604 130.221 39.3177 130.055 39.8125C129.893 40.3073 129.672 40.7292 129.391 41.0781C129.115 41.4271 128.776 41.6953 128.375 41.8828C127.974 42.0651 127.505 42.1562 126.969 42.1562C126.464 42.1562 126.005 42.0495 125.594 41.8359C125.188 41.6224 124.839 41.3229 124.547 40.9375C124.255 40.5521 124.031 40.099 123.875 39.5781C123.724 39.0521 123.648 38.4818 123.648 37.8672ZM125.094 37.7031V37.8672C125.094 38.2891 125.135 38.6849 125.219 39.0547C125.307 39.4245 125.44 39.75 125.617 40.0312C125.799 40.3125 126.031 40.5339 126.312 40.6953C126.594 40.8516 126.93 40.9297 127.32 40.9297C127.799 40.9297 128.195 40.8281 128.508 40.625C128.82 40.4219 129.068 40.1536 129.25 39.8203C129.438 39.487 129.583 39.125 129.688 38.7344V36.8516C129.63 36.5651 129.542 36.2891 129.422 36.0234C129.307 35.7526 129.156 35.513 128.969 35.3047C128.786 35.0911 128.56 34.9219 128.289 34.7969C128.018 34.6719 127.701 34.6094 127.336 34.6094C126.94 34.6094 126.599 34.6927 126.312 34.8594C126.031 35.0208 125.799 35.2448 125.617 35.5312C125.44 35.8125 125.307 36.1406 125.219 36.5156C125.135 36.8854 125.094 37.2812 125.094 37.7031ZM136.562 37.8672V37.6875C136.562 37.0781 136.651 36.513 136.828 35.9922C137.005 35.4661 137.26 35.0104 137.594 34.625C137.927 34.2344 138.331 33.9323 138.805 33.7188C139.279 33.5 139.81 33.3906 140.398 33.3906C140.992 33.3906 141.526 33.5 142 33.7188C142.479 33.9323 142.885 34.2344 143.219 34.625C143.557 35.0104 143.815 35.4661 143.992 35.9922C144.169 36.513 144.258 37.0781 144.258 37.6875V37.8672C144.258 38.4766 144.169 39.0417 143.992 39.5625C143.815 40.0833 143.557 40.5391 143.219 40.9297C142.885 41.3151 142.482 41.6172 142.008 41.8359C141.539 42.0495 141.008 42.1562 140.414 42.1562C139.82 42.1562 139.286 42.0495 138.812 41.8359C138.339 41.6172 137.932 41.3151 137.594 40.9297C137.26 40.5391 137.005 40.0833 136.828 39.5625C136.651 39.0417 136.562 38.4766 136.562 37.8672ZM138.008 37.6875V37.8672C138.008 38.2891 138.057 38.6875 138.156 39.0625C138.255 39.4323 138.404 39.7604 138.602 40.0469C138.805 40.3333 139.057 40.5599 139.359 40.7266C139.661 40.888 140.013 40.9688 140.414 40.9688C140.81 40.9688 141.156 40.888 141.453 40.7266C141.755 40.5599 142.005 40.3333 142.203 40.0469C142.401 39.7604 142.549 39.4323 142.648 39.0625C142.753 38.6875 142.805 38.2891 142.805 37.8672V37.6875C142.805 37.2708 142.753 36.8776 142.648 36.5078C142.549 36.1328 142.398 35.8021 142.195 35.5156C141.997 35.224 141.747 34.9948 141.445 34.8281C141.148 34.6615 140.799 34.5781 140.398 34.5781C140.003 34.5781 139.654 34.6615 139.352 34.8281C139.055 34.9948 138.805 35.224 138.602 35.5156C138.404 35.8021 138.255 36.1328 138.156 36.5078C138.057 36.8776 138.008 37.2708 138.008 37.6875ZM147.516 35.3516V42H146.07V33.5469H147.438L147.516 35.3516ZM147.172 37.4531L146.57 37.4297C146.576 36.8516 146.661 36.3177 146.828 35.8281C146.995 35.3333 147.229 34.9036 147.531 34.5391C147.833 34.1745 148.193 33.8932 148.609 33.6953C149.031 33.4922 149.497 33.3906 150.008 33.3906C150.424 33.3906 150.799 33.4479 151.133 33.5625C151.466 33.6719 151.75 33.849 151.984 34.0938C152.224 34.3385 152.406 34.6562 152.531 35.0469C152.656 35.4323 152.719 35.9036 152.719 36.4609V42H151.266V36.4453C151.266 36.0026 151.201 35.6484 151.07 35.3828C150.94 35.112 150.75 34.9167 150.5 34.7969C150.25 34.6719 149.943 34.6094 149.578 34.6094C149.219 34.6094 148.891 34.6849 148.594 34.8359C148.302 34.987 148.049 35.1953 147.836 35.4609C147.628 35.7266 147.464 36.0312 147.344 36.375C147.229 36.7135 147.172 37.0729 147.172 37.4531ZM159.102 30.625H162.867C163.721 30.625 164.443 30.7552 165.031 31.0156C165.625 31.276 166.076 31.6615 166.383 32.1719C166.695 32.6771 166.852 33.2995 166.852 34.0391C166.852 34.5599 166.745 35.0365 166.531 35.4688C166.323 35.8958 166.021 36.2604 165.625 36.5625C165.234 36.8594 164.766 37.0807 164.219 37.2266L163.797 37.3906H160.258L160.242 36.1641H162.914C163.456 36.1641 163.906 36.0703 164.266 35.8828C164.625 35.6901 164.896 35.4323 165.078 35.1094C165.26 34.7865 165.352 34.4297 165.352 34.0391C165.352 33.6016 165.266 33.2188 165.094 32.8906C164.922 32.5625 164.651 32.3099 164.281 32.1328C163.917 31.9505 163.445 31.8594 162.867 31.8594H160.609V42H159.102V30.625ZM165.75 42L162.984 36.8438L164.555 36.8359L167.359 41.9062V42H165.75ZM172.25 42.1562C171.661 42.1562 171.128 42.0573 170.648 41.8594C170.174 41.6562 169.766 41.3724 169.422 41.0078C169.083 40.6432 168.823 40.2109 168.641 39.7109C168.458 39.2109 168.367 38.6641 168.367 38.0703V37.7422C168.367 37.0547 168.469 36.4427 168.672 35.9062C168.875 35.3646 169.151 34.9062 169.5 34.5312C169.849 34.1562 170.245 33.8724 170.688 33.6797C171.13 33.487 171.589 33.3906 172.062 33.3906C172.667 33.3906 173.188 33.4948 173.625 33.7031C174.068 33.9115 174.43 34.2031 174.711 34.5781C174.992 34.9479 175.201 35.3854 175.336 35.8906C175.471 36.3906 175.539 36.9375 175.539 37.5312V38.1797H169.227V37H174.094V36.8906C174.073 36.5156 173.995 36.151 173.859 35.7969C173.729 35.4427 173.521 35.151 173.234 34.9219C172.948 34.6927 172.557 34.5781 172.062 34.5781C171.734 34.5781 171.432 34.6484 171.156 34.7891C170.88 34.9245 170.643 35.1276 170.445 35.3984C170.247 35.6693 170.094 36 169.984 36.3906C169.875 36.7812 169.82 37.2318 169.82 37.7422V38.0703C169.82 38.4714 169.875 38.849 169.984 39.2031C170.099 39.5521 170.263 39.8594 170.477 40.125C170.695 40.3906 170.958 40.599 171.266 40.75C171.578 40.901 171.932 40.9766 172.328 40.9766C172.839 40.9766 173.271 40.8724 173.625 40.6641C173.979 40.4557 174.289 40.1771 174.555 39.8281L175.43 40.5234C175.247 40.7995 175.016 41.0625 174.734 41.3125C174.453 41.5625 174.107 41.7656 173.695 41.9219C173.289 42.0781 172.807 42.1562 172.25 42.1562ZM182.148 39.7578C182.148 39.5495 182.102 39.3568 182.008 39.1797C181.919 38.9974 181.734 38.8333 181.453 38.6875C181.177 38.5365 180.76 38.4062 180.203 38.2969C179.734 38.1979 179.31 38.0807 178.93 37.9453C178.555 37.8099 178.234 37.6458 177.969 37.4531C177.708 37.2604 177.508 37.0339 177.367 36.7734C177.227 36.513 177.156 36.2083 177.156 35.8594C177.156 35.526 177.229 35.2109 177.375 34.9141C177.526 34.6172 177.737 34.3542 178.008 34.125C178.284 33.8958 178.615 33.7161 179 33.5859C179.385 33.4557 179.815 33.3906 180.289 33.3906C180.966 33.3906 181.544 33.5104 182.023 33.75C182.503 33.9896 182.87 34.3099 183.125 34.7109C183.38 35.1068 183.508 35.5469 183.508 36.0312H182.062C182.062 35.7969 181.992 35.5703 181.852 35.3516C181.716 35.1276 181.516 34.9427 181.25 34.7969C180.99 34.651 180.669 34.5781 180.289 34.5781C179.888 34.5781 179.562 34.6406 179.312 34.7656C179.068 34.8854 178.888 35.0391 178.773 35.2266C178.664 35.4141 178.609 35.612 178.609 35.8203C178.609 35.9766 178.635 36.1172 178.688 36.2422C178.745 36.362 178.844 36.474 178.984 36.5781C179.125 36.6771 179.323 36.7708 179.578 36.8594C179.833 36.9479 180.159 37.0365 180.555 37.125C181.247 37.2812 181.818 37.4688 182.266 37.6875C182.714 37.9062 183.047 38.1745 183.266 38.4922C183.484 38.8099 183.594 39.1953 183.594 39.6484C183.594 40.0182 183.516 40.3568 183.359 40.6641C183.208 40.9714 182.987 41.237 182.695 41.4609C182.409 41.6797 182.065 41.8516 181.664 41.9766C181.268 42.0964 180.823 42.1562 180.328 42.1562C179.583 42.1562 178.953 42.0234 178.438 41.7578C177.922 41.4922 177.531 41.1484 177.266 40.7266C177 40.3047 176.867 39.8594 176.867 39.3906H178.32C178.341 39.7865 178.456 40.1016 178.664 40.3359C178.872 40.5651 179.128 40.7292 179.43 40.8281C179.732 40.9219 180.031 40.9688 180.328 40.9688C180.724 40.9688 181.055 40.9167 181.32 40.8125C181.591 40.7083 181.797 40.5651 181.938 40.3828C182.078 40.2005 182.148 39.9922 182.148 39.7578ZM189.031 33.5469V34.6562H184.461V33.5469H189.031ZM186.008 31.4922H187.453V39.9062C187.453 40.1927 187.497 40.4089 187.586 40.5547C187.674 40.7005 187.789 40.7969 187.93 40.8438C188.07 40.8906 188.221 40.9141 188.383 40.9141C188.503 40.9141 188.628 40.9036 188.758 40.8828C188.893 40.8568 188.995 40.8359 189.062 40.8203L189.07 42C188.956 42.0365 188.805 42.0703 188.617 42.1016C188.435 42.138 188.214 42.1562 187.953 42.1562C187.599 42.1562 187.273 42.0859 186.977 41.9453C186.68 41.8047 186.443 41.5703 186.266 41.2422C186.094 40.9089 186.008 40.4609 186.008 39.8984V31.4922ZM190.188 37.8672V37.6875C190.188 37.0781 190.276 36.513 190.453 35.9922C190.63 35.4661 190.885 35.0104 191.219 34.625C191.552 34.2344 191.956 33.9323 192.43 33.7188C192.904 33.5 193.435 33.3906 194.023 33.3906C194.617 33.3906 195.151 33.5 195.625 33.7188C196.104 33.9323 196.51 34.2344 196.844 34.625C197.182 35.0104 197.44 35.4661 197.617 35.9922C197.794 36.513 197.883 37.0781 197.883 37.6875V37.8672C197.883 38.4766 197.794 39.0417 197.617 39.5625C197.44 40.0833 197.182 40.5391 196.844 40.9297C196.51 41.3151 196.107 41.6172 195.633 41.8359C195.164 42.0495 194.633 42.1562 194.039 42.1562C193.445 42.1562 192.911 42.0495 192.438 41.8359C191.964 41.6172 191.557 41.3151 191.219 40.9297C190.885 40.5391 190.63 40.0833 190.453 39.5625C190.276 39.0417 190.188 38.4766 190.188 37.8672ZM191.633 37.6875V37.8672C191.633 38.2891 191.682 38.6875 191.781 39.0625C191.88 39.4323 192.029 39.7604 192.227 40.0469C192.43 40.3333 192.682 40.5599 192.984 40.7266C193.286 40.888 193.638 40.9688 194.039 40.9688C194.435 40.9688 194.781 40.888 195.078 40.7266C195.38 40.5599 195.63 40.3333 195.828 40.0469C196.026 39.7604 196.174 39.4323 196.273 39.0625C196.378 38.6875 196.43 38.2891 196.43 37.8672V37.6875C196.43 37.2708 196.378 36.8776 196.273 36.5078C196.174 36.1328 196.023 35.8021 195.82 35.5156C195.622 35.224 195.372 34.9948 195.07 34.8281C194.773 34.6615 194.424 34.5781 194.023 34.5781C193.628 34.5781 193.279 34.6615 192.977 34.8281C192.68 34.9948 192.43 35.224 192.227 35.5156C192.029 35.8021 191.88 36.1328 191.781 36.5078C191.682 36.8776 191.633 37.2708 191.633 37.6875ZM201.141 34.875V42H199.695V33.5469H201.102L201.141 34.875ZM203.781 33.5L203.773 34.8438C203.654 34.8177 203.539 34.8021 203.43 34.7969C203.326 34.7865 203.206 34.7812 203.07 34.7812C202.737 34.7812 202.443 34.8333 202.188 34.9375C201.932 35.0417 201.716 35.1875 201.539 35.375C201.362 35.5625 201.221 35.7865 201.117 36.0469C201.018 36.3021 200.953 36.5833 200.922 36.8906L200.516 37.125C200.516 36.6146 200.565 36.1354 200.664 35.6875C200.768 35.2396 200.927 34.8438 201.141 34.5C201.354 34.151 201.625 33.8802 201.953 33.6875C202.286 33.4896 202.682 33.3906 203.141 33.3906C203.245 33.3906 203.365 33.4036 203.5 33.4297C203.635 33.4505 203.729 33.474 203.781 33.5ZM208.469 42.1562C207.88 42.1562 207.346 42.0573 206.867 41.8594C206.393 41.6562 205.984 41.3724 205.641 41.0078C205.302 40.6432 205.042 40.2109 204.859 39.7109C204.677 39.2109 204.586 38.6641 204.586 38.0703V37.7422C204.586 37.0547 204.688 36.4427 204.891 35.9062C205.094 35.3646 205.37 34.9062 205.719 34.5312C206.068 34.1562 206.464 33.8724 206.906 33.6797C207.349 33.487 207.807 33.3906 208.281 33.3906C208.885 33.3906 209.406 33.4948 209.844 33.7031C210.286 33.9115 210.648 34.2031 210.93 34.5781C211.211 34.9479 211.419 35.3854 211.555 35.8906C211.69 36.3906 211.758 36.9375 211.758 37.5312V38.1797H205.445V37H210.312V36.8906C210.292 36.5156 210.214 36.151 210.078 35.7969C209.948 35.4427 209.74 35.151 209.453 34.9219C209.167 34.6927 208.776 34.5781 208.281 34.5781C207.953 34.5781 207.651 34.6484 207.375 34.7891C207.099 34.9245 206.862 35.1276 206.664 35.3984C206.466 35.6693 206.312 36 206.203 36.3906C206.094 36.7812 206.039 37.2318 206.039 37.7422V38.0703C206.039 38.4714 206.094 38.849 206.203 39.2031C206.318 39.5521 206.482 39.8594 206.695 40.125C206.914 40.3906 207.177 40.599 207.484 40.75C207.797 40.901 208.151 40.9766 208.547 40.9766C209.057 40.9766 209.49 40.8724 209.844 40.6641C210.198 40.4557 210.508 40.1771 210.773 39.8281L211.648 40.5234C211.466 40.7995 211.234 41.0625 210.953 41.3125C210.672 41.5625 210.326 41.7656 209.914 41.9219C209.508 42.0781 209.026 42.1562 208.469 42.1562ZM214.758 40.2812V41.4453C214.758 41.9193 214.638 42.4193 214.398 42.9453C214.159 43.4766 213.823 43.9193 213.391 44.2734L212.57 43.7031C212.737 43.474 212.878 43.2396 212.992 43C213.107 42.7656 213.193 42.5208 213.25 42.2656C213.312 42.0156 213.344 41.75 213.344 41.4688V40.2812H214.758ZM224.109 33.5469V34.6562H219.539V33.5469H224.109ZM221.086 31.4922H222.531V39.9062C222.531 40.1927 222.576 40.4089 222.664 40.5547C222.753 40.7005 222.867 40.7969 223.008 40.8438C223.148 40.8906 223.299 40.9141 223.461 40.9141C223.581 40.9141 223.706 40.9036 223.836 40.8828C223.971 40.8568 224.073 40.8359 224.141 40.8203L224.148 42C224.034 42.0365 223.883 42.0703 223.695 42.1016C223.513 42.138 223.292 42.1562 223.031 42.1562C222.677 42.1562 222.352 42.0859 222.055 41.9453C221.758 41.8047 221.521 41.5703 221.344 41.2422C221.172 40.9089 221.086 40.4609 221.086 39.8984V31.4922ZM227.25 30V42H225.805V30H227.25ZM226.906 37.4531L226.305 37.4297C226.31 36.8516 226.396 36.3177 226.562 35.8281C226.729 35.3333 226.964 34.9036 227.266 34.5391C227.568 34.1745 227.927 33.8932 228.344 33.6953C228.766 33.4922 229.232 33.3906 229.742 33.3906C230.159 33.3906 230.534 33.4479 230.867 33.5625C231.201 33.6719 231.484 33.849 231.719 34.0938C231.958 34.3385 232.141 34.6562 232.266 35.0469C232.391 35.4323 232.453 35.9036 232.453 36.4609V42H231V36.4453C231 36.0026 230.935 35.6484 230.805 35.3828C230.674 35.112 230.484 34.9167 230.234 34.7969C229.984 34.6719 229.677 34.6094 229.312 34.6094C228.953 34.6094 228.625 34.6849 228.328 34.8359C228.036 34.987 227.784 35.1953 227.57 35.4609C227.362 35.7266 227.198 36.0312 227.078 36.375C226.964 36.7135 226.906 37.0729 226.906 37.4531ZM236.188 33.5469V42H234.734V33.5469H236.188ZM234.625 31.3047C234.625 31.0703 234.695 30.8724 234.836 30.7109C234.982 30.5495 235.195 30.4688 235.477 30.4688C235.753 30.4688 235.964 30.5495 236.109 30.7109C236.26 30.8724 236.336 31.0703 236.336 31.3047C236.336 31.5286 236.26 31.7214 236.109 31.8828C235.964 32.0391 235.753 32.1172 235.477 32.1172C235.195 32.1172 234.982 32.0391 234.836 31.8828C234.695 31.7214 234.625 31.5286 234.625 31.3047ZM243.43 39.7578C243.43 39.5495 243.383 39.3568 243.289 39.1797C243.201 38.9974 243.016 38.8333 242.734 38.6875C242.458 38.5365 242.042 38.4062 241.484 38.2969C241.016 38.1979 240.591 38.0807 240.211 37.9453C239.836 37.8099 239.516 37.6458 239.25 37.4531C238.99 37.2604 238.789 37.0339 238.648 36.7734C238.508 36.513 238.438 36.2083 238.438 35.8594C238.438 35.526 238.51 35.2109 238.656 34.9141C238.807 34.6172 239.018 34.3542 239.289 34.125C239.565 33.8958 239.896 33.7161 240.281 33.5859C240.667 33.4557 241.096 33.3906 241.57 33.3906C242.247 33.3906 242.826 33.5104 243.305 33.75C243.784 33.9896 244.151 34.3099 244.406 34.7109C244.661 35.1068 244.789 35.5469 244.789 36.0312H243.344C243.344 35.7969 243.273 35.5703 243.133 35.3516C242.997 35.1276 242.797 34.9427 242.531 34.7969C242.271 34.651 241.951 34.5781 241.57 34.5781C241.169 34.5781 240.844 34.6406 240.594 34.7656C240.349 34.8854 240.169 35.0391 240.055 35.2266C239.945 35.4141 239.891 35.612 239.891 35.8203C239.891 35.9766 239.917 36.1172 239.969 36.2422C240.026 36.362 240.125 36.474 240.266 36.5781C240.406 36.6771 240.604 36.7708 240.859 36.8594C241.115 36.9479 241.44 37.0365 241.836 37.125C242.529 37.2812 243.099 37.4688 243.547 37.6875C243.995 37.9062 244.328 38.1745 244.547 38.4922C244.766 38.8099 244.875 39.1953 244.875 39.6484C244.875 40.0182 244.797 40.3568 244.641 40.6641C244.49 40.9714 244.268 41.237 243.977 41.4609C243.69 41.6797 243.346 41.8516 242.945 41.9766C242.549 42.0964 242.104 42.1562 241.609 42.1562C240.865 42.1562 240.234 42.0234 239.719 41.7578C239.203 41.4922 238.812 41.1484 238.547 40.7266C238.281 40.3047 238.148 39.8594 238.148 39.3906H239.602C239.622 39.7865 239.737 40.1016 239.945 40.3359C240.154 40.5651 240.409 40.7292 240.711 40.8281C241.013 40.9219 241.312 40.9688 241.609 40.9688C242.005 40.9688 242.336 40.9167 242.602 40.8125C242.872 40.7083 243.078 40.5651 243.219 40.3828C243.359 40.2005 243.43 39.9922 243.43 39.7578ZM252.898 42H251.453V32.6562C251.453 32.0469 251.562 31.5339 251.781 31.1172C252.005 30.6953 252.326 30.3776 252.742 30.1641C253.159 29.9453 253.654 29.8359 254.227 29.8359C254.393 29.8359 254.56 29.8464 254.727 29.8672C254.898 29.888 255.065 29.9193 255.227 29.9609L255.148 31.1406C255.039 31.1146 254.914 31.0964 254.773 31.0859C254.638 31.0755 254.503 31.0703 254.367 31.0703C254.06 31.0703 253.794 31.1328 253.57 31.2578C253.352 31.3776 253.185 31.5547 253.07 31.7891C252.956 32.0234 252.898 32.3125 252.898 32.6562V42ZM254.695 33.5469V34.6562H250.117V33.5469H254.695ZM257.875 33.5469V42H256.422V33.5469H257.875ZM256.312 31.3047C256.312 31.0703 256.383 30.8724 256.523 30.7109C256.669 30.5495 256.883 30.4688 257.164 30.4688C257.44 30.4688 257.651 30.5495 257.797 30.7109C257.948 30.8724 258.023 31.0703 258.023 31.3047C258.023 31.5286 257.948 31.7214 257.797 31.8828C257.651 32.0391 257.44 32.1172 257.164 32.1172C256.883 32.1172 256.669 32.0391 256.523 31.8828C256.383 31.7214 256.312 31.5286 256.312 31.3047ZM261.766 30V42H260.312V30H261.766ZM267.594 42.1562C267.005 42.1562 266.471 42.0573 265.992 41.8594C265.518 41.6562 265.109 41.3724 264.766 41.0078C264.427 40.6432 264.167 40.2109 263.984 39.7109C263.802 39.2109 263.711 38.6641 263.711 38.0703V37.7422C263.711 37.0547 263.812 36.4427 264.016 35.9062C264.219 35.3646 264.495 34.9062 264.844 34.5312C265.193 34.1562 265.589 33.8724 266.031 33.6797C266.474 33.487 266.932 33.3906 267.406 33.3906C268.01 33.3906 268.531 33.4948 268.969 33.7031C269.411 33.9115 269.773 34.2031 270.055 34.5781C270.336 34.9479 270.544 35.3854 270.68 35.8906C270.815 36.3906 270.883 36.9375 270.883 37.5312V38.1797H264.57V37H269.438V36.8906C269.417 36.5156 269.339 36.151 269.203 35.7969C269.073 35.4427 268.865 35.151 268.578 34.9219C268.292 34.6927 267.901 34.5781 267.406 34.5781C267.078 34.5781 266.776 34.6484 266.5 34.7891C266.224 34.9245 265.987 35.1276 265.789 35.3984C265.591 35.6693 265.438 36 265.328 36.3906C265.219 36.7812 265.164 37.2318 265.164 37.7422V38.0703C265.164 38.4714 265.219 38.849 265.328 39.2031C265.443 39.5521 265.607 39.8594 265.82 40.125C266.039 40.3906 266.302 40.599 266.609 40.75C266.922 40.901 267.276 40.9766 267.672 40.9766C268.182 40.9766 268.615 40.8724 268.969 40.6641C269.323 40.4557 269.633 40.1771 269.898 39.8281L270.773 40.5234C270.591 40.7995 270.359 41.0625 270.078 41.3125C269.797 41.5625 269.451 41.7656 269.039 41.9219C268.633 42.0781 268.151 42.1562 267.594 42.1562ZM278.68 40.5L280.852 33.5469H281.805L281.617 34.9297L279.406 42H278.477L278.68 40.5ZM277.219 33.5469L279.07 40.5781L279.203 42H278.227L275.773 33.5469H277.219ZM283.883 40.5234L285.648 33.5469H287.086L284.633 42H283.664L283.883 40.5234ZM282.016 33.5469L284.141 40.3828L284.383 42H283.461L281.188 34.9141L281 33.5469H282.016ZM290.141 33.5469V42H288.688V33.5469H290.141ZM288.578 31.3047C288.578 31.0703 288.648 30.8724 288.789 30.7109C288.935 30.5495 289.148 30.4688 289.43 30.4688C289.706 30.4688 289.917 30.5495 290.062 30.7109C290.214 30.8724 290.289 31.0703 290.289 31.3047C290.289 31.5286 290.214 31.7214 290.062 31.8828C289.917 32.0391 289.706 32.1172 289.43 32.1172C289.148 32.1172 288.935 32.0391 288.789 31.8828C288.648 31.7214 288.578 31.5286 288.578 31.3047ZM294.031 30V42H292.578V30H294.031ZM297.922 30V42H296.469V30H297.922ZM304.203 30H305.656V40.3594L305.531 42H304.203V30ZM311.367 37.7031V37.8672C311.367 38.4818 311.294 39.0521 311.148 39.5781C311.003 40.099 310.789 40.5521 310.508 40.9375C310.227 41.3229 309.883 41.6224 309.477 41.8359C309.07 42.0495 308.604 42.1562 308.078 42.1562C307.542 42.1562 307.07 42.0651 306.664 41.8828C306.263 41.6953 305.924 41.4271 305.648 41.0781C305.372 40.7292 305.151 40.3073 304.984 39.8125C304.823 39.3177 304.711 38.7604 304.648 38.1406V37.4219C304.711 36.7969 304.823 36.237 304.984 35.7422C305.151 35.2474 305.372 34.8255 305.648 34.4766C305.924 34.1224 306.263 33.8542 306.664 33.6719C307.065 33.4844 307.531 33.3906 308.062 33.3906C308.594 33.3906 309.065 33.4948 309.477 33.7031C309.888 33.9062 310.232 34.1979 310.508 34.5781C310.789 34.9583 311.003 35.4141 311.148 35.9453C311.294 36.4714 311.367 37.0573 311.367 37.7031ZM309.914 37.8672V37.7031C309.914 37.2812 309.875 36.8854 309.797 36.5156C309.719 36.1406 309.594 35.8125 309.422 35.5312C309.25 35.2448 309.023 35.0208 308.742 34.8594C308.461 34.6927 308.115 34.6094 307.703 34.6094C307.339 34.6094 307.021 34.6719 306.75 34.7969C306.484 34.9219 306.258 35.0911 306.07 35.3047C305.883 35.513 305.729 35.7526 305.609 36.0234C305.495 36.2891 305.409 36.5651 305.352 36.8516V38.7344C305.435 39.099 305.57 39.4505 305.758 39.7891C305.951 40.1224 306.206 40.3958 306.523 40.6094C306.846 40.8229 307.245 40.9297 307.719 40.9297C308.109 40.9297 308.443 40.8516 308.719 40.6953C309 40.5339 309.227 40.3125 309.398 40.0312C309.576 39.75 309.706 39.4245 309.789 39.0547C309.872 38.6849 309.914 38.2891 309.914 37.8672ZM316.703 42.1562C316.115 42.1562 315.581 42.0573 315.102 41.8594C314.628 41.6562 314.219 41.3724 313.875 41.0078C313.536 40.6432 313.276 40.2109 313.094 39.7109C312.911 39.2109 312.82 38.6641 312.82 38.0703V37.7422C312.82 37.0547 312.922 36.4427 313.125 35.9062C313.328 35.3646 313.604 34.9062 313.953 34.5312C314.302 34.1562 314.698 33.8724 315.141 33.6797C315.583 33.487 316.042 33.3906 316.516 33.3906C317.12 33.3906 317.641 33.4948 318.078 33.7031C318.521 33.9115 318.883 34.2031 319.164 34.5781C319.445 34.9479 319.654 35.3854 319.789 35.8906C319.924 36.3906 319.992 36.9375 319.992 37.5312V38.1797H313.68V37H318.547V36.8906C318.526 36.5156 318.448 36.151 318.312 35.7969C318.182 35.4427 317.974 35.151 317.688 34.9219C317.401 34.6927 317.01 34.5781 316.516 34.5781C316.188 34.5781 315.885 34.6484 315.609 34.7891C315.333 34.9245 315.096 35.1276 314.898 35.3984C314.701 35.6693 314.547 36 314.438 36.3906C314.328 36.7812 314.273 37.2318 314.273 37.7422V38.0703C314.273 38.4714 314.328 38.849 314.438 39.2031C314.552 39.5521 314.716 39.8594 314.93 40.125C315.148 40.3906 315.411 40.599 315.719 40.75C316.031 40.901 316.385 40.9766 316.781 40.9766C317.292 40.9766 317.724 40.8724 318.078 40.6641C318.432 40.4557 318.742 40.1771 319.008 39.8281L319.883 40.5234C319.701 40.7995 319.469 41.0625 319.188 41.3125C318.906 41.5625 318.56 41.7656 318.148 41.9219C317.742 42.0781 317.26 42.1562 316.703 42.1562ZM327.094 34.875V42H325.648V33.5469H327.055L327.094 34.875ZM329.734 33.5L329.727 34.8438C329.607 34.8177 329.492 34.8021 329.383 34.7969C329.279 34.7865 329.159 34.7812 329.023 34.7812C328.69 34.7812 328.396 34.8333 328.141 34.9375C327.885 35.0417 327.669 35.1875 327.492 35.375C327.315 35.5625 327.174 35.7865 327.07 36.0469C326.971 36.3021 326.906 36.5833 326.875 36.8906L326.469 37.125C326.469 36.6146 326.518 36.1354 326.617 35.6875C326.721 35.2396 326.88 34.8438 327.094 34.5C327.307 34.151 327.578 33.8802 327.906 33.6875C328.24 33.4896 328.635 33.3906 329.094 33.3906C329.198 33.3906 329.318 33.4036 329.453 33.4297C329.589 33.4505 329.682 33.474 329.734 33.5ZM334.422 42.1562C333.833 42.1562 333.299 42.0573 332.82 41.8594C332.346 41.6562 331.938 41.3724 331.594 41.0078C331.255 40.6432 330.995 40.2109 330.812 39.7109C330.63 39.2109 330.539 38.6641 330.539 38.0703V37.7422C330.539 37.0547 330.641 36.4427 330.844 35.9062C331.047 35.3646 331.323 34.9062 331.672 34.5312C332.021 34.1562 332.417 33.8724 332.859 33.6797C333.302 33.487 333.76 33.3906 334.234 33.3906C334.839 33.3906 335.359 33.4948 335.797 33.7031C336.24 33.9115 336.602 34.2031 336.883 34.5781C337.164 34.9479 337.372 35.3854 337.508 35.8906C337.643 36.3906 337.711 36.9375 337.711 37.5312V38.1797H331.398V37H336.266V36.8906C336.245 36.5156 336.167 36.151 336.031 35.7969C335.901 35.4427 335.693 35.151 335.406 34.9219C335.12 34.6927 334.729 34.5781 334.234 34.5781C333.906 34.5781 333.604 34.6484 333.328 34.7891C333.052 34.9245 332.815 35.1276 332.617 35.3984C332.419 35.6693 332.266 36 332.156 36.3906C332.047 36.7812 331.992 37.2318 331.992 37.7422V38.0703C331.992 38.4714 332.047 38.849 332.156 39.2031C332.271 39.5521 332.435 39.8594 332.648 40.125C332.867 40.3906 333.13 40.599 333.438 40.75C333.75 40.901 334.104 40.9766 334.5 40.9766C335.01 40.9766 335.443 40.8724 335.797 40.6641C336.151 40.4557 336.461 40.1771 336.727 39.8281L337.602 40.5234C337.419 40.7995 337.188 41.0625 336.906 41.3125C336.625 41.5625 336.279 41.7656 335.867 41.9219C335.461 42.0781 334.979 42.1562 334.422 42.1562ZM344.32 39.7578C344.32 39.5495 344.273 39.3568 344.18 39.1797C344.091 38.9974 343.906 38.8333 343.625 38.6875C343.349 38.5365 342.932 38.4062 342.375 38.2969C341.906 38.1979 341.482 38.0807 341.102 37.9453C340.727 37.8099 340.406 37.6458 340.141 37.4531C339.88 37.2604 339.68 37.0339 339.539 36.7734C339.398 36.513 339.328 36.2083 339.328 35.8594C339.328 35.526 339.401 35.2109 339.547 34.9141C339.698 34.6172 339.909 34.3542 340.18 34.125C340.456 33.8958 340.786 33.7161 341.172 33.5859C341.557 33.4557 341.987 33.3906 342.461 33.3906C343.138 33.3906 343.716 33.5104 344.195 33.75C344.674 33.9896 345.042 34.3099 345.297 34.7109C345.552 35.1068 345.68 35.5469 345.68 36.0312H344.234C344.234 35.7969 344.164 35.5703 344.023 35.3516C343.888 35.1276 343.688 34.9427 343.422 34.7969C343.161 34.651 342.841 34.5781 342.461 34.5781C342.06 34.5781 341.734 34.6406 341.484 34.7656C341.24 34.8854 341.06 35.0391 340.945 35.2266C340.836 35.4141 340.781 35.612 340.781 35.8203C340.781 35.9766 340.807 36.1172 340.859 36.2422C340.917 36.362 341.016 36.474 341.156 36.5781C341.297 36.6771 341.495 36.7708 341.75 36.8594C342.005 36.9479 342.331 37.0365 342.727 37.125C343.419 37.2812 343.99 37.4688 344.438 37.6875C344.885 37.9062 345.219 38.1745 345.438 38.4922C345.656 38.8099 345.766 39.1953 345.766 39.6484C345.766 40.0182 345.688 40.3568 345.531 40.6641C345.38 40.9714 345.159 41.237 344.867 41.4609C344.581 41.6797 344.237 41.8516 343.836 41.9766C343.44 42.0964 342.995 42.1562 342.5 42.1562C341.755 42.1562 341.125 42.0234 340.609 41.7578C340.094 41.4922 339.703 41.1484 339.438 40.7266C339.172 40.3047 339.039 39.8594 339.039 39.3906H340.492C340.513 39.7865 340.628 40.1016 340.836 40.3359C341.044 40.5651 341.299 40.7292 341.602 40.8281C341.904 40.9219 342.203 40.9688 342.5 40.9688C342.896 40.9688 343.227 40.9167 343.492 40.8125C343.763 40.7083 343.969 40.5651 344.109 40.3828C344.25 40.2005 344.32 39.9922 344.32 39.7578ZM351.203 33.5469V34.6562H346.633V33.5469H351.203ZM348.18 31.4922H349.625V39.9062C349.625 40.1927 349.669 40.4089 349.758 40.5547C349.846 40.7005 349.961 40.7969 350.102 40.8438C350.242 40.8906 350.393 40.9141 350.555 40.9141C350.674 40.9141 350.799 40.9036 350.93 40.8828C351.065 40.8568 351.167 40.8359 351.234 40.8203L351.242 42C351.128 42.0365 350.977 42.0703 350.789 42.1016C350.607 42.138 350.385 42.1562 350.125 42.1562C349.771 42.1562 349.445 42.0859 349.148 41.9453C348.852 41.8047 348.615 41.5703 348.438 41.2422C348.266 40.9089 348.18 40.4609 348.18 39.8984V31.4922ZM352.359 37.8672V37.6875C352.359 37.0781 352.448 36.513 352.625 35.9922C352.802 35.4661 353.057 35.0104 353.391 34.625C353.724 34.2344 354.128 33.9323 354.602 33.7188C355.076 33.5 355.607 33.3906 356.195 33.3906C356.789 33.3906 357.323 33.5 357.797 33.7188C358.276 33.9323 358.682 34.2344 359.016 34.625C359.354 35.0104 359.612 35.4661 359.789 35.9922C359.966 36.513 360.055 37.0781 360.055 37.6875V37.8672C360.055 38.4766 359.966 39.0417 359.789 39.5625C359.612 40.0833 359.354 40.5391 359.016 40.9297C358.682 41.3151 358.279 41.6172 357.805 41.8359C357.336 42.0495 356.805 42.1562 356.211 42.1562C355.617 42.1562 355.083 42.0495 354.609 41.8359C354.135 41.6172 353.729 41.3151 353.391 40.9297C353.057 40.5391 352.802 40.0833 352.625 39.5625C352.448 39.0417 352.359 38.4766 352.359 37.8672ZM353.805 37.6875V37.8672C353.805 38.2891 353.854 38.6875 353.953 39.0625C354.052 39.4323 354.201 39.7604 354.398 40.0469C354.602 40.3333 354.854 40.5599 355.156 40.7266C355.458 40.888 355.81 40.9688 356.211 40.9688C356.607 40.9688 356.953 40.888 357.25 40.7266C357.552 40.5599 357.802 40.3333 358 40.0469C358.198 39.7604 358.346 39.4323 358.445 39.0625C358.549 38.6875 358.602 38.2891 358.602 37.8672V37.6875C358.602 37.2708 358.549 36.8776 358.445 36.5078C358.346 36.1328 358.195 35.8021 357.992 35.5156C357.794 35.224 357.544 34.9948 357.242 34.8281C356.945 34.6615 356.596 34.5781 356.195 34.5781C355.799 34.5781 355.451 34.6615 355.148 34.8281C354.852 34.9948 354.602 35.224 354.398 35.5156C354.201 35.8021 354.052 36.1328 353.953 36.5078C353.854 36.8776 353.805 37.2708 353.805 37.6875ZM363.312 34.875V42H361.867V33.5469H363.273L363.312 34.875ZM365.953 33.5L365.945 34.8438C365.826 34.8177 365.711 34.8021 365.602 34.7969C365.497 34.7865 365.378 34.7812 365.242 34.7812C364.909 34.7812 364.615 34.8333 364.359 34.9375C364.104 35.0417 363.888 35.1875 363.711 35.375C363.534 35.5625 363.393 35.7865 363.289 36.0469C363.19 36.3021 363.125 36.5833 363.094 36.8906L362.688 37.125C362.688 36.6146 362.737 36.1354 362.836 35.6875C362.94 35.2396 363.099 34.8438 363.312 34.5C363.526 34.151 363.797 33.8802 364.125 33.6875C364.458 33.4896 364.854 33.3906 365.312 33.3906C365.417 33.3906 365.536 33.4036 365.672 33.4297C365.807 33.4505 365.901 33.474 365.953 33.5ZM370.641 42.1562C370.052 42.1562 369.518 42.0573 369.039 41.8594C368.565 41.6562 368.156 41.3724 367.812 41.0078C367.474 40.6432 367.214 40.2109 367.031 39.7109C366.849 39.2109 366.758 38.6641 366.758 38.0703V37.7422C366.758 37.0547 366.859 36.4427 367.062 35.9062C367.266 35.3646 367.542 34.9062 367.891 34.5312C368.24 34.1562 368.635 33.8724 369.078 33.6797C369.521 33.487 369.979 33.3906 370.453 33.3906C371.057 33.3906 371.578 33.4948 372.016 33.7031C372.458 33.9115 372.82 34.2031 373.102 34.5781C373.383 34.9479 373.591 35.3854 373.727 35.8906C373.862 36.3906 373.93 36.9375 373.93 37.5312V38.1797H367.617V37H372.484V36.8906C372.464 36.5156 372.385 36.151 372.25 35.7969C372.12 35.4427 371.911 35.151 371.625 34.9219C371.339 34.6927 370.948 34.5781 370.453 34.5781C370.125 34.5781 369.823 34.6484 369.547 34.7891C369.271 34.9245 369.034 35.1276 368.836 35.3984C368.638 35.6693 368.484 36 368.375 36.3906C368.266 36.7812 368.211 37.2318 368.211 37.7422V38.0703C368.211 38.4714 368.266 38.849 368.375 39.2031C368.49 39.5521 368.654 39.8594 368.867 40.125C369.086 40.3906 369.349 40.599 369.656 40.75C369.969 40.901 370.323 40.9766 370.719 40.9766C371.229 40.9766 371.661 40.8724 372.016 40.6641C372.37 40.4557 372.68 40.1771 372.945 39.8281L373.82 40.5234C373.638 40.7995 373.406 41.0625 373.125 41.3125C372.844 41.5625 372.497 41.7656 372.086 41.9219C371.68 42.0781 371.198 42.1562 370.641 42.1562ZM380.945 40.3594V30H382.398V42H381.07L380.945 40.3594ZM375.258 37.8672V37.7031C375.258 37.0573 375.336 36.4714 375.492 35.9453C375.654 35.4141 375.88 34.9583 376.172 34.5781C376.469 34.1979 376.82 33.9062 377.227 33.7031C377.638 33.4948 378.096 33.3906 378.602 33.3906C379.133 33.3906 379.596 33.4844 379.992 33.6719C380.393 33.8542 380.732 34.1224 381.008 34.4766C381.289 34.8255 381.51 35.2474 381.672 35.7422C381.833 36.237 381.945 36.7969 382.008 37.4219V38.1406C381.951 38.7604 381.839 39.3177 381.672 39.8125C381.51 40.3073 381.289 40.7292 381.008 41.0781C380.732 41.4271 380.393 41.6953 379.992 41.8828C379.591 42.0651 379.122 42.1562 378.586 42.1562C378.091 42.1562 377.638 42.0495 377.227 41.8359C376.82 41.6224 376.469 41.3229 376.172 40.9375C375.88 40.5521 375.654 40.099 375.492 39.5781C375.336 39.0521 375.258 38.4818 375.258 37.8672ZM376.711 37.7031V37.8672C376.711 38.2891 376.753 38.6849 376.836 39.0547C376.924 39.4245 377.06 39.75 377.242 40.0312C377.424 40.3125 377.656 40.5339 377.938 40.6953C378.219 40.8516 378.555 40.9297 378.945 40.9297C379.424 40.9297 379.818 40.8281 380.125 40.625C380.438 40.4219 380.688 40.1536 380.875 39.8203C381.062 39.487 381.208 39.125 381.312 38.7344V36.8516C381.25 36.5651 381.159 36.2891 381.039 36.0234C380.924 35.7526 380.773 35.513 380.586 35.3047C380.404 35.0911 380.177 34.9219 379.906 34.7969C379.641 34.6719 379.326 34.6094 378.961 34.6094C378.565 34.6094 378.224 34.6927 377.938 34.8594C377.656 35.0208 377.424 35.2448 377.242 35.5312C377.06 35.8125 376.924 36.1406 376.836 36.5156C376.753 36.8854 376.711 37.2812 376.711 37.7031ZM388.609 30H390.062V40.3594L389.938 42H388.609V30ZM395.773 37.7031V37.8672C395.773 38.4818 395.701 39.0521 395.555 39.5781C395.409 40.099 395.195 40.5521 394.914 40.9375C394.633 41.3229 394.289 41.6224 393.883 41.8359C393.477 42.0495 393.01 42.1562 392.484 42.1562C391.948 42.1562 391.477 42.0651 391.07 41.8828C390.669 41.6953 390.331 41.4271 390.055 41.0781C389.779 40.7292 389.557 40.3073 389.391 39.8125C389.229 39.3177 389.117 38.7604 389.055 38.1406V37.4219C389.117 36.7969 389.229 36.237 389.391 35.7422C389.557 35.2474 389.779 34.8255 390.055 34.4766C390.331 34.1224 390.669 33.8542 391.07 33.6719C391.471 33.4844 391.938 33.3906 392.469 33.3906C393 33.3906 393.471 33.4948 393.883 33.7031C394.294 33.9062 394.638 34.1979 394.914 34.5781C395.195 34.9583 395.409 35.4141 395.555 35.9453C395.701 36.4714 395.773 37.0573 395.773 37.7031ZM394.32 37.8672V37.7031C394.32 37.2812 394.281 36.8854 394.203 36.5156C394.125 36.1406 394 35.8125 393.828 35.5312C393.656 35.2448 393.43 35.0208 393.148 34.8594C392.867 34.6927 392.521 34.6094 392.109 34.6094C391.745 34.6094 391.427 34.6719 391.156 34.7969C390.891 34.9219 390.664 35.0911 390.477 35.3047C390.289 35.513 390.135 35.7526 390.016 36.0234C389.901 36.2891 389.815 36.5651 389.758 36.8516V38.7344C389.841 39.099 389.977 39.4505 390.164 39.7891C390.357 40.1224 390.612 40.3958 390.93 40.6094C391.253 40.8229 391.651 40.9297 392.125 40.9297C392.516 40.9297 392.849 40.8516 393.125 40.6953C393.406 40.5339 393.633 40.3125 393.805 40.0312C393.982 39.75 394.112 39.4245 394.195 39.0547C394.279 38.6849 394.32 38.2891 394.32 37.8672ZM402.586 40.5547V36.2031C402.586 35.8698 402.518 35.5807 402.383 35.3359C402.253 35.0859 402.055 34.8932 401.789 34.7578C401.523 34.6224 401.195 34.5547 400.805 34.5547C400.44 34.5547 400.12 34.6172 399.844 34.7422C399.573 34.8672 399.359 35.0312 399.203 35.2344C399.052 35.4375 398.977 35.6562 398.977 35.8906H397.531C397.531 35.5885 397.609 35.2891 397.766 34.9922C397.922 34.6953 398.146 34.4271 398.438 34.1875C398.734 33.9427 399.089 33.75 399.5 33.6094C399.917 33.4635 400.38 33.3906 400.891 33.3906C401.505 33.3906 402.047 33.4948 402.516 33.7031C402.99 33.9115 403.359 34.2266 403.625 34.6484C403.896 35.0651 404.031 35.5885 404.031 36.2188V40.1562C404.031 40.4375 404.055 40.737 404.102 41.0547C404.154 41.3724 404.229 41.6458 404.328 41.875V42H402.82C402.747 41.8333 402.69 41.612 402.648 41.3359C402.607 41.0547 402.586 40.7943 402.586 40.5547ZM402.836 36.875L402.852 37.8906H401.391C400.979 37.8906 400.612 37.9245 400.289 37.9922C399.966 38.0547 399.695 38.151 399.477 38.2812C399.258 38.4115 399.091 38.5755 398.977 38.7734C398.862 38.9661 398.805 39.1927 398.805 39.4531C398.805 39.7188 398.865 39.9609 398.984 40.1797C399.104 40.3984 399.284 40.5729 399.523 40.7031C399.768 40.8281 400.068 40.8906 400.422 40.8906C400.865 40.8906 401.255 40.7969 401.594 40.6094C401.932 40.4219 402.201 40.1927 402.398 39.9219C402.602 39.651 402.711 39.388 402.727 39.1328L403.344 39.8281C403.307 40.0469 403.208 40.2891 403.047 40.5547C402.885 40.8203 402.669 41.0755 402.398 41.3203C402.133 41.5599 401.815 41.7604 401.445 41.9219C401.081 42.0781 400.669 42.1562 400.211 42.1562C399.638 42.1562 399.135 42.0443 398.703 41.8203C398.276 41.5964 397.943 41.2969 397.703 40.9219C397.469 40.5417 397.352 40.1172 397.352 39.6484C397.352 39.1953 397.44 38.7969 397.617 38.4531C397.794 38.1042 398.049 37.8151 398.383 37.5859C398.716 37.3516 399.117 37.1745 399.586 37.0547C400.055 36.9349 400.578 36.875 401.156 36.875H402.836ZM409.688 40.9688C410.031 40.9688 410.349 40.8984 410.641 40.7578C410.932 40.6172 411.172 40.4245 411.359 40.1797C411.547 39.9297 411.654 39.6458 411.68 39.3281H413.055C413.029 39.8281 412.859 40.2943 412.547 40.7266C412.24 41.1536 411.836 41.5 411.336 41.7656C410.836 42.026 410.286 42.1562 409.688 42.1562C409.052 42.1562 408.497 42.0443 408.023 41.8203C407.555 41.5964 407.164 41.2891 406.852 40.8984C406.544 40.5078 406.312 40.0599 406.156 39.5547C406.005 39.0443 405.93 38.5052 405.93 37.9375V37.6094C405.93 37.0417 406.005 36.5052 406.156 36C406.312 35.4896 406.544 35.0391 406.852 34.6484C407.164 34.2578 407.555 33.9505 408.023 33.7266C408.497 33.5026 409.052 33.3906 409.688 33.3906C410.349 33.3906 410.927 33.526 411.422 33.7969C411.917 34.0625 412.305 34.4271 412.586 34.8906C412.872 35.349 413.029 35.8698 413.055 36.4531H411.68C411.654 36.1042 411.555 35.7891 411.383 35.5078C411.216 35.2266 410.987 35.0026 410.695 34.8359C410.409 34.6641 410.073 34.5781 409.688 34.5781C409.245 34.5781 408.872 34.6667 408.57 34.8438C408.273 35.0156 408.036 35.25 407.859 35.5469C407.688 35.8385 407.562 36.1641 407.484 36.5234C407.411 36.8776 407.375 37.2396 407.375 37.6094V37.9375C407.375 38.3073 407.411 38.6719 407.484 39.0312C407.557 39.3906 407.68 39.7161 407.852 40.0078C408.029 40.2995 408.266 40.5339 408.562 40.7109C408.865 40.8828 409.24 40.9688 409.688 40.9688ZM416.133 30V42H414.68V30H416.133ZM421.297 33.5469L417.609 37.4922L415.547 39.6328L415.43 38.0938L416.906 36.3281L419.531 33.5469H421.297ZM419.977 42L416.961 37.9688L417.711 36.6797L421.68 42H419.977ZM430.297 33.5469V34.6562H425.727V33.5469H430.297ZM427.273 31.4922H428.719V39.9062C428.719 40.1927 428.763 40.4089 428.852 40.5547C428.94 40.7005 429.055 40.7969 429.195 40.8438C429.336 40.8906 429.487 40.9141 429.648 40.9141C429.768 40.9141 429.893 40.9036 430.023 40.8828C430.159 40.8568 430.26 40.8359 430.328 40.8203L430.336 42C430.221 42.0365 430.07 42.0703 429.883 42.1016C429.701 42.138 429.479 42.1562 429.219 42.1562C428.865 42.1562 428.539 42.0859 428.242 41.9453C427.945 41.8047 427.708 41.5703 427.531 41.2422C427.359 40.9089 427.273 40.4609 427.273 39.8984V31.4922ZM431.453 37.8672V37.6875C431.453 37.0781 431.542 36.513 431.719 35.9922C431.896 35.4661 432.151 35.0104 432.484 34.625C432.818 34.2344 433.221 33.9323 433.695 33.7188C434.169 33.5 434.701 33.3906 435.289 33.3906C435.883 33.3906 436.417 33.5 436.891 33.7188C437.37 33.9323 437.776 34.2344 438.109 34.625C438.448 35.0104 438.706 35.4661 438.883 35.9922C439.06 36.513 439.148 37.0781 439.148 37.6875V37.8672C439.148 38.4766 439.06 39.0417 438.883 39.5625C438.706 40.0833 438.448 40.5391 438.109 40.9297C437.776 41.3151 437.372 41.6172 436.898 41.8359C436.43 42.0495 435.898 42.1562 435.305 42.1562C434.711 42.1562 434.177 42.0495 433.703 41.8359C433.229 41.6172 432.823 41.3151 432.484 40.9297C432.151 40.5391 431.896 40.0833 431.719 39.5625C431.542 39.0417 431.453 38.4766 431.453 37.8672ZM432.898 37.6875V37.8672C432.898 38.2891 432.948 38.6875 433.047 39.0625C433.146 39.4323 433.294 39.7604 433.492 40.0469C433.695 40.3333 433.948 40.5599 434.25 40.7266C434.552 40.888 434.904 40.9688 435.305 40.9688C435.701 40.9688 436.047 40.888 436.344 40.7266C436.646 40.5599 436.896 40.3333 437.094 40.0469C437.292 39.7604 437.44 39.4323 437.539 39.0625C437.643 38.6875 437.695 38.2891 437.695 37.8672V37.6875C437.695 37.2708 437.643 36.8776 437.539 36.5078C437.44 36.1328 437.289 35.8021 437.086 35.5156C436.888 35.224 436.638 34.9948 436.336 34.8281C436.039 34.6615 435.69 34.5781 435.289 34.5781C434.893 34.5781 434.544 34.6615 434.242 34.8281C433.945 34.9948 433.695 35.224 433.492 35.5156C433.294 35.8021 433.146 36.1328 433.047 36.5078C432.948 36.8776 432.898 37.2708 432.898 37.6875ZM446.5 33.5469V42H445.047V33.5469H446.5ZM444.938 31.3047C444.938 31.0703 445.008 30.8724 445.148 30.7109C445.294 30.5495 445.508 30.4688 445.789 30.4688C446.065 30.4688 446.276 30.5495 446.422 30.7109C446.573 30.8724 446.648 31.0703 446.648 31.3047C446.648 31.5286 446.573 31.7214 446.422 31.8828C446.276 32.0391 446.065 32.1172 445.789 32.1172C445.508 32.1172 445.294 32.0391 445.148 31.8828C445.008 31.7214 444.938 31.5286 444.938 31.3047ZM452.359 33.5469V34.6562H447.789V33.5469H452.359ZM449.336 31.4922H450.781V39.9062C450.781 40.1927 450.826 40.4089 450.914 40.5547C451.003 40.7005 451.117 40.7969 451.258 40.8438C451.398 40.8906 451.549 40.9141 451.711 40.9141C451.831 40.9141 451.956 40.9036 452.086 40.8828C452.221 40.8568 452.323 40.8359 452.391 40.8203L452.398 42C452.284 42.0365 452.133 42.0703 451.945 42.1016C451.763 42.138 451.542 42.1562 451.281 42.1562C450.927 42.1562 450.602 42.0859 450.305 41.9453C450.008 41.8047 449.771 41.5703 449.594 41.2422C449.422 40.9089 449.336 40.4609 449.336 39.8984V31.4922ZM458.977 39.7578C458.977 39.5495 458.93 39.3568 458.836 39.1797C458.747 38.9974 458.562 38.8333 458.281 38.6875C458.005 38.5365 457.589 38.4062 457.031 38.2969C456.562 38.1979 456.138 38.0807 455.758 37.9453C455.383 37.8099 455.062 37.6458 454.797 37.4531C454.536 37.2604 454.336 37.0339 454.195 36.7734C454.055 36.513 453.984 36.2083 453.984 35.8594C453.984 35.526 454.057 35.2109 454.203 34.9141C454.354 34.6172 454.565 34.3542 454.836 34.125C455.112 33.8958 455.443 33.7161 455.828 33.5859C456.214 33.4557 456.643 33.3906 457.117 33.3906C457.794 33.3906 458.372 33.5104 458.852 33.75C459.331 33.9896 459.698 34.3099 459.953 34.7109C460.208 35.1068 460.336 35.5469 460.336 36.0312H458.891C458.891 35.7969 458.82 35.5703 458.68 35.3516C458.544 35.1276 458.344 34.9427 458.078 34.7969C457.818 34.651 457.497 34.5781 457.117 34.5781C456.716 34.5781 456.391 34.6406 456.141 34.7656C455.896 34.8854 455.716 35.0391 455.602 35.2266C455.492 35.4141 455.438 35.612 455.438 35.8203C455.438 35.9766 455.464 36.1172 455.516 36.2422C455.573 36.362 455.672 36.474 455.812 36.5781C455.953 36.6771 456.151 36.7708 456.406 36.8594C456.661 36.9479 456.987 37.0365 457.383 37.125C458.076 37.2812 458.646 37.4688 459.094 37.6875C459.542 37.9062 459.875 38.1745 460.094 38.4922C460.312 38.8099 460.422 39.1953 460.422 39.6484C460.422 40.0182 460.344 40.3568 460.188 40.6641C460.036 40.9714 459.815 41.237 459.523 41.4609C459.237 41.6797 458.893 41.8516 458.492 41.9766C458.096 42.0964 457.651 42.1562 457.156 42.1562C456.411 42.1562 455.781 42.0234 455.266 41.7578C454.75 41.4922 454.359 41.1484 454.094 40.7266C453.828 40.3047 453.695 39.8594 453.695 39.3906H455.148C455.169 39.7865 455.284 40.1016 455.492 40.3359C455.701 40.5651 455.956 40.7292 456.258 40.8281C456.56 40.9219 456.859 40.9688 457.156 40.9688C457.552 40.9688 457.883 40.9167 458.148 40.8125C458.419 40.7083 458.625 40.5651 458.766 40.3828C458.906 40.2005 458.977 39.9922 458.977 39.7578ZM465.906 37.8672V37.6875C465.906 37.0781 465.995 36.513 466.172 35.9922C466.349 35.4661 466.604 35.0104 466.938 34.625C467.271 34.2344 467.674 33.9323 468.148 33.7188C468.622 33.5 469.154 33.3906 469.742 33.3906C470.336 33.3906 470.87 33.5 471.344 33.7188C471.823 33.9323 472.229 34.2344 472.562 34.625C472.901 35.0104 473.159 35.4661 473.336 35.9922C473.513 36.513 473.602 37.0781 473.602 37.6875V37.8672C473.602 38.4766 473.513 39.0417 473.336 39.5625C473.159 40.0833 472.901 40.5391 472.562 40.9297C472.229 41.3151 471.826 41.6172 471.352 41.8359C470.883 42.0495 470.352 42.1562 469.758 42.1562C469.164 42.1562 468.63 42.0495 468.156 41.8359C467.682 41.6172 467.276 41.3151 466.938 40.9297C466.604 40.5391 466.349 40.0833 466.172 39.5625C465.995 39.0417 465.906 38.4766 465.906 37.8672ZM467.352 37.6875V37.8672C467.352 38.2891 467.401 38.6875 467.5 39.0625C467.599 39.4323 467.747 39.7604 467.945 40.0469C468.148 40.3333 468.401 40.5599 468.703 40.7266C469.005 40.888 469.357 40.9688 469.758 40.9688C470.154 40.9688 470.5 40.888 470.797 40.7266C471.099 40.5599 471.349 40.3333 471.547 40.0469C471.745 39.7604 471.893 39.4323 471.992 39.0625C472.096 38.6875 472.148 38.2891 472.148 37.8672V37.6875C472.148 37.2708 472.096 36.8776 471.992 36.5078C471.893 36.1328 471.742 35.8021 471.539 35.5156C471.341 35.224 471.091 34.9948 470.789 34.8281C470.492 34.6615 470.143 34.5781 469.742 34.5781C469.346 34.5781 468.997 34.6615 468.695 34.8281C468.398 34.9948 468.148 35.224 467.945 35.5156C467.747 35.8021 467.599 36.1328 467.5 36.5078C467.401 36.8776 467.352 37.2708 467.352 37.6875ZM476.859 34.875V42H475.414V33.5469H476.82L476.859 34.875ZM479.5 33.5L479.492 34.8438C479.372 34.8177 479.258 34.8021 479.148 34.7969C479.044 34.7865 478.924 34.7812 478.789 34.7812C478.456 34.7812 478.161 34.8333 477.906 34.9375C477.651 35.0417 477.435 35.1875 477.258 35.375C477.081 35.5625 476.94 35.7865 476.836 36.0469C476.737 36.3021 476.672 36.5833 476.641 36.8906L476.234 37.125C476.234 36.6146 476.284 36.1354 476.383 35.6875C476.487 35.2396 476.646 34.8438 476.859 34.5C477.073 34.151 477.344 33.8802 477.672 33.6875C478.005 33.4896 478.401 33.3906 478.859 33.3906C478.964 33.3906 479.083 33.4036 479.219 33.4297C479.354 33.4505 479.448 33.474 479.5 33.5ZM482.406 33.5469V42H480.953V33.5469H482.406ZM480.844 31.3047C480.844 31.0703 480.914 30.8724 481.055 30.7109C481.201 30.5495 481.414 30.4688 481.695 30.4688C481.971 30.4688 482.182 30.5495 482.328 30.7109C482.479 30.8724 482.555 31.0703 482.555 31.3047C482.555 31.5286 482.479 31.7214 482.328 31.8828C482.182 32.0391 481.971 32.1172 481.695 32.1172C481.414 32.1172 481.201 32.0391 481.055 31.8828C480.914 31.7214 480.844 31.5286 480.844 31.3047ZM490.203 33.5469H491.516V41.8203C491.516 42.5651 491.365 43.2005 491.062 43.7266C490.76 44.2526 490.339 44.651 489.797 44.9219C489.26 45.1979 488.641 45.3359 487.938 45.3359C487.646 45.3359 487.302 45.2891 486.906 45.1953C486.516 45.1068 486.13 44.9531 485.75 44.7344C485.375 44.5208 485.06 44.2318 484.805 43.8672L485.562 43.0078C485.917 43.4349 486.286 43.7318 486.672 43.8984C487.062 44.0651 487.448 44.1484 487.828 44.1484C488.286 44.1484 488.682 44.0625 489.016 43.8906C489.349 43.7188 489.607 43.4635 489.789 43.125C489.977 42.7917 490.07 42.3802 490.07 41.8906V35.4062L490.203 33.5469ZM484.383 37.8672V37.7031C484.383 37.0573 484.458 36.4714 484.609 35.9453C484.766 35.4141 484.987 34.9583 485.273 34.5781C485.565 34.1979 485.917 33.9062 486.328 33.7031C486.74 33.4948 487.203 33.3906 487.719 33.3906C488.25 33.3906 488.714 33.4844 489.109 33.6719C489.51 33.8542 489.849 34.1224 490.125 34.4766C490.406 34.8255 490.628 35.2474 490.789 35.7422C490.951 36.237 491.062 36.7969 491.125 37.4219V38.1406C491.068 38.7604 490.956 39.3177 490.789 39.8125C490.628 40.3073 490.406 40.7292 490.125 41.0781C489.849 41.4271 489.51 41.6953 489.109 41.8828C488.708 42.0651 488.24 42.1562 487.703 42.1562C487.198 42.1562 486.74 42.0495 486.328 41.8359C485.922 41.6224 485.573 41.3229 485.281 40.9375C484.99 40.5521 484.766 40.099 484.609 39.5781C484.458 39.0521 484.383 38.4818 484.383 37.8672ZM485.828 37.7031V37.8672C485.828 38.2891 485.87 38.6849 485.953 39.0547C486.042 39.4245 486.174 39.75 486.352 40.0312C486.534 40.3125 486.766 40.5339 487.047 40.6953C487.328 40.8516 487.664 40.9297 488.055 40.9297C488.534 40.9297 488.93 40.8281 489.242 40.625C489.555 40.4219 489.802 40.1536 489.984 39.8203C490.172 39.487 490.318 39.125 490.422 38.7344V36.8516C490.365 36.5651 490.276 36.2891 490.156 36.0234C490.042 35.7526 489.891 35.513 489.703 35.3047C489.521 35.0911 489.294 34.9219 489.023 34.7969C488.753 34.6719 488.435 34.6094 488.07 34.6094C487.674 34.6094 487.333 34.6927 487.047 34.8594C486.766 35.0208 486.534 35.2448 486.352 35.5312C486.174 35.8125 486.042 36.1406 485.953 36.5156C485.87 36.8854 485.828 37.2812 485.828 37.7031ZM495.281 33.5469V42H493.828V33.5469H495.281ZM493.719 31.3047C493.719 31.0703 493.789 30.8724 493.93 30.7109C494.076 30.5495 494.289 30.4688 494.57 30.4688C494.846 30.4688 495.057 30.5495 495.203 30.7109C495.354 30.8724 495.43 31.0703 495.43 31.3047C495.43 31.5286 495.354 31.7214 495.203 31.8828C495.057 32.0391 494.846 32.1172 494.57 32.1172C494.289 32.1172 494.076 32.0391 493.93 31.8828C493.789 31.7214 493.719 31.5286 493.719 31.3047ZM499.047 35.3516V42H497.602V33.5469H498.969L499.047 35.3516ZM498.703 37.4531L498.102 37.4297C498.107 36.8516 498.193 36.3177 498.359 35.8281C498.526 35.3333 498.76 34.9036 499.062 34.5391C499.365 34.1745 499.724 33.8932 500.141 33.6953C500.562 33.4922 501.029 33.3906 501.539 33.3906C501.956 33.3906 502.331 33.4479 502.664 33.5625C502.997 33.6719 503.281 33.849 503.516 34.0938C503.755 34.3385 503.938 34.6562 504.062 35.0469C504.188 35.4323 504.25 35.9036 504.25 36.4609V42H502.797V36.4453C502.797 36.0026 502.732 35.6484 502.602 35.3828C502.471 35.112 502.281 34.9167 502.031 34.7969C501.781 34.6719 501.474 34.6094 501.109 34.6094C500.75 34.6094 500.422 34.6849 500.125 34.8359C499.833 34.987 499.581 35.1953 499.367 35.4609C499.159 35.7266 498.995 36.0312 498.875 36.375C498.76 36.7135 498.703 37.0729 498.703 37.4531ZM506.469 41.2344C506.469 40.9896 506.544 40.7839 506.695 40.6172C506.852 40.4453 507.076 40.3594 507.367 40.3594C507.659 40.3594 507.88 40.4453 508.031 40.6172C508.188 40.7839 508.266 40.9896 508.266 41.2344C508.266 41.474 508.188 41.6771 508.031 41.8438C507.88 42.0104 507.659 42.0938 507.367 42.0938C507.076 42.0938 506.852 42.0104 506.695 41.8438C506.544 41.6771 506.469 41.474 506.469 41.2344Z" fill="#0288D1"/>
<path fill-rule="evenodd" clip-rule="evenodd" d="M29.7142 43.5578V41.0131C29.7142 40.8881 29.6718 40.7832 29.587 40.6984C29.5022 40.6136 29.4017 40.5712 29.2857 40.5712H26.7142C26.5982 40.5712 26.4977 40.6136 26.4129 40.6984C26.3281 40.7832 26.2857 40.8881 26.2857 41.0131V43.5578C26.2857 43.6828 26.3281 43.7877 26.4129 43.8725C26.4977 43.9573 26.5982 43.9998 26.7142 43.9998H29.2857C29.4017 43.9998 29.5022 43.9573 29.587 43.8725C29.6718 43.7877 29.7142 43.6828 29.7142 43.5578ZM29.6875 38.5489L29.9285 32.4015C29.9285 32.2944 29.8839 32.2096 29.7946 32.1471C29.6785 32.0489 29.5714 31.9998 29.4732 31.9998H26.5267C26.4285 31.9998 26.3214 32.0489 26.2053 32.1471C26.116 32.2096 26.0714 32.3033 26.0714 32.4283L26.2991 38.5489C26.2991 38.6381 26.3437 38.7118 26.433 38.7698C26.5223 38.8279 26.6294 38.8569 26.7544 38.8569H29.2321C29.3571 38.8569 29.462 38.8279 29.5468 38.7698C29.6316 38.7118 29.6785 38.6381 29.6875 38.5489L29.6875 38.5489ZM29.5 26.0399L39.7856 44.897C40.0981 45.4595 40.0892 46.022 39.7588 46.5845C39.6071 46.8435 39.3995 47.0488 39.1361 47.2006C38.8727 47.3524 38.5892 47.4283 38.2856 47.4283H17.7142C17.4106 47.4283 17.1271 47.3524 16.8637 47.2006C16.6004 47.0488 16.3928 46.8435 16.241 46.5845C15.9106 46.022 15.9017 45.4595 16.2142 44.897L26.4999 26.0399C26.6517 25.7631 26.8615 25.5444 27.1293 25.3836C27.3972 25.2229 27.6874 25.1426 27.9999 25.1426C28.3124 25.1426 28.6026 25.2229 28.8704 25.3836C29.1383 25.5444 29.3481 25.7631 29.4999 26.0399H29.5Z" fill="#0288D1"/>
</g>
<defs>
<clipPath id="clip0_7679_51586">
<rect width="552" height="72" fill="white"/>
</clipPath>
</defs>
</svg>
