<svg width="49" height="49" viewBox="0 0 49 49" fill="none" xmlns="http://www.w3.org/2000/svg">
<path d="M38.5447 26.1977C38.6239 25.6036 38.6636 24.9898 38.6636 24.3363C38.6636 23.7027 38.6239 23.069 38.5249 22.4749L42.5447 19.3462C42.9012 19.069 43.0002 18.5343 42.7824 18.1383L38.9804 11.564C38.7428 11.1284 38.2477 10.9898 37.8121 11.1284L33.0794 13.0294C32.0893 12.2769 31.0398 11.6432 29.8715 11.168L29.1586 6.1383C29.0794 5.66305 28.6834 5.32642 28.2081 5.32642H20.6041C20.1289 5.32642 19.7527 5.66305 19.6735 6.1383L18.9606 11.168C17.7923 11.6432 16.723 12.2967 15.7527 13.0294L11.02 11.1284C10.5843 10.97 10.0893 11.1284 9.85167 11.564L6.0695 18.1383C5.83187 18.5541 5.91108 19.069 6.30712 19.3462L10.3269 22.4749C10.2279 23.069 10.1487 23.7225 10.1487 24.3363C10.1487 24.9502 10.1883 25.6036 10.2873 26.1977L6.26751 29.3264C5.91108 29.6036 5.81207 30.1383 6.02989 30.5343L9.83187 37.1086C10.0695 37.5442 10.5645 37.6829 11.0002 37.5442L15.7329 35.6432C16.723 36.3957 17.7725 37.0294 18.9408 37.5046L19.6537 42.5343C19.7527 43.0096 20.1289 43.3462 20.6041 43.3462H28.2081C28.6834 43.3462 29.0794 43.0096 29.1388 42.5343L29.8517 37.5046C31.02 37.0294 32.0893 36.3957 33.0596 35.6432L37.7923 37.5442C38.2279 37.7027 38.723 37.5442 38.9606 37.1086L42.7626 30.5343C43.0002 30.0987 42.9012 29.6036 42.5249 29.3264L38.5447 26.1977ZM24.4061 31.465C20.4853 31.465 17.2774 28.2571 17.2774 24.3363C17.2774 20.4155 20.4853 17.2076 24.4061 17.2076C28.3269 17.2076 31.5348 20.4155 31.5348 24.3363C31.5348 28.2571 28.3269 31.465 24.4061 31.465Z" fill="#C7325F"/>
</svg>
