<svg width="49" height="49" viewBox="0 0 49 49" fill="none" xmlns="http://www.w3.org/2000/svg">
<g id="SettingsFilled">
<path id="Vector" d="M38.5443 26.1979C38.6235 25.6039 38.6631 24.99 38.6631 24.3366C38.6631 23.7029 38.6235 23.0692 38.5245 22.4752L42.5443 19.3465C42.9008 19.0692 42.9998 18.5346 42.782 18.1385L38.98 11.5643C38.7424 11.1286 38.2473 10.99 37.8117 11.1286L33.079 13.0296C32.0889 12.2772 31.0394 11.6435 29.8711 11.1682L29.1582 6.13854C29.079 5.66329 28.6829 5.32666 28.2077 5.32666H20.6037C20.1285 5.32666 19.7522 5.66329 19.673 6.13854L18.9602 11.1682C17.7919 11.6435 16.7225 12.297 15.7523 13.0296L11.0196 11.1286C10.5839 10.9702 10.0889 11.1286 9.85126 11.5643L6.06908 18.1385C5.83146 18.5544 5.91067 19.0692 6.30671 19.3465L10.3265 22.4752C10.2275 23.0692 10.1483 23.7227 10.1483 24.3366C10.1483 24.9504 10.1879 25.6039 10.2869 26.1979L6.2671 29.3267C5.91067 29.6039 5.81166 30.1385 6.02948 30.5346L9.83146 37.1088C10.0691 37.5445 10.5641 37.6831 10.9998 37.5445L15.7324 35.6435C16.7225 36.396 17.7721 37.0296 18.9404 37.5049L19.6532 42.5346C19.7523 43.0098 20.1285 43.3465 20.6037 43.3465H28.2077C28.6829 43.3465 29.079 43.0098 29.1384 42.5346L29.8513 37.5049C31.0196 37.0296 32.0889 36.396 33.0592 35.6435L37.7919 37.5445C38.2275 37.7029 38.7225 37.5445 38.9602 37.1088L42.7622 30.5346C42.9998 30.0989 42.9008 29.6039 42.5245 29.3267L38.5443 26.1979ZM24.4057 31.4653C20.4849 31.4653 17.277 28.2574 17.277 24.3366C17.277 20.4158 20.4849 17.2078 24.4057 17.2078C28.3265 17.2078 31.5344 20.4158 31.5344 24.3366C31.5344 28.2574 28.3265 31.4653 24.4057 31.4653Z" fill="#FAFAFB"/>
</g>
</svg>
