<svg width="24" height="25" viewBox="0 0 24 25" fill="none" xmlns="http://www.w3.org/2000/svg">
<g clip-path="url(#clip0_9301_6370)">
<g filter="url(#filter0_b_9301_6370)">
<path d="M0 12.6431C0 19.2551 5.376 24.6431 12 24.6431C18.612 24.6431 24 19.2551 24 12.6431C24 6.01907 18.612 0.643066 12 0.643066C5.376 0.643066 0 6.01907 0 12.6431Z" fill="black" fill-opacity="0.04"/>
</g>
<path d="M12 5.89307C10.665 5.89307 9.35994 6.28895 8.2499 7.03065C7.13987 7.77235 6.27471 8.82655 5.76382 10.06C5.25292 11.2934 5.11925 12.6506 5.3797 13.9599C5.64015 15.2693 6.28303 16.472 7.22703 17.416C8.17104 18.36 9.37377 19.0029 10.6831 19.2634C11.9925 19.5238 13.3497 19.3901 14.5831 18.8793C15.8165 18.3684 16.8707 17.5032 17.6124 16.3932C18.3541 15.2831 18.75 13.9781 18.75 12.6431C18.75 10.8529 18.0388 9.13597 16.773 7.8701C15.5071 6.60423 13.7902 5.89307 12 5.89307ZM12 18.2681C10.8875 18.2681 9.79995 17.9382 8.87492 17.3201C7.94989 16.702 7.22892 15.8235 6.80318 14.7957C6.37744 13.7678 6.26604 12.6368 6.48309 11.5457C6.70013 10.4545 7.23586 9.45226 8.02253 8.66559C8.8092 7.87892 9.81148 7.34319 10.9026 7.12615C11.9938 6.90911 13.1248 7.0205 14.1526 7.44624C15.1804 7.87199 16.0589 8.59296 16.677 9.51798C17.2951 10.443 17.625 11.5305 17.625 12.6431C17.625 14.1349 17.0324 15.5656 15.9775 16.6205C14.9226 17.6754 13.4918 18.2681 12 18.2681Z" fill="black" fill-opacity="0.6"/>
<path d="M12 11.3494C11.8508 11.3494 11.7078 11.4087 11.6023 11.5142C11.4968 11.6197 11.4375 11.7627 11.4375 11.9119V15.7369C11.4375 15.8861 11.4968 16.0292 11.6023 16.1347C11.7078 16.2402 11.8508 16.2994 12 16.2994C12.1492 16.2994 12.2923 16.2402 12.3978 16.1347C12.5033 16.0292 12.5625 15.8861 12.5625 15.7369V11.9119C12.5625 11.7627 12.5033 11.6197 12.3978 11.5142C12.2923 11.4087 12.1492 11.3494 12 11.3494ZM12 9.04317C11.8477 9.0489 11.7034 9.11271 11.5967 9.2215C11.49 9.3303 11.429 9.47582 11.4263 9.62817V9.71817C11.426 9.79157 11.441 9.86421 11.4704 9.93148C11.4997 9.99875 11.5427 10.0592 11.5967 10.1089C11.6507 10.1586 11.7144 10.1966 11.7838 10.2204C11.8533 10.2441 11.9269 10.2532 12 10.2469C12.1474 10.2414 12.2873 10.1803 12.3916 10.076C12.4959 9.97169 12.557 9.83183 12.5625 9.68442V9.54942C12.563 9.47793 12.5483 9.40716 12.5194 9.34176C12.4905 9.27636 12.4481 9.21782 12.3949 9.17C12.3418 9.12217 12.2791 9.08614 12.2111 9.06428C12.143 9.04242 12.0711 9.03523 12 9.04317Z" fill="black" fill-opacity="0.6"/>
</g>
<defs>
<filter id="filter0_b_9301_6370" x="-6" y="-5.35693" width="36" height="36" filterUnits="userSpaceOnUse" color-interpolation-filters="sRGB">
<feFlood flood-opacity="0" result="BackgroundImageFix"/>
<feGaussianBlur in="BackgroundImageFix" stdDeviation="3"/>
<feComposite in2="SourceAlpha" operator="in" result="effect1_backgroundBlur_9301_6370"/>
<feBlend mode="normal" in="SourceGraphic" in2="effect1_backgroundBlur_9301_6370" result="shape"/>
</filter>
<clipPath id="clip0_9301_6370">
<rect width="24" height="24" fill="white" transform="translate(0 0.643066)"/>
</clipPath>
</defs>
</svg>
