<svg width="24" height="25" viewBox="0 0 24 25" fill="none" xmlns="http://www.w3.org/2000/svg">
<g id="vuesax/outline/share">
<g id="share">
<path id="Vector" d="M20.6201 13.7129C20.2401 13.7129 19.9201 13.4229 19.8701 13.0429C19.6301 10.7829 18.4101 8.73292 16.5301 7.43292C16.1901 7.19292 16.1101 6.73292 16.3401 6.39292C16.5801 6.05292 17.0501 5.97292 17.3801 6.20292C19.6201 7.75292 21.0601 10.1929 21.3501 12.8829C21.3901 13.2929 21.1001 13.6629 20.6801 13.7129C20.6701 13.7129 20.6401 13.7129 20.6201 13.7129Z" fill="black" fill-opacity="0.6"/>
<path id="Vector_2" d="M3.48991 13.7628C3.45991 13.7628 3.43991 13.7628 3.40991 13.7628C2.99991 13.7128 2.69991 13.3428 2.73991 12.9328C3.00991 10.2428 4.43991 7.81284 6.64991 6.24284C6.98991 6.00284 7.45991 6.08284 7.69991 6.42284C7.93991 6.76284 7.85991 7.23284 7.51991 7.47284C5.65991 8.78284 4.45991 10.8328 4.22991 13.0928C4.19991 13.4728 3.86991 13.7628 3.48991 13.7628Z" fill="black" fill-opacity="0.6"/>
<path id="Vector_3" d="M12.06 23.2525C10.58 23.2525 9.16997 22.9125 7.84997 22.2525C7.47997 22.0625 7.32997 21.6125 7.51997 21.2425C7.70997 20.8725 8.15997 20.7225 8.52997 20.9125C10.69 22.0025 13.29 22.0225 15.47 20.9725C15.84 20.7925 16.29 20.9525 16.47 21.3225C16.65 21.6925 16.49 22.1425 16.12 22.3225C14.84 22.9425 13.48 23.2525 12.06 23.2525Z" fill="black" fill-opacity="0.6"/>
<path id="Vector_4" d="M12.0598 9.08246C10.1098 9.08246 8.52979 7.50246 8.52979 5.55246C8.52979 3.60246 10.1098 2.02246 12.0598 2.02246C14.0098 2.02246 15.5898 3.60246 15.5898 5.55246C15.5898 7.50246 13.9998 9.08246 12.0598 9.08246ZM12.0598 3.53246C10.9398 3.53246 10.0298 4.44246 10.0298 5.56246C10.0298 6.68246 10.9398 7.59246 12.0598 7.59246C13.1798 7.59246 14.0898 6.68246 14.0898 5.56246C14.0898 4.44246 13.1698 3.53246 12.0598 3.53246Z" fill="black" fill-opacity="0.6"/>
<path id="Vector_5" d="M4.8298 21.3129C2.8798 21.3129 1.2998 19.7329 1.2998 17.7829C1.2998 15.8429 2.8798 14.2529 4.8298 14.2529C6.7798 14.2529 8.3598 15.8329 8.3598 17.7829C8.3598 19.7229 6.7798 21.3129 4.8298 21.3129ZM4.8298 15.7529C3.7098 15.7529 2.7998 16.6629 2.7998 17.7829C2.7998 18.9029 3.7098 19.8129 4.8298 19.8129C5.9498 19.8129 6.85981 18.9029 6.85981 17.7829C6.85981 16.6629 5.9498 15.7529 4.8298 15.7529Z" fill="black" fill-opacity="0.6"/>
<path id="Vector_6" d="M19.1701 21.3129C17.2201 21.3129 15.6401 19.7329 15.6401 17.7829C15.6401 15.8429 17.2201 14.2529 19.1701 14.2529C21.1201 14.2529 22.7001 15.8329 22.7001 17.7829C22.6901 19.7229 21.1101 21.3129 19.1701 21.3129ZM19.1701 15.7529C18.0501 15.7529 17.1401 16.6629 17.1401 17.7829C17.1401 18.9029 18.0501 19.8129 19.1701 19.8129C20.2901 19.8129 21.2001 18.9029 21.2001 17.7829C21.1901 16.6629 20.2901 15.7529 19.1701 15.7529Z" fill="black" fill-opacity="0.6"/>
</g>
</g>
</svg>
