<svg width="24" height="25" viewBox="0 0 24 25" fill="none" xmlns="http://www.w3.org/2000/svg">
<g id="vuesax/outline/share">
<g id="share">
<path id="Vector" d="M20.6201 13.3555C20.2401 13.3555 19.9201 13.0655 19.8701 12.6855C19.6301 10.4255 18.4101 8.3755 16.5301 7.0755C16.1901 6.8355 16.1101 6.3755 16.3401 6.0355C16.5801 5.6955 17.0501 5.6155 17.3801 5.8455C19.6201 7.3955 21.0601 9.8355 21.3501 12.5255C21.3901 12.9355 21.1001 13.3055 20.6801 13.3555C20.6701 13.3555 20.6401 13.3555 20.6201 13.3555Z" fill="#C7325F"/>
<path id="Vector_2" d="M3.48991 13.4054C3.45991 13.4054 3.43991 13.4054 3.40991 13.4054C2.99991 13.3554 2.69991 12.9854 2.73991 12.5754C3.00991 9.88541 4.43991 7.45541 6.64991 5.88541C6.98991 5.64541 7.45991 5.72541 7.69991 6.06541C7.93991 6.40541 7.85991 6.87541 7.51991 7.11541C5.65991 8.42541 4.45991 10.4754 4.22991 12.7354C4.19991 13.1154 3.86991 13.4054 3.48991 13.4054Z" fill="#C7325F"/>
<path id="Vector_3" d="M12.06 22.8951C10.58 22.8951 9.16997 22.5551 7.84997 21.8951C7.47997 21.7051 7.32997 21.2551 7.51997 20.8851C7.70997 20.5151 8.15997 20.3651 8.52997 20.5551C10.69 21.6451 13.29 21.6651 15.47 20.6151C15.84 20.4351 16.29 20.5951 16.47 20.9651C16.65 21.3351 16.49 21.7851 16.12 21.9651C14.84 22.5851 13.48 22.8951 12.06 22.8951Z" fill="#C7325F"/>
<path id="Vector_4" d="M12.0598 8.72504C10.1098 8.72504 8.52979 7.14504 8.52979 5.19504C8.52979 3.24504 10.1098 1.66504 12.0598 1.66504C14.0098 1.66504 15.5898 3.24504 15.5898 5.19504C15.5898 7.14504 13.9998 8.72504 12.0598 8.72504ZM12.0598 3.17504C10.9398 3.17504 10.0298 4.08504 10.0298 5.20504C10.0298 6.32504 10.9398 7.23504 12.0598 7.23504C13.1798 7.23504 14.0898 6.32504 14.0898 5.20504C14.0898 4.08504 13.1698 3.17504 12.0598 3.17504Z" fill="#C7325F"/>
<path id="Vector_5" d="M4.8298 20.9555C2.8798 20.9555 1.2998 19.3755 1.2998 17.4255C1.2998 15.4855 2.8798 13.8955 4.8298 13.8955C6.7798 13.8955 8.3598 15.4755 8.3598 17.4255C8.3598 19.3655 6.7798 20.9555 4.8298 20.9555ZM4.8298 15.3955C3.7098 15.3955 2.7998 16.3055 2.7998 17.4255C2.7998 18.5455 3.7098 19.4555 4.8298 19.4555C5.9498 19.4555 6.85981 18.5455 6.85981 17.4255C6.85981 16.3055 5.9498 15.3955 4.8298 15.3955Z" fill="#C7325F"/>
<path id="Vector_6" d="M19.1701 20.9555C17.2201 20.9555 15.6401 19.3755 15.6401 17.4255C15.6401 15.4855 17.2201 13.8955 19.1701 13.8955C21.1201 13.8955 22.7001 15.4755 22.7001 17.4255C22.6901 19.3655 21.1101 20.9555 19.1701 20.9555ZM19.1701 15.3955C18.0501 15.3955 17.1401 16.3055 17.1401 17.4255C17.1401 18.5455 18.0501 19.4555 19.1701 19.4555C20.2901 19.4555 21.2001 18.5455 21.2001 17.4255C21.1901 16.3055 20.2901 15.3955 19.1701 15.3955Z" fill="#C7325F"/>
</g>
</g>
</svg>
