<svg width="24" height="25" viewBox="0 0 24 25" fill="none" xmlns="http://www.w3.org/2000/svg">
<path d="M21.0702 5.51516C19.4602 5.35516 17.8502 5.23516 16.2302 5.14516V5.13516L16.0102 3.83516C15.8602 2.91516 15.6402 1.53516 13.3002 1.53516H10.6802C8.35016 1.53516 8.13016 2.85516 7.97016 3.82516L7.76016 5.10516C6.83016 5.16516 5.90016 5.22516 4.97016 5.31516L2.93016 5.51516C2.51016 5.55516 2.21016 5.92516 2.25016 6.33516C2.29016 6.74516 2.65016 7.04516 3.07016 7.00516L5.11016 6.80516C10.3502 6.28516 15.6302 6.48516 20.9302 7.01516C20.9602 7.01516 20.9802 7.01516 21.0102 7.01516C21.3902 7.01516 21.7202 6.72516 21.7602 6.33516C21.7902 5.92516 21.4902 5.55516 21.0702 5.51516Z" fill="black" fill-opacity="0.6"/>
<path d="M19.2302 8.42516C18.9902 8.17516 18.6602 8.03516 18.3202 8.03516H5.68024C5.34024 8.03516 5.00024 8.17516 4.77024 8.42516C4.54024 8.67516 4.41024 9.01516 4.43024 9.36516L5.05024 19.6252C5.16024 21.1452 5.30024 23.0452 8.79024 23.0452H15.2102C18.7002 23.0452 18.8402 21.1552 18.9502 19.6252L19.5702 9.37516C19.5902 9.01516 19.4602 8.67516 19.2302 8.42516ZM13.6602 18.0352H10.3302C9.92024 18.0352 9.58024 17.6952 9.58024 17.2852C9.58024 16.8752 9.92024 16.5352 10.3302 16.5352H13.6602C14.0702 16.5352 14.4102 16.8752 14.4102 17.2852C14.4102 17.6952 14.0702 18.0352 13.6602 18.0352ZM14.5002 14.0352H9.50024C9.09024 14.0352 8.75024 13.6952 8.75024 13.2852C8.75024 12.8752 9.09024 12.5352 9.50024 12.5352H14.5002C14.9102 12.5352 15.2502 12.8752 15.2502 13.2852C15.2502 13.6952 14.9102 14.0352 14.5002 14.0352Z" fill="black" fill-opacity="0.6"/>
</svg>
