<svg xmlns="http://www.w3.org/2000/svg" width="25" height="24" viewBox="0 0 25 24" fill="none">
<path d="M12.9678 16.3299C10.5778 16.3299 8.63779 14.3899 8.63779 11.9999C8.63779 9.60992 10.5778 7.66992 12.9678 7.66992C15.3578 7.66992 17.2978 9.60992 17.2978 11.9999C17.2978 14.3899 15.3578 16.3299 12.9678 16.3299ZM12.9678 9.16992C11.4078 9.16992 10.1378 10.4399 10.1378 11.9999C10.1378 13.5599 11.4078 14.8299 12.9678 14.8299C14.5278 14.8299 15.7978 13.5599 15.7978 11.9999C15.7978 10.4399 14.5278 9.16992 12.9678 9.16992Z" fill="black" fill-opacity="0.6"/>
<path d="M12.9678 21.0205C9.20776 21.0205 5.65776 18.8205 3.21776 15.0005C2.15776 13.3505 2.15776 10.6605 3.21776 9.00047C5.66776 5.18047 9.21776 2.98047 12.9678 2.98047C16.7178 2.98047 20.2678 5.18047 22.7078 9.00047C23.7678 10.6505 23.7678 13.3405 22.7078 15.0005C20.2678 18.8205 16.7178 21.0205 12.9678 21.0205ZM12.9678 4.48047C9.73776 4.48047 6.64776 6.42047 4.48776 9.81047C3.73776 10.9805 3.73776 13.0205 4.48776 14.1905C6.64776 17.5805 9.73776 19.5205 12.9678 19.5205C16.1978 19.5205 19.2878 17.5805 21.4478 14.1905C22.1978 13.0205 22.1978 10.9805 21.4478 9.81047C19.2878 6.42047 16.1978 4.48047 12.9678 4.48047Z" fill="black" fill-opacity="0.6"/>
</svg>
