<svg width="32" height="32" viewBox="0 0 32 32" fill="none" xmlns="http://www.w3.org/2000/svg">
<g id="Icons/w/warning">
<path id="warning" fill-rule="evenodd" clip-rule="evenodd" d="M17.7142 23.5578V21.0131C17.7142 20.8881 17.6718 20.7832 17.587 20.6984C17.5022 20.6136 17.4017 20.5712 17.2857 20.5712H14.7142C14.5982 20.5712 14.4977 20.6136 14.4129 20.6984C14.3281 20.7832 14.2857 20.8881 14.2857 21.0131V23.5578C14.2857 23.6828 14.3281 23.7877 14.4129 23.8725C14.4977 23.9573 14.5982 23.9998 14.7142 23.9998H17.2857C17.4017 23.9998 17.5022 23.9573 17.587 23.8725C17.6718 23.7877 17.7142 23.6828 17.7142 23.5578ZM17.6875 18.5489L17.9285 12.4015C17.9285 12.2944 17.8839 12.2096 17.7946 12.1471C17.6785 12.0489 17.5714 11.9998 17.4732 11.9998H14.5267C14.4285 11.9998 14.3214 12.0489 14.2053 12.1471C14.116 12.2096 14.0714 12.3033 14.0714 12.4283L14.2991 18.5489C14.2991 18.6381 14.3437 18.7118 14.433 18.7698C14.5223 18.8279 14.6294 18.8569 14.7544 18.8569H17.2321C17.3571 18.8569 17.462 18.8279 17.5468 18.7698C17.6316 18.7118 17.6785 18.6381 17.6875 18.5489L17.6875 18.5489ZM17.5 6.0399L27.7856 24.897C28.0981 25.4595 28.0892 26.022 27.7588 26.5845C27.6071 26.8435 27.3995 27.0488 27.1361 27.2006C26.8727 27.3524 26.5892 27.4283 26.2856 27.4283H5.71419C5.41062 27.4283 5.12714 27.3524 4.86375 27.2006C4.60035 27.0488 4.39276 26.8435 4.24098 26.5845C3.91062 26.022 3.90169 25.4595 4.21419 24.897L14.4999 6.0399C14.6517 5.76311 14.8615 5.54436 15.1293 5.38365C15.3972 5.22294 15.6874 5.14258 15.9999 5.14258C16.3124 5.14258 16.6026 5.22294 16.8704 5.38365C17.1383 5.54436 17.3481 5.76311 17.4999 6.0399H17.5Z" fill="#0288D1"/>
</g>
</svg>
